<?xml version="1.0" encoding="UTF-8" standalone="no"?>
<!-- Created with Inkscape (http://www.inkscape.org/) -->

<svg
   width="210mm"
   height="297mm"
   viewBox="0 0 210 297"
   version="1.1"
   id="svg1116"
   inkscape:version="1.1.2 (0a00cf5339, 2022-02-04)"
   sodipodi:docname="pad_border.svg"
   xmlns:inkscape="http://www.inkscape.org/namespaces/inkscape"
   xmlns:sodipodi="http://sodipodi.sourceforge.net/DTD/sodipodi-0.dtd"
   xmlns="http://www.w3.org/2000/svg"
   xmlns:svg="http://www.w3.org/2000/svg">
  <sodipodi:namedview
     id="namedview1118"
     pagecolor="#ffffff"
     bordercolor="#666666"
     borderopacity="1.0"
     inkscape:pageshadow="2"
     inkscape:pageopacity="0.0"
     inkscape:pagecheckerboard="0"
     inkscape:document-units="mm"
     showgrid="false"
     inkscape:zoom="0.24441214"
     inkscape:cx="713.95799"
     inkscape:cy="822.38141"
     inkscape:window-width="1500"
     inkscape:window-height="931"
     inkscape:window-x="0"
     inkscape:window-y="0"
     inkscape:window-maximized="1"
     inkscape:current-layer="layer2" />
  <defs
     id="defs1113" />
  <g
     inkscape:groupmode="layer"
     id="layer2"
     inkscape:label="Calque 1"
     style="display:inline">
    <path
       style="fill:none;stroke:#000000;stroke-width:0.174171;stroke-opacity:1"
       d="m 29.114535,71.555138 c 0.538338,-0.130655 2.629578,-0.71162 4.647205,-1.29103 3.519341,-1.010674 8.066384,-2.161572 12.13945,-3.0726 4.062107,-0.908588 14.065715,-2.721248 16.807499,-3.045545 1.580602,-0.18695 3.304897,-0.415022 3.831761,-0.50683 1.402104,-0.244318 3.7882,-0.458318 11.657213,-1.045521 6.095862,-0.454885 7.952162,-0.525467 13.820404,-0.525467 3.728294,0 8.083723,0.07852 9.678723,0.174532 2.84443,0.171177 11.11271,0.636266 14.58813,0.820579 2.01553,0.106892 2.83252,-0.08325 3.3951,-0.790006 0.34243,-0.430215 0.36267,-0.601422 0.26123,-2.209123 -0.10036,-1.590433 -0.0755,-1.810298 0.28466,-2.515286 0.21705,-0.424882 0.59736,-0.920002 0.84514,-1.100262 0.51061,-0.37148 1.66248,-0.573997 2.32252,-0.408331 0.78571,0.197194 1.60166,1.086377 2.01765,2.198723 0.82361,2.202314 2.02993,2.451138 4.54595,0.937694 1.62062,-0.97484 3.48763,-2.629754 4.57556,-4.05575 0.93984,-1.231882 3.81343,-5.702084 4.35986,-6.782272 1.16926,-2.311371 1.74278,-5.620648 1.5899,-9.173977 -0.20647,-4.799419 -0.50692,-6.387647 -2.03676,-10.766761 -1.99529,-5.711451 -3.6413,-9.12823 -8.25863,-17.14322 -0.76126,-1.3214455 -3.9158,-5.0954172 -4.25908,-5.0954172 -0.0816,0 -0.51177,0.3146247 -0.95608,0.6991727 -1.426,1.2341842 -2.26696,1.4737395 -3.44532,0.9813942 -1.59483,-0.6663661 -2.17269,-2.4272176 -1.29628,-3.9500096 0.59597,-1.0355242 0.36737,-1.4305615 -1.20717,-2.0860445 C 116.024,0.55522996 112.46964,-0.03068408 108.72818,0.10672193 106.726,0.18022687 105.94831,0.29647684 103.93201,0.82350821 101.45028,1.4721917 96.097532,3.3932584 94.407814,4.2416844 93.88095,4.5062235 93.175558,4.7742557 92.840279,4.8373204 92.505,4.9003949 91.486096,5.1812586 90.576052,5.461522 88.781666,6.0141079 81.884728,7.4919605 78.384082,8.073968 75.556091,8.544134 74.55232,8.8676442 74.55232,9.3089002 c 0,0.1841953 0.168294,2.1569218 0.37398,4.3838168 0.466525,5.050901 0.480449,5.979277 0.100319,6.691291 -0.864436,1.619175 -3.108885,1.939526 -4.417853,0.630568 l -0.629151,-0.629161 -4.644921,0.467578 c -2.554705,0.257169 -4.91565,0.540935 -5.24654,0.630597 -1.325755,0.35922 -5.957983,0.845996 -6.350177,0.667301 -0.262089,-0.119408 -0.773858,-0.117627 -1.586368,0.0059 -0.659705,0.100004 -2.296739,0.275521 -3.637855,0.390019 -2.826279,0.241307 -3.554647,0.119832 -4.556676,-0.759964 -1.075298,-0.94412 -1.034432,-0.750351 -1.804679,-8.557746 -0.188168,-1.90731 -0.378513,-3.5042466 -0.423,-3.5487235 -0.04448,-0.044477 -0.61319,-0.075473 -1.263793,-0.06888 -1.591672,0.016236 -5.100239,-0.4343778 -6.49513,-0.834158 C 33.347819,8.5988937 31.858661,8.3303202 30.661229,8.1805354 25.523667,7.5378445 19.992652,8.7085508 15.468595,11.396244 c -2.22223,1.320205 -2.444979,1.792398 -1.527781,3.238664 0.865558,1.36486 0.667045,2.572348 -0.606765,3.690775 -0.862556,0.757337 -1.942282,0.766311 -3.109859,0.02588 -1.0940526,-0.69382 -1.5170257,-0.670095 -2.2144567,0.12425 -0.6676551,0.760417 -2.2668843,3.998373 -2.7211586,5.509534 -0.1746603,0.581024 -0.7700601,2.392286 -1.3231184,4.02502 -1.7413289,5.140809 -2.3213586,7.37656 -3.07464152,11.851318 -0.70418121,4.183139 -0.93699604,6.844254 -0.73137902,8.360207 0.17907849,1.320285 0.42213677,3.533492 0.62230242,5.666512 0.17862585,1.903454 1.67480062,5.411066 3.28154762,7.693232 0.4034506,0.573033 0.9458619,1.358729 1.2053629,1.745973 0.2594911,0.387254 0.7185378,0.854133 1.020095,1.037522 0.3015571,0.183398 0.7429705,0.564807 0.9809022,0.84757 1.1609351,1.379688 5.4528161,4.330188 7.3442451,5.04887 1.292919,0.491263 2.308498,0.584261 3.040497,0.278423 0.680526,-0.284347 0.816347,-0.508253 1.236349,-2.038129 0.667517,-2.431538 2.410785,-3.394639 4.222588,-2.332852 1.066845,0.625215 1.451914,1.455889 1.451914,3.132077 0,0.728565 0.08069,1.475458 0.179334,1.659752 0.452641,0.845769 2.299682,1.097103 4.369962,0.594632 z"
       id="path825"
       sodipodi:nodetypes="csssssscsssssssssssssssssssssssssssscscscsssscscsssssscssssssssssssccc" />
  </g>
</svg>
