<?xml version="1.0" encoding="UTF-8" standalone="no"?>
<!-- Created with Inkscape (http://www.inkscape.org/) -->

<svg
   width="210mm"
   height="297mm"
   viewBox="0 0 210 297"
   version="1.1"
   id="svg7925"
   inkscape:version="1.1.2 (0a00cf5339, 2022-02-04)"
   sodipodi:docname="pad_A_board.svg"
   xmlns:inkscape="http://www.inkscape.org/namespaces/inkscape"
   xmlns:sodipodi="http://sodipodi.sourceforge.net/DTD/sodipodi-0.dtd"
   xmlns="http://www.w3.org/2000/svg"
   xmlns:svg="http://www.w3.org/2000/svg">
  <sodipodi:namedview
     id="namedview7927"
     pagecolor="#ffffff"
     bordercolor="#666666"
     borderopacity="1.0"
     inkscape:pageshadow="2"
     inkscape:pageopacity="0.0"
     inkscape:pagecheckerboard="0"
     inkscape:document-units="mm"
     showgrid="false"
     inkscape:zoom="23.57889"
     inkscape:cx="14.652937"
     inkscape:cy="20.866122"
     inkscape:window-width="1500"
     inkscape:window-height="931"
     inkscape:window-x="0"
     inkscape:window-y="0"
     inkscape:window-maximized="1"
     inkscape:current-layer="g10446" />
  <defs
     id="defs7922" />
  <g
     inkscape:label="font"
     inkscape:groupmode="layer"
     id="layer1"
     style="display:inline">
    <path
       style="fill:#000000;stroke-width:0.00806899"
       d="M 3.0599821,6.4412454 C 2.3364772,6.3961385 1.6537601,6.1188126 1.1118635,5.649902 1.0673132,5.6113519 0.97629126,5.5240134 0.90959157,5.4558156 0.39337826,4.9280125 0.08398098,4.2586959 0.00930348,3.5082307 c -0.01240464,-0.1246582 -0.01240464,-0.4482395 0,-0.5728979 C 0.08398098,2.1848672 0.39337826,1.5155511 0.90959157,0.98774753 1.248732,0.64099234 1.6069253,0.40201138 2.0521169,0.2254712 2.4381759,0.07238032 2.8226643,0 3.2498342,0 3.677004,0 4.0614924,0.07238032 4.4475504,0.2254712 4.892743,0.40201138 5.2509354,0.64099234 5.5900768,0.98774753 6.1062901,1.5155511 6.4156874,2.1848672 6.4903649,2.9353328 6.4956637,2.9885881 6.5,3.1174902 6.5,3.2217817 6.5,3.3260734 6.49566,3.4549754 6.49036,3.5082307 6.4156874,4.2586959 6.1062901,4.9280125 5.5900768,5.4558156 5.2509354,5.8025716 4.892743,6.0415524 4.4475504,6.2180926 4.0169812,6.3888345 3.5147802,6.4696 3.0599821,6.4412454 Z M 3.6411796,6.1552269 C 4.4511453,6.041277 5.1571249,5.615875 5.6204127,4.9626008 5.9795053,4.4174722 6.1645529,3.828628 6.1667169,3.2419542 c 0,-0.2606018 -0.024654,-0.468549 -0.084395,-0.7118506 C 5.928489,1.9036027 5.5661672,1.3328844 5.07369,0.9413367 4.6519677,0.60604284 4.1703246,0.40111448 3.6309622,0.32748893 c -0.1525038,-0.0208174 -0.5613383,-0.0208174 -0.7138421,0 C 1.9485379,0.45970513 1.141803,1.0315408 0.7008123,1.8984683 0.5306641,2.2329581 0.42294887,2.6072616 0.38965859,2.9797122 c -0.0106673,0.1193502 -0.0106673,0.4051336 0,0.5244844 C 0.55174698,4.6358529 1.2452903,5.5813118 2.2297407,5.9795845 2.4878545,6.08068 2.739826,6.1393342 3.0481092,6.1700856 c 0.082055,0.00819 0.5045101,-0.0024 0.5930704,-0.014859 z"
       id="path8074"
       sodipodi:nodetypes="sscscssssssscssscccsssccscccc" />
  </g>
  <g
     inkscape:label="1"
     inkscape:groupmode="layer"
     id="g8206"
     style="display:inline">
    <path
       style="fill:#000000;stroke-width:0.00806899"
       d="M 3.1489722,5.7452371 C 2.8840861,5.7275241 2.6756986,5.6870241 2.4481179,5.6090291 1.9737455,5.4464541 1.5643773,5.1450681 1.2513947,4.7279736 c -0.08255,-0.11001 -0.1858065,-0.281803 -0.2052645,-0.341508 -0.052873,-0.162237 0.048687,-0.325314 0.202596,-0.325314 0.095974,0 0.1531681,0.04662 0.2408154,0.196309 0.027318,0.04665 0.075618,0.119272 0.1073359,0.161379 0.061815,0.08206 0.217144,0.258109 0.2277341,0.258109 0.00353,0 0.00511,-0.01906 0.00351,-0.04236 -0.016929,-0.247417 -0.099221,-1.931397 -0.095722,-1.9587458 0.012997,-0.1015997 0.064657,-0.1745932 0.1550684,-0.2191023 0.045693,-0.022495 0.061061,-0.02594 0.1157045,-0.02594 0.054645,0 0.070012,0.00345 0.1157054,0.02594 0.072444,0.035664 0.1207394,0.090466 0.1420215,0.1611555 0.015281,0.050753 0.017939,0.1224784 0.045358,1.2239148 0.016019,0.6435018 0.030476,1.1744353 0.032126,1.1798533 0.00868,0.02851 0.3124213,0.134884 0.475722,0.166597 0.1642956,0.03191 0.26933,0.04 0.4547486,0.03505 0.1461242,-0.0039 0.2634365,-0.0152 0.2747013,-0.02647 0.00201,-0.002 -0.030454,-0.7053095 -0.072135,-1.562896 -0.041682,-0.8575819 -0.075722,-1.5828455 -0.075645,-1.6116921 1.906e-4,-0.072229 0.025711,-0.1336322 0.079825,-0.1920817 0.089899,-0.097103 0.2111495,-0.1210835 0.3249212,-0.064263 0.055509,0.027723 0.1175467,0.1000269 0.1416164,0.1650544 l 0.020351,0.05498 0.041681,1.5249781 c 0.022924,0.8387379 0.043508,1.5268053 0.04574,1.5290373 0.00718,0.0072 0.1718312,-0.0823 0.2639597,-0.143434 C 4.6993714,4.6407196 4.9807458,4.2740986 5.1250698,3.8395558 5.1920838,3.6377832 5.2208658,3.4772139 5.230249,3.2527732 5.238199,3.0626961 5.24857,3.024428 5.309832,2.9592164 c 0.1068061,-0.1136917 0.2756848,-0.1136917 0.3824899,0 0.021216,0.022584 0.04611,0.060608 0.056483,0.086279 0.017431,0.043133 0.018454,0.055622 0.016985,0.2072782 -0.00366,0.3775064 -0.083398,0.722067 -0.2455604,1.061071 -0.3789808,0.7922685 -1.1359409,1.3294675 -2.0000872,1.4194235 -0.089012,0.0093 -0.3066507,0.01628 -0.3711736,0.01197 z"
       id="path8074-7"
       sodipodi:nodetypes="cssssccsccssccsccscccssscsccscssccsccc" />
  </g>
  <g
     inkscape:label="2"
     inkscape:groupmode="layer"
     id="g10446"
     style="display:inline">
    <path
       style="fill:#000000;stroke-width:0.00806899"
       d="m 2.8268691,4.6403386 c -0.055874,-0.01555 -0.087182,-0.03513 -0.1293976,-0.08093 -0.038317,-0.04157 -0.05411,-0.07449 -0.065631,-0.136815 C 2.6274562,4.3988656 2.6080344,3.6763724 2.588687,2.8170518 2.5693386,1.9577314 2.5514102,1.252553 2.5488465,1.249989 2.5407934,1.2419321 2.4474727,1.2792101 2.3219006,1.340647 1.7899261,1.6009199 1.4008164,2.0826192 1.2498699,2.6677718 1.2135575,2.8085384 1.1947514,2.9457749 1.1890542,3.111566 1.1828118,3.2930914 1.1745977,3.3206623 1.1096983,3.377789 1.0212752,3.455623 0.90522483,3.4509465 0.82040993,3.3661318 0.75599463,3.3017162 0.74885553,3.2695224 0.75988013,3.0931638 0.78360393,2.7136787 0.86871143,2.3976788 1.035057,2.0714511 1.422293,1.312022 2.1521298,0.8109099 3.0117988,0.7142025 c 0.1090723,-0.01227 0.3912054,-0.01227 0.5002777,0 0.492317,0.055383 0.931394,0.2357397 1.3112097,0.5385972 0.2268449,0.1808823 0.5113538,0.5116879 0.569156,0.6617723 0.038857,0.100892 0.01839,0.2272309 -0.049263,0.3040877 -0.1145046,0.1300843 -0.292826,0.09944 -0.3830208,-0.065822 -0.034504,-0.063222 -0.1265928,-0.2031313 -0.133731,-0.2031752 -0.00271,-1.62e-5 -0.00352,0.033557 -0.0018,0.074608 0.00419,0.1000472 0.04271,1.4819625 0.045146,1.6198488 0.00181,0.1027614 7.624e-4,0.1114844 -0.019215,0.1540086 -0.0749,0.1597127 -0.2759415,0.1979277 -0.3981809,0.075688 -0.044577,-0.044577 -0.069655,-0.1051754 -0.07437,-0.1797071 -0.00216,-0.034151 -0.024912,-0.553867 -0.050559,-1.1549233 L 4.2808179,1.4463561 4.2575316,1.4275079 C 4.2075556,1.3870548 3.9753652,1.2799872 3.8429007,1.2363128 3.6220352,1.1634918 3.4402848,1.1346646 3.2020264,1.1346646 H 3.0607941 l 0.0047,0.1311211 c 0.00258,0.072116 0.025281,0.7990647 0.050444,1.6154402 0.049437,1.6039467 0.049119,1.5381667 0.00787,1.6239847 -0.009,0.01871 -0.036017,0.05199 -0.060051,0.07396 -0.066971,0.06121 -0.1550388,0.08395 -0.2368831,0.06117 z"
       id="path10444"
       sodipodi:nodetypes="ssccccsccsccsssscsscccssscssscccccss" />
  </g>
</svg>
