<?xml version="1.0" encoding="UTF-8" standalone="no"?>
<!-- Created with Inkscape (http://www.inkscape.org/) -->

<svg
   width="210mm"
   height="297mm"
   viewBox="0 0 210 297"
   version="1.1"
   id="svg1116"
   inkscape:version="1.1.2 (0a00cf5339, 2022-02-04)"
   sodipodi:docname="pad_font.svg"
   xmlns:inkscape="http://www.inkscape.org/namespaces/inkscape"
   xmlns:sodipodi="http://sodipodi.sourceforge.net/DTD/sodipodi-0.dtd"
   xmlns="http://www.w3.org/2000/svg"
   xmlns:svg="http://www.w3.org/2000/svg">
  <sodipodi:namedview
     id="namedview1118"
     pagecolor="#ffffff"
     bordercolor="#666666"
     borderopacity="1.0"
     inkscape:pageshadow="2"
     inkscape:pageopacity="0.0"
     inkscape:pagecheckerboard="0"
     inkscape:document-units="mm"
     showgrid="false"
     inkscape:zoom="0.70129756"
     inkscape:cx="120.49094"
     inkscape:cy="173.96325"
     inkscape:window-width="1500"
     inkscape:window-height="931"
     inkscape:window-x="0"
     inkscape:window-y="0"
     inkscape:window-maximized="1"
     inkscape:current-layer="layer1" />
  <defs
     id="defs1113" />
  <g
     inkscape:label="Calque 1"
     inkscape:groupmode="layer"
     id="layer1"
     style="display:inline">
    <path
       style="fill:#000000;stroke-width:0.174395"
       d="m 29.092329,71.571377 c 0.543733,-0.131892 2.348723,-0.630611 4.01109,-1.10826 4.33249,-1.244864 11.577195,-3.027262 15.230148,-3.747048 6.043662,-1.190846 12.391973,-2.341902 13.515625,-2.450609 0.623463,-0.06032 2.506932,-0.300955 4.185485,-0.534751 1.678554,-0.233803 6.818851,-0.709015 11.422884,-1.056032 8.252643,-0.62202 8.480667,-0.629781 16.131554,-0.549118 4.840947,0.05103 10.155345,0.222902 14.126005,0.456827 10.18392,0.599971 10.34158,0.605453 11.01618,0.382809 1.04843,-0.346009 1.41579,-0.890866 1.38884,-2.059906 -0.0128,-0.555464 -0.0689,-1.252753 -0.12452,-1.54954 -0.15921,-0.848652 0.23846,-2.000959 0.90869,-2.633073 1.57301,-1.483529 3.84304,-0.68058 4.64509,1.643056 0.57494,1.665633 1.77758,2.181728 3.38419,1.452267 1.2079,-0.54843 3.21802,-1.995482 4.38875,-3.159395 1.1583,-1.15155 4.69319,-6.313947 5.72733,-8.364268 1.29363,-2.564768 1.74045,-5.618276 1.46751,-10.028854 -0.30259,-4.889895 -0.4038,-5.416512 -1.8395,-9.572333 -1.70662,-4.940035 -3.42687,-8.872241 -5.16113,-11.797553 -0.30943,-0.521953 -1.18716,-2.083894 -1.95051,-3.47098 -0.76333,-1.387089 -1.62898,-2.878167 -1.92367,-3.313509 -0.72002,-1.0637457 -3.42442,-4.0182326 -3.6763,-4.0162907 -0.11058,8.404e-4 -0.6551,0.3902102 -1.21005,0.8652417 -1.44364,1.2357454 -2.65676,1.3653295 -3.7973,0.4056241 -1.0692,-0.8996656 -1.31952,-2.1255952 -0.68714,-3.3651574 0.47434,-0.9297859 0.44687,-1.4651784 -0.0933,-1.8191391 -0.81506,-0.5340387 -4.5094,-1.64561993 -6.38167,-1.92015854 -2.33017,-0.34168287 -5.76697,-0.34914991 -7.67176,-0.0166701 -2.67599,0.46709447 -8.870148,2.53807074 -11.489326,3.84138014 -0.623463,0.3102373 -1.44748,0.618454 -1.831149,0.6849263 -0.38367,0.066473 -1.403882,0.3461844 -2.267138,0.6215811 -1.528554,0.4876404 -9.318805,2.1474456 -12.643651,2.6938804 -1.773333,0.2914451 -2.732079,0.530754 -3.11744,0.7781309 -0.203012,0.1303219 -0.194248,0.7137531 0.05698,3.7924692 0.163291,2.001151 0.359979,4.201053 0.437084,4.888676 0.161201,1.437607 0.03075,2.384221 -0.424248,3.078642 -0.624732,0.95346 -2.333433,1.457524 -3.28566,0.969263 -0.209508,-0.107428 -0.635581,-0.436349 -0.946825,-0.730936 l -0.5659,-0.535612 -4.14277,0.400001 c -2.278523,0.220001 -4.535158,0.478078 -5.014746,0.573503 -2.257381,0.449163 -6.810891,0.963309 -7.022502,0.792926 -0.130427,-0.105015 -0.595285,-0.131645 -1.133569,-0.06494 -6.994918,0.866835 -8.055287,0.775694 -9.253587,-0.795358 C 42.962979,20.554711 42.743766,19.67197 42.579022,17.603342 42.351768,14.749847 41.815416,9.7190629 41.729256,9.6329028 41.681433,9.5850798 40.832751,9.5219494 39.843298,9.4926113 37.787669,9.4316553 34.715705,8.9999374 33.685705,8.6272445 33.301323,8.4881618 31.966619,8.2515959 30.719693,8.1015427 c -5.02063,-0.6041751 -9.746434,0.2904156 -14.40568,2.7269813 -2.993413,1.565414 -3.447436,2.276898 -2.420281,3.792749 0.920336,1.358211 0.587218,2.830014 -0.861492,3.806299 -0.853786,0.575367 -1.854646,0.531566 -2.821337,-0.123472 -1.3883724,-0.940774 -2.0076481,-0.657634 -3.1910208,1.458963 -0.5993889,1.072078 -2.0234773,4.445575 -2.0234773,4.793379 0,0.214892 -1.3809759,4.363234 -1.99996,6.007723 -0.9770749,2.595847 -2.23771313,8.702075 -2.79685051,13.547243 -0.30406885,2.634937 -0.27535734,3.679985 0.1880504,6.843864 0.13688458,0.934562 0.24887935,2.034827 0.24887935,2.445038 0,1.896093 1.76728076,6.094239 3.63393146,8.632338 0.5458388,0.742185 1.1304798,1.565236 1.2992,1.82901 0.1687203,0.263775 0.3943335,0.479587 0.5013597,0.479587 0.1070263,0 0.7918984,0.570637 1.5219383,1.268084 3.2261644,3.082129 7.6596984,5.458576 9.5292714,5.10784 0.891802,-0.167302 1.399133,-0.74134 1.637499,-1.852808 0.398083,-1.856194 1.583911,-3.127955 2.916609,-3.127955 0.74821,0 1.852851,0.632884 2.327168,1.333312 0.349935,0.516752 0.444209,0.897307 0.486663,1.964531 0.07336,1.844073 0.146257,2.072887 0.78436,2.461954 0.674506,0.411264 2.300311,0.443278 3.817844,0.07517 z m -3.808475,-0.673239 c -0.349429,-0.406236 -0.406477,-0.660726 -0.406709,-1.814348 -3.48e-4,-1.580199 -0.291805,-2.28347 -1.27058,-3.065538 -0.870187,-0.695306 -2.516827,-0.844724 -3.37402,-0.30616 -0.976508,0.613526 -1.982146,2.392112 -1.982146,3.505657 0,0.18152 -0.206778,0.492688 -0.459507,0.691485 C 16.82747,70.66706 15.031174,70.252717 12.383304,68.661893 10.445046,67.497401 8.9943464,66.396156 7.8235964,65.200555 7.3392684,64.705949 6.743647,64.172928 6.4999963,64.016066 5.7451404,63.530092 3.7999651,60.692364 2.7182215,58.499009 1.6555806,56.344381 0.98400802,54.185685 0.98695881,52.934064 0.98892926,51.993645 0.66071443,48.93956 0.45072498,47.948099 0.17810657,46.660955 1.0256418,40.261258 2.1251766,35.304453 2.5507516,33.385913 5.1208982,25.301537 6.0893406,22.835201 6.7639013,21.117299 7.6780152,19.377098 8.2925017,18.641042 l 0.4941902,-0.59196 1.2618651,0.649108 c 0.694025,0.35701 1.469616,0.647385 1.723536,0.645278 1.364708,-0.01132 2.868119,-1.415983 3.088508,-2.88564 0.117192,-0.781498 0.0056,-1.112236 -0.895865,-2.655761 l -0.335809,-0.574969 0.549871,-0.497429 c 2.271135,-2.054541 7.934524,-4.0928186 12.093779,-4.3526014 2.1075,-0.1316333 6.586533,0.285916 7.328907,0.6832219 0.541556,0.2898323 4.788204,0.867963 6.382246,0.8688664 l 1.416293,7.912e-4 0.101729,0.8283779 c 0.05595,0.455606 0.224444,2.162498 0.374425,3.793094 0.485359,5.276826 0.57269,5.826335 1.057395,6.653422 0.650212,1.1095 1.558655,1.649139 2.966441,1.762144 1.181232,0.09482 5.341762,-0.215514 6.65605,-0.496473 0.486852,-0.104074 0.875675,-0.09275 1.152928,0.03358 0.448982,0.204568 3.89979,-0.137746 6.309052,-0.625849 0.997008,-0.20199 5.476978,-0.707134 9.102859,-1.026406 0.601374,-0.05296 0.803518,0.01226 1.133568,0.365644 0.618151,0.661868 1.355068,0.969959 2.320026,0.969959 2.11134,0 3.375696,-1.610056 3.17412,-4.041989 -0.377387,-4.552986 -0.649263,-7.703016 -0.713712,-8.2692067 -0.09382,-0.8242041 0.02224,-0.8778448 2.94041,-1.3590103 3.67105,-0.6053062 11.284497,-2.2464373 12.910677,-2.7829864 0.863255,-0.2848263 1.75931,-0.5167637 1.991232,-0.5154149 0.231922,0.00138 1.252133,-0.3821048 2.267137,-0.8521185 3.055825,-1.4150461 7.73782,-3.006441 10.91401,-3.70963445 1.68136,-0.37224561 6.40269,-0.26899178 8.5939,0.18794499 2.00646,0.41840756 5.02694,1.44201176 5.42256,1.83764176 0.22904,0.2290408 0.20499,0.3581874 -0.20812,1.1172078 -0.25691,0.4720255 -0.46712,1.1051811 -0.46712,1.4070135 0,0.6374718 0.40559,1.688023 0.83503,2.1629116 0.49364,0.5458664 1.54599,0.9905982 2.34403,0.9905982 0.72797,0 0.83016,0.07536 3.27685,2.4167924 2.28743,2.189015 2.5902,2.550245 3.21243,3.832759 0.37784,0.778782 0.71304,1.389919 0.74487,1.358082 0.0318,-0.03183 -0.24771,-0.716746 -0.6212,-1.522023 -0.63594,-1.371156 -0.83602,-1.612225 -3.15054,-3.795916 l -2.47146,-2.3317765 0.48733,-0.2508222 c 0.26803,-0.1379516 0.76531,-0.5208721 1.10506,-0.8509342 0.33976,-0.3300631 0.69291,-0.5942578 0.78479,-0.5871001 0.23981,0.01868 2.76401,2.8787475 3.45161,3.910878 0.31949,0.479586 1.15509,1.931426 1.85688,3.226309 0.70179,1.294885 1.45415,2.637053 1.67191,2.982594 0.60946,0.967072 2.79369,5.384687 3.46001,6.997861 0.72932,1.765673 2.59853,7.019512 2.96402,8.331036 0.70937,2.545472 1.07716,8.293502 0.69885,10.921978 -0.53009,3.683049 -0.98731,4.748641 -3.99382,9.307859 -2.13191,3.23291 -3.50622,4.737307 -5.5414,6.065883 -2.94256,1.920919 -3.50977,1.874243 -4.66262,-0.383679 -0.96018,-1.88058 -1.41099,-2.243768 -2.90303,-2.338772 -1.45052,-0.09237 -2.45775,0.452131 -3.03245,1.639324 -0.35438,0.732046 -0.37788,0.958299 -0.26877,2.587242 0.1053,1.571944 0.082,1.831433 -0.19519,2.17359 -0.49634,0.612676 -1.43519,0.73265 -4.23866,0.541669 -14.71516,-1.002446 -27.07353,-1.147986 -36.638831,-0.431483 -8.521986,0.638352 -9.946517,0.767792 -12.453415,1.131549 -1.246924,0.180936 -3.091154,0.416246 -4.098287,0.522917 -1.752912,0.185652 -3.159361,0.436059 -12.382056,2.204522 -4.448354,0.852974 -11.986243,2.680526 -16.885371,4.093823 -4.112464,1.186367 -5.00404,1.377438 -6.120743,1.311715 -0.772995,-0.04548 -1.019146,-0.141686 -1.351563,-0.528142 z M 14.152112,64.241391 c 0.881389,-0.458405 1.30719,-0.977367 1.584452,-1.931119 0.948415,-3.262433 -3.186715,-5.381581 -5.198692,-2.664197 -1.1196481,1.512197 -0.412476,4.031441 1.314858,4.684076 0.702273,0.265336 1.692,0.227133 2.299382,-0.08876 z m -2.181303,-0.357029 c -1.785043,-0.71423 -2.0944114,-3.480797 -0.514998,-4.605435 1.069125,-0.761282 2.298299,-0.599546 3.300311,0.43427 1.295928,1.33706 0.651904,3.734338 -1.148,4.273258 -0.728698,0.218176 -0.856851,0.210186 -1.637313,-0.102093 z m 52.843102,-2.284874 c 0.612629,-0.230204 1.276961,-0.838044 1.500409,-1.37283 0.216733,-0.518716 0.32122,-0.581221 1.070238,-0.640221 l 0.830059,-0.06539 -0.828377,-0.03144 c -0.761865,-0.02892 -0.828378,-0.06689 -0.828378,-0.473023 0,-0.242873 -0.117783,-0.723484 -0.261739,-1.06802 -0.1765,-0.42242 -0.517264,-3.629214 -1.04637,-9.846961 -0.431549,-5.071294 -0.795319,-9.436693 -0.808381,-9.700884 -0.01929,-0.390223 -0.0376,-0.409283 -0.09754,-0.101589 -0.06661,0.341918 1.213777,16.671089 1.429911,18.236042 l 0.09006,0.652101 -0.709788,-0.369961 c -0.568737,-0.296446 -0.889168,-0.348718 -1.612442,-0.263058 -0.49646,0.0588 -1.099961,0.251328 -1.341115,0.427839 -1.5241,1.115576 -1.254712,3.787481 0.453839,4.501355 0.579611,0.242181 1.668247,0.300667 2.159616,0.116033 z m -1.793153,-0.460481 c -1.073318,-0.454291 -1.612355,-1.536741 -1.319441,-2.649608 0.30475,-1.157839 1.852755,-1.889811 2.984074,-1.41101 0.843175,0.356851 1.151124,0.808344 1.275992,1.870763 0.102414,0.871388 0.06987,1.009519 -0.357465,1.517383 -0.41579,0.494136 -1.125228,0.846914 -1.798381,0.894262 -0.122977,0.0087 -0.476127,-0.09115 -0.784779,-0.22179 z m 6.804616,-1.805968 c -0.265091,-0.04009 -0.65748,-0.03901 -0.871976,0.0025 -0.214496,0.04138 0.0025,0.07419 0.481984,0.07289 0.479587,-0.0015 0.655083,-0.0352 0.389992,-0.07526 z m 2.09514,-0.174164 c -0.263772,-0.03994 -0.695401,-0.03994 -0.959174,0 -0.263772,0.03994 -0.04796,0.07265 0.479588,0.07265 0.527545,0 0.743359,-0.03268 0.479586,-0.07265 z m 2.092742,-0.174396 c -0.263773,-0.03994 -0.6954,-0.03994 -0.959173,0 -0.263773,0.03994 -0.04796,0.07265 0.479586,0.07265 0.527546,0 0.74336,-0.03268 0.479587,-0.07265 z m 2.092742,-0.174391 c -0.263772,-0.03994 -0.6954,-0.03994 -0.959173,0 -0.263772,0.03994 -0.04796,0.07265 0.479587,0.07265 0.527545,0 0.743359,-0.03268 0.479586,-0.07265 z m 2.090345,-0.174629 c -0.265091,-0.04009 -0.65748,-0.039 -0.871976,0.0025 -0.214496,0.04138 0.0025,0.07419 0.481984,0.07288 0.479588,-0.0015 0.655083,-0.03519 0.389992,-0.07526 z m 2.092742,-0.174396 c -0.265092,-0.04009 -0.657481,-0.03901 -0.871976,0.0025 -0.214496,0.04138 0.0025,0.0742 0.481984,0.07289 0.479587,-0.0015 0.655083,-0.03519 0.389992,-0.07526 z m 2.092743,-0.174397 c -0.265093,-0.04009 -0.657481,-0.039 -0.871977,0.0025 -0.214496,0.04138 0.0025,0.0742 0.481985,0.07289 0.479587,-0.0015 0.655083,-0.03519 0.389992,-0.07526 z m 2.269534,-0.174164 c -0.263772,-0.03994 -0.695401,-0.03994 -0.959173,0 -0.263773,0.03994 -0.04796,0.07265 0.479586,0.07265 0.527546,0 0.74336,-0.03268 0.479587,-0.07265 z m 2.409953,-0.877858 c -0.04796,-0.455607 -0.129647,-1.37772 -0.181534,-2.049145 l -0.09434,-1.220763 0.290453,0.579055 c 0.159747,0.318483 0.566158,0.78935 0.903131,1.046373 0.520973,0.397362 0.784391,0.467312 1.759826,0.467312 0.922625,0 1.258847,-0.07968 1.717876,-0.407077 0.847675,-0.604607 1.317334,-1.642339 1.216804,-2.688582 -0.09657,-1.005046 -0.516712,-1.636497 -1.455143,-2.187008 -1.391965,-0.81657 -3.491248,-0.213123 -4.108325,1.180949 -0.128206,0.289638 -0.276894,0.526619 -0.330415,0.526619 -0.05352,0 -0.305123,-2.844822 -0.559117,-6.321826 -0.253993,-3.477001 -0.424054,-5.340853 -0.377913,-4.141885 0.04614,1.198968 0.276449,4.926663 0.511799,8.283768 0.235348,3.357111 0.448738,6.417745 0.474198,6.801415 l 0.04629,0.697579 -0.784778,0.104605 -0.784778,0.104598 0.921581,0.0262 0.921582,0.0262 z m 2.005501,-1.609718 c -1.284236,-0.368319 -2.104565,-1.752534 -1.756933,-2.964647 0.229346,-0.799683 0.981337,-1.541839 1.780249,-1.756965 2.433536,-0.655283 4.24625,2.347281 2.452622,4.062497 -0.81004,0.774629 -1.465111,0.949011 -2.475938,0.659115 z m 41.232484,0.980372 c 2.26906,-1.057154 2.41379,-4.420113 0.238,-5.530119 -1.47842,-0.754237 -3.36442,-0.152175 -4.05016,1.29291 -0.36731,0.774066 -0.36608,2.07304 0.003,2.850215 0.58152,1.225461 2.58806,1.956029 3.80944,1.386994 z m -2.48673,-0.634076 c -1.66629,-1.01595 -1.65383,-3.184296 0.0255,-4.437243 0.60561,-0.451849 1.96133,-0.468632 2.62692,-0.03253 1.05393,0.690555 1.48357,2.431013 0.88557,3.587402 -0.62235,1.203492 -2.31777,1.626328 -3.53797,0.882358 z M 34.381952,56.48043 c 7.395847,-1.243855 13.459281,-6.770606 15.447078,-14.079825 0.470916,-1.731584 0.648201,-5.751407 0.338407,-7.673185 -0.969203,-6.012348 -4.859304,-11.228647 -10.421104,-13.973818 -2.955634,-1.458831 -5.642498,-2.008504 -9.201074,-1.882336 -5.045167,0.178876 -9.18173,1.933735 -12.773228,5.418805 -2.482168,2.408612 -4.151418,5.254257 -5.058913,8.624156 -0.412099,1.530291 -0.455757,1.993744 -0.455167,4.831758 5.44e-4,2.642038 0.05814,3.347078 0.36371,4.452446 0.991486,3.586612 2.426011,6.192926 4.716225,8.568656 2.918614,3.027598 6.495874,4.934433 10.57069,5.634633 1.644978,0.282664 5.016908,0.323665 6.473376,0.07871 z M 29.121214,56.132642 C 24.131308,55.576232 19.358675,52.937029 16.451938,49.126701 12.114223,43.440556 11.337722,36.117039 14.39468,29.723808 c 2.864018,-5.989721 8.48236,-9.78984 15.403783,-10.418768 1.941832,-0.176448 2.462405,-0.162554 4.18194,0.111614 7.577334,1.208158 13.466855,6.473719 15.429742,13.795058 0.416318,1.552816 0.467111,2.049766 0.463443,4.534273 -0.0035,2.439726 -0.06075,3.003002 -0.454879,4.482967 -0.905558,3.400465 -2.595222,6.259361 -5.1536,8.719862 -2.395171,2.303535 -4.834494,3.732831 -7.833366,4.589867 -2.67483,0.764432 -4.472141,0.910462 -7.310529,0.593961 z m 9.956951,-4.97069 c 0.364122,-0.364116 0.346536,-0.827059 -0.04487,-1.181275 -0.40053,-0.362476 -0.798044,-0.367508 -1.150978,-0.01458 -0.52889,0.528894 -0.146107,1.469905 0.597925,1.469905 0.178133,0 0.447201,-0.12332 0.597927,-0.274047 z m -0.946716,-0.597923 c 0,-0.232527 0.116264,-0.348793 0.34879,-0.348793 0.232527,0 0.348791,0.116266 0.348791,0.348793 0,0.232526 -0.116264,0.348792 -0.348791,0.348792 -0.232526,0 -0.34879,-0.116266 -0.34879,-0.348792 z M 24.079622,25.8143 c 0.409376,-0.452355 0.286663,-1.080771 -0.272081,-1.393341 -0.411731,-0.23033 -0.506895,-0.225986 -0.915575,0.04179 -0.538115,0.352587 -0.599588,0.978845 -0.137159,1.397336 0.42363,0.38338 0.952982,0.365086 1.324815,-0.04578 z m -1.026919,-0.294452 c -0.328681,-0.328681 -0.08183,-0.766301 0.432247,-0.766301 0.423636,0 0.563269,0.455492 0.23903,0.779731 -0.329155,0.329157 -0.328681,0.329166 -0.671277,-0.01343 z m 13.480342,-0.870361 c 0.542228,-0.379791 0.448275,-1.105001 -0.189147,-1.459996 -0.430689,-0.239861 -0.528483,-0.239861 -0.959173,0 -0.637422,0.354995 -0.731375,1.080205 -0.189148,1.459996 0.218654,0.15315 0.519585,0.278455 0.668735,0.278455 0.149149,0 0.450081,-0.125305 0.668733,-0.278455 z m -1.238894,-0.462724 c -0.130676,-0.374622 0.0687,-0.653983 0.466743,-0.653983 0.470898,0 0.805053,0.309699 0.681515,0.631636 -0.115126,0.300015 -1.045088,0.318114 -1.148258,0.02235 z m 39.09631,32.11636 c 0.435881,-0.174259 6.350375,-4.572576 7.224957,-5.372842 1.735388,-1.587926 1.553024,-4.518582 -0.363858,-5.847346 -0.845686,-0.586223 -2.384062,-0.79907 -3.383129,-0.468089 -0.766983,0.25409 -7.434813,5.518051 -7.938568,6.267152 -0.774621,1.151887 -0.712511,2.743274 0.158375,4.057775 0.783633,1.182809 2.998329,1.884631 4.302223,1.36335 z m -2.716076,-0.654606 c -0.111393,-0.06282 -0.533476,-0.490864 -0.937967,-0.951206 -0.914319,-1.040559 -1.078066,-1.944663 -0.563066,-3.108904 0.286289,-0.647206 0.868518,-1.18961 3.604302,-3.357758 1.794572,-1.422226 3.513426,-2.710864 3.819677,-2.863642 0.756515,-0.3774 2.569245,-0.306575 3.284375,0.128323 0.593999,0.361231 1.165821,1.199087 1.404324,2.057676 0.185314,0.667104 -0.07903,1.818288 -0.578629,2.519917 -0.477459,0.670529 -6.960549,5.490684 -7.669923,5.702562 -0.579394,0.173056 -1.962933,0.09872 -2.363093,-0.126968 z m 47.163225,-2.391253 c 0.48391,-0.33895 0.50159,-1.009682 0.0388,-1.472466 -0.41901,-0.419006 -0.8347,-0.4427 -1.35636,-0.07731 -0.48392,0.338951 -0.50159,1.009682 -0.0388,1.472472 0.41899,0.419004 0.83468,0.442693 1.35635,0.07731 z m -1.09477,-0.774887 c 0,-0.31962 0.10495,-0.45089 0.39317,-0.491822 0.23583,-0.03347 0.43522,0.05375 0.49825,0.217998 0.17365,0.452497 -0.0698,0.826492 -0.49825,0.765642 -0.28822,-0.04094 -0.39317,-0.172202 -0.39317,-0.491818 z M 6.1685706,52.836099 c 0.3089999,-0.188411 0.661409,-0.502026 0.7831279,-0.696933 0.121721,-0.194901 0.3079861,-0.354368 0.4139237,-0.354368 0.1059386,0 0.3346553,-0.156956 0.5082642,-0.348794 0.2838638,-0.313664 0.286585,-0.348792 0.027035,-0.348792 -0.2304605,0 -0.2886224,-0.177456 -0.2886224,-0.880632 0,-1.067802 -0.3230335,-1.739276 -1.1344975,-2.358205 -2.5921912,-1.977162 -5.9769901,1.264855 -4.2630447,4.083209 0.6984653,1.148535 2.7746258,1.623495 3.9538191,0.904515 z M 3.6046831,52.525702 C 1.897386,51.667933 1.7284963,49.114584 3.3145789,48.139892 4.2422633,47.5698 4.981257,47.524947 5.8499716,47.986016 c 1.8460438,0.979779 1.856101,3.20322 0.020148,4.45276 -0.6916396,0.470728 -1.4440639,0.499598 -2.2654334,0.08693 z M 109.06668,51.234913 c 0.40766,-0.283578 0.74119,-0.555885 0.74119,-0.605117 0,-0.04923 -0.22793,0.07278 -0.50652,0.271151 -0.27857,0.198362 -0.69753,0.360661 -0.931,0.360661 -0.36696,0 -4.22205,-2.951111 -10.203361,-7.810789 -0.407649,-0.331204 -0.741181,-0.561595 -0.741181,-0.511978 0,0.04963 2.138522,1.799326 4.752272,3.888224 2.61374,2.088899 5.06618,4.051226 5.44985,4.360727 l 0.69758,0.562723 z m 2.37779,-1.628235 c 0.46851,-0.324139 0.93937,-0.68401 1.04637,-0.799712 0.107,-0.115707 -0.29594,0.117506 -0.89542,0.51825 -0.59949,0.400743 -1.08997,0.76494 -1.08997,0.809322 0,0.119692 0.0164,0.110512 0.93902,-0.52786 z m 2.26714,-1.569556 c 0.46849,-0.324139 0.93936,-0.68401 1.04637,-0.799713 0.10699,-0.115707 -0.29594,0.117506 -0.89543,0.518251 -0.59948,0.400743 -1.08996,0.764939 -1.08996,0.809322 0,0.119691 0.0164,0.110512 0.93902,-0.52786 z m 2.79032,-1.918349 c 0.46851,-0.32414 0.93937,-0.68401 1.04637,-0.799712 0.107,-0.115702 -0.29594,0.117511 -0.89542,0.518254 -0.59948,0.400739 -1.08998,0.764936 -1.08998,0.809323 0,0.119687 0.0164,0.110506 0.93903,-0.527865 z m 2.26714,-1.569551 c 0.4685,-0.324145 0.93936,-0.684015 1.04637,-0.799718 0.10699,-0.115703 -0.29594,0.117511 -0.89543,0.518255 -0.59948,0.400739 -1.08997,0.764935 -1.08997,0.809323 0,0.119686 0.0164,0.110506 0.93903,-0.52786 z M 71.48231,43.664031 c 0.920543,-0.499485 0.785439,-1.750725 -0.251903,-2.332969 -0.415792,-0.233377 -0.527175,-0.229842 -1.081109,0.03431 -0.716046,0.341456 -0.941762,0.939074 -0.634686,1.680424 0.194502,0.469572 0.817338,0.89965 1.280539,0.884231 0.115383,-0.0039 0.424605,-0.123538 0.687159,-0.265999 z m -1.401665,-0.459477 c -0.115101,-0.115099 -0.209274,-0.413315 -0.209274,-0.662704 0,-0.249384 0.09417,-0.5476 0.209274,-0.662699 0.331607,-0.331609 1.14954,-0.254262 1.354147,0.128051 0.410832,0.767649 0.09673,1.406624 -0.691445,1.406624 -0.249385,0 -0.5476,-0.09417 -0.662702,-0.209272 z m 66.866745,0.307534 c 0.29936,-0.130285 0.77023,-0.53311 1.04638,-0.895176 0.4356,-0.571106 0.50211,-0.810227 0.50211,-1.805434 0,-0.922628 -0.0797,-1.258849 -0.40708,-1.717877 -1.20064,-1.683322 -4.03421,-1.654888 -5.08855,0.05107 -0.31958,0.517098 -0.374,0.814903 -0.31584,1.728435 0.11618,1.824492 1.22362,2.898676 2.97194,2.882694 0.41073,-0.0039 0.9917,-0.113423 1.29104,-0.243704 z m -2.71342,-0.597682 c -0.69968,-0.505006 -1.09037,-1.159094 -1.18295,-1.980483 -0.27625,-2.450912 2.80366,-3.681849 4.46836,-1.785859 0.93582,1.065845 0.88007,2.487329 -0.1357,3.460508 -0.87682,0.840047 -2.22782,0.971227 -3.14971,0.305834 z m -12.78523,-0.215491 c 0.40765,-0.28873 0.74119,-0.563672 0.74119,-0.610985 0,-0.04731 -0.35316,0.156955 -0.78479,0.45392 -0.43163,0.29697 -0.78477,0.575412 -0.78477,0.618761 0,0.120043 0.0331,0.101619 0.82837,-0.461696 z m -11.72807,0.210903 c 3.14187,-1.450067 2.35381,-6.271688 -1.07897,-6.601535 -2.76131,-0.265327 -4.61469,1.895476 -3.88362,4.527803 0.54061,1.946546 3.00598,2.976764 4.96259,2.073732 z m -3.29919,-0.53351 c -1.27606,-0.788644 -1.72358,-2.822449 -0.93126,-4.232188 0.43389,-0.772008 1.22055,-1.247807 2.3495,-1.421053 2.01988,-0.309968 3.8896,1.771531 3.35953,3.740058 -0.53888,2.001261 -3.02467,2.996656 -4.77777,1.913183 z m -9.431657,0.165542 c -0.173611,-0.191832 -0.354893,-0.348788 -0.40285,-0.348788 -0.04795,0 0.05485,0.156956 0.228454,0.348788 0.17361,0.191837 0.354892,0.348793 0.402848,0.348793 0.04795,0 -0.05485,-0.156956 -0.228452,-0.348793 z m -0.871977,-0.69758 c -0.17361,-0.191832 -0.354893,-0.348787 -0.40285,-0.348787 -0.04796,0 0.05484,0.156955 0.228454,0.348787 0.17361,0.191837 0.354893,0.348792 0.40285,0.348792 0.04795,0 -0.05484,-0.156955 -0.228454,-0.348792 z m -0.871977,-0.69758 c -0.173608,-0.191832 -0.35489,-0.348788 -0.402848,-0.348788 -0.04796,0 0.05485,0.156956 0.228453,0.348788 0.173609,0.191837 0.354891,0.348793 0.40285,0.348793 0.04796,0 -0.05485,-0.156956 -0.228455,-0.348793 z m 28.993201,-0.36612 c 0.40765,-0.288734 0.74118,-0.563675 0.74118,-0.610985 0,-0.04731 -0.35316,0.156951 -0.78479,0.453921 -0.43162,0.296965 -0.78477,0.575407 -0.78477,0.618761 0,0.120038 0.0331,0.101619 0.82838,-0.461697 z M 94.373894,40.44911 c -0.173609,-0.191832 -0.354891,-0.348787 -0.402849,-0.348787 -0.04796,0 0.05485,0.156955 0.228453,0.348787 0.173609,0.191837 0.354891,0.348792 0.40285,0.348792 0.04796,0 -0.05485,-0.156955 -0.228454,-0.348792 z m -0.976027,-0.795941 c -0.249063,-0.28161 -0.582594,-0.706057 -0.74118,-0.943216 -0.32927,-0.492402 -0.379459,-0.386879 -0.0975,0.204996 0.104962,0.220326 0.438492,0.591765 0.74118,0.825419 l 0.550342,0.424828 z m -7.71376,-1.03521 c -6.93e-4,-0.671419 -0.0323,-0.924721 -0.07005,-0.562893 -0.03775,0.36183 -0.03712,0.911177 0.0014,1.220767 0.03852,0.309591 0.06941,0.01355 0.06864,-0.657874 z m 41.127283,0.333512 0.5232,-0.449533 -0.56679,0.37508 c -0.31173,0.206292 -0.56679,0.408974 -0.56679,0.4504 0,0.130543 0.0739,0.08505 0.61038,-0.375947 z m -53.990486,0.260927 c 0.435882,-0.174257 6.350376,-4.572575 7.224957,-5.372842 1.735387,-1.587926 1.553024,-4.518583 -0.363858,-5.847346 -0.845686,-0.586221 -2.384063,-0.799072 -3.383129,-0.468091 -0.766983,0.254094 -7.434813,5.518054 -7.938567,6.267153 -0.774622,1.151889 -0.712511,2.743276 0.158375,4.05778 0.783633,1.182805 2.998329,1.884627 4.302222,1.363346 z m -2.716075,-0.654607 c -0.111393,-0.06283 -0.533477,-0.490864 -0.937968,-0.951203 -0.914318,-1.040558 -1.078065,-1.944666 -0.563066,-3.108907 0.286289,-0.647205 0.868519,-1.189608 3.604303,-3.357758 1.794571,-1.422225 3.513425,-2.710864 3.819677,-2.863641 0.756514,-0.3774 2.569244,-0.306575 3.284374,0.128321 0.593998,0.361232 1.165822,1.199091 1.404325,2.05768 0.185313,0.667103 -0.07903,1.818284 -0.578631,2.519916 -0.477459,0.670529 -6.960548,5.490685 -7.669921,5.702561 -0.579395,0.173057 -1.962933,0.09872 -2.363093,-0.126969 z M 92.35373,38.094775 c 0,-0.09592 -0.150378,-0.449066 -0.334171,-0.784778 -0.183793,-0.33571 -0.334171,-0.531904 -0.334171,-0.435987 0,0.09592 0.150378,0.449067 0.334171,0.784779 0.183793,0.33571 0.334171,0.531904 0.334171,0.435986 z m 36.9428,-0.802109 c 0.40764,-0.28873 0.74118,-0.563672 0.74118,-0.610984 0,-0.04731 -0.35316,0.156954 -0.78479,0.45392 -0.43161,0.296967 -0.78477,0.575411 -0.78477,0.618762 0,0.12004 0.0331,0.101618 0.82838,-0.461698 z M 64.238466,36.961208 c 0,-0.527546 -0.03269,-0.74336 -0.07265,-0.479587 -0.03996,0.263772 -0.03996,0.6954 0,0.959173 0.03996,0.263773 0.07265,0.04796 0.07265,-0.479586 z m 21.272652,-0.871976 c 0,-0.623463 -0.03166,-0.878515 -0.07034,-0.566785 -0.03868,0.311731 -0.03868,0.821837 0,1.133569 0.03869,0.311731 0.07034,0.05668 0.07034,-0.566784 z m 6.145031,0.435987 c 0,-0.09592 -0.150378,-0.449068 -0.334172,-0.784778 -0.183793,-0.33571 -0.33417,-0.531905 -0.33417,-0.435988 0,0.09592 0.150377,0.449068 0.33417,0.784779 0.183794,0.335711 0.334172,0.531905 0.334172,0.435987 z m 40.212701,-1.061649 0.52319,-0.449534 -0.56678,0.375078 c -0.31174,0.206294 -0.56679,0.408974 -0.56679,0.450399 0,0.130544 0.0739,0.08506 0.61038,-0.375943 z M 64.066451,34.955663 c -0.0014,-0.479586 -0.03518,-0.655082 -0.07526,-0.389991 -0.04009,0.26509 -0.03902,0.65748 0.0024,0.871976 0.0414,0.214495 0.07419,-0.0024 0.07289,-0.481985 z m 26.892117,0 c 0,-0.09592 -0.150378,-0.449067 -0.334171,-0.784778 -0.183793,-0.335711 -0.334171,-0.531905 -0.334171,-0.435988 0,0.09592 0.150378,0.449067 0.334171,0.784778 0.183793,0.335711 0.334171,0.531906 0.334171,0.435988 z m -5.620066,-1.395161 c -0.0011,-0.575503 -0.03354,-0.789913 -0.07235,-0.476463 -0.03881,0.313449 -0.03801,0.784316 0.0018,1.04637 0.03979,0.262055 0.07155,0.0056 0.07057,-0.569907 z m 49.015488,0.244261 c 0.40765,-0.288731 0.74118,-0.563672 0.74118,-0.610985 0,-0.04731 -0.35316,0.156955 -0.78478,0.453921 -0.43163,0.296967 -0.78478,0.575411 -0.78478,0.618762 0,0.12004 0.0331,0.101618 0.82838,-0.461698 z M 63.892056,32.862921 c -0.0014,-0.479586 -0.03518,-0.655082 -0.07526,-0.389991 -0.04009,0.265091 -0.03901,0.65748 0.0024,0.871976 0.04139,0.214495 0.07419,-0.0024 0.07289,-0.481985 z m 26.31682,0.435989 c -0.137214,-0.497022 -1.381162,-3.144513 -1.446691,-3.078983 -0.03615,0.03615 0.290809,0.802573 0.726586,1.703155 0.435778,0.900582 0.759824,1.519704 0.720105,1.375828 z m 46.420974,-1.081251 c 0.1151,-0.1151 0.20927,-0.279177 0.20927,-0.364613 0,-0.229298 -1.43717,-3.453319 -1.50787,-3.382621 -0.0332,0.03319 0.25757,0.799654 0.64617,1.703241 0.55226,1.284173 0.66602,1.709521 0.52105,1.948076 -0.21598,0.355349 -0.16516,0.39245 0.13138,0.09592 z m -10.86482,-0.643525 c 3.14187,-1.450069 2.35381,-6.271689 -1.07898,-6.601537 -2.76131,-0.265326 -4.61468,1.895477 -3.88361,4.527803 0.5406,1.94655 3.00598,2.976764 4.96259,2.073734 z m -3.29919,-0.533511 c -1.27606,-0.788646 -1.72359,-2.822449 -0.93127,-4.232189 0.4339,-0.772007 1.22056,-1.247806 2.3495,-1.421051 2.01989,-0.309968 3.8896,1.77153 3.35954,3.740055 -0.53889,2.001265 -3.02468,2.99666 -4.77777,1.913185 z m -37.301733,-0.09605 c -9.85e-4,-0.575505 -0.03354,-0.789913 -0.07234,-0.476464 -0.03881,0.31345 -0.03801,0.784316 0.0018,1.046371 0.03979,0.262055 0.07155,0.0056 0.07057,-0.569907 z m -21.446446,0 c -0.0014,-0.479587 -0.03518,-0.655082 -0.07526,-0.389991 -0.04009,0.265091 -0.03901,0.65748 0.0024,0.871976 0.0414,0.214495 0.07419,-0.0024 0.07289,-0.481985 z M 88.69143,29.898201 c 0,-0.09592 -0.150377,-0.449067 -0.33417,-0.784778 -0.183793,-0.33571 -0.334171,-0.531904 -0.334171,-0.435988 0,0.09592 0.150378,0.449068 0.334171,0.78478 0.183793,0.33571 0.33417,0.531904 0.33417,0.435986 z M 63.543266,28.851832 c -0.0014,-0.479588 -0.03518,-0.655083 -0.07526,-0.389992 -0.04009,0.265091 -0.03901,0.65748 0.0024,0.871976 0.0414,0.214496 0.07419,-0.0024 0.07289,-0.481984 z M 84.989712,28.50304 c -9.85e-4,-0.575504 -0.03354,-0.789912 -0.07236,-0.476463 -0.03881,0.313449 -0.03801,0.784316 0.0018,1.046371 0.03979,0.262055 0.07155,0.0056 0.07057,-0.569908 z m 3.004139,-0.174395 c 0,-0.09592 -0.150378,-0.449067 -0.334172,-0.784778 -0.183793,-0.33571 -0.33417,-0.531905 -0.33417,-0.435988 0,0.09592 0.150377,0.449068 0.33417,0.784778 0.183794,0.335712 0.334172,0.531906 0.334172,0.435988 z m 47.261089,-0.174392 c 0,-0.09592 -0.15037,-0.449068 -0.33417,-0.784778 -0.18379,-0.335712 -0.33417,-0.531906 -0.33417,-0.435989 0,0.09592 0.15038,0.449068 0.33417,0.784778 0.1838,0.33571 0.33417,0.531906 0.33417,0.435989 z M 98.733773,27.563046 c 3.141867,-1.45007 2.353817,-6.271689 -1.078973,-6.601536 -2.761305,-0.265327 -4.614682,1.895476 -3.883615,4.527802 0.54061,1.946549 3.005983,2.976764 4.962588,2.073734 z m -3.299188,-0.533511 c -1.276057,-0.788646 -1.723581,-2.82245 -0.931264,-4.232189 0.433893,-0.772007 1.220554,-1.247806 2.349503,-1.421052 2.019886,-0.309968 3.889606,1.77153 3.359526,3.740056 -0.538876,2.001265 -3.024665,2.996659 -4.777765,1.913185 z M 63.371251,26.846288 c 0,-0.431628 -0.03401,-0.608202 -0.07558,-0.392388 -0.04157,0.215814 -0.04157,0.568964 0,0.784778 0.04157,0.215814 0.07558,0.03924 0.07558,-0.39239 z M 84.815316,26.06151 c -0.0011,-0.575503 -0.03354,-0.789912 -0.07234,-0.476463 -0.03881,0.313449 -0.03801,0.784316 0.0018,1.046371 0.03979,0.262055 0.07155,0.0056 0.07057,-0.569908 z m 2.434527,0.610384 c -0.04578,-0.143877 -0.759138,-1.788808 -1.585229,-3.655404 -0.826092,-1.866597 -1.461586,-3.499088 -1.412212,-3.627758 0.04938,-0.128669 0.01219,-0.185999 -0.08262,-0.127398 -0.09482,0.0586 -0.172399,0.178548 -0.172399,0.266547 0,0.196595 2.726066,6.364482 3.080412,6.969618 0.140415,0.239793 0.217838,0.318271 0.172051,0.174395 z m 47.307517,-0.08719 c 0,-0.09592 -0.15037,-0.449068 -0.33417,-0.784779 -0.18379,-0.335711 -0.33417,-0.531905 -0.33417,-0.435989 0,0.09592 0.15038,0.449068 0.33417,0.784779 0.1838,0.33571 0.33417,0.531905 0.33417,0.435989 z m -70.615425,-0.79309 c 0.335711,-0.06913 2.807762,-0.350594 5.493447,-0.625477 2.685687,-0.274879 4.686871,-0.520799 4.447079,-0.546488 -0.56532,-0.06056 -10.464488,0.948523 -10.596088,1.080122 -0.186118,0.18612 0.04233,0.218124 0.655562,0.09184 z m 69.892645,-0.863667 c -0.30408,-0.833814 -2.46629,-5.574196 -2.51866,-5.52183 -0.0711,0.0711 2.33916,5.542278 2.5061,5.688721 0.0594,0.05209 0.065,-0.02302 0.0125,-0.166891 z m -49.165748,-0.828377 0.02613,-0.566785 -0.915574,0.03144 -0.915575,0.03144 0.817673,0.06488 c 0.733818,0.05823 0.825033,0.113131 0.889445,0.53535 0.0651,0.426746 0.0742,0.417795 0.0979,-0.09632 z m -7.908851,0.305192 c 0.828504,-0.113636 0.837199,-0.120105 0.174395,-0.12975 -0.38367,-0.0056 -1.129209,0.04952 -1.656755,0.122443 -0.944173,0.130519 -0.946901,0.132548 -0.174394,0.129749 0.431628,-0.0016 1.177166,-0.05666 1.656754,-0.122442 z m 2.133943,-0.299538 c -0.265092,-0.04009 -0.657481,-0.03901 -0.871976,0.0024 -0.214496,0.0414 0.0025,0.07419 0.481984,0.07289 0.479587,-0.0014 0.655083,-0.03518 0.389992,-0.07526 z m 1.743951,-0.174395 c -0.265091,-0.04009 -0.65748,-0.03901 -0.871976,0.0024 -0.214496,0.04139 0.0025,0.07419 0.481985,0.07289 0.479587,-0.0014 0.655082,-0.03518 0.389991,-0.07526 z m 1.657118,-0.172596 c -0.216931,-0.04171 -0.530842,-0.04013 -0.69758,0.0035 -0.166738,0.04365 0.01076,0.07778 0.394423,0.07584 0.383669,-0.002 0.52009,-0.03766 0.303157,-0.07936 z m 48.948857,-4.672524 c 0,-0.09592 -0.15037,-0.449067 -0.33417,-0.784778 -0.18379,-0.33571 -0.33417,-0.531905 -0.33417,-0.435987 0,0.09592 0.15038,0.449067 0.33417,0.784778 0.1838,0.335711 0.33417,0.531905 0.33417,0.435987 z M 85.490006,18.552903 c 0.325077,-0.26044 0.322938,-0.26366 -0.05386,-0.08106 -0.215814,0.104583 -0.392389,0.226628 -0.392389,0.271213 0,0.13345 0.09044,0.09492 0.446255,-0.190152 z m 1.395161,-0.871976 c 0.325077,-0.26044 0.322939,-0.26366 -0.05386,-0.08106 -0.215814,0.104583 -0.392389,0.226628 -0.392389,0.271211 0,0.133451 0.09044,0.09492 0.446254,-0.190151 z m 43.661103,-0.164779 c 0,-0.09592 -0.15037,-0.449067 -0.33417,-0.784778 -0.18379,-0.335711 -0.33417,-0.531905 -0.33417,-0.435987 0,0.09592 0.15038,0.449067 0.33417,0.784778 0.1838,0.33571 0.33417,0.531905 0.33417,0.435987 z M 88.803515,16.460156 c 0.325076,-0.26044 0.322938,-0.26366 -0.05386,-0.08106 -0.215815,0.104583 -0.392389,0.226628 -0.392389,0.271212 0,0.13345 0.09044,0.09492 0.446254,-0.190152 z m 25.974615,-0.407189 c 3.14187,-1.45007 2.35381,-6.2716899 -1.07898,-6.6015382 -2.7613,-0.2653258 -4.61467,1.8954772 -3.8836,4.5278022 0.5406,1.946551 3.00597,2.976766 4.96258,2.073736 z m -3.2992,-0.533512 c -1.27605,-0.788646 -1.72357,-2.82245 -0.93125,-4.232188 0.43389,-0.772008 1.22055,-1.247806 2.3495,-1.4210523 2.01987,-0.3099685 3.8896,1.7715303 3.35954,3.7400563 -0.53889,2.001263 -3.02468,2.996659 -4.77779,1.913184 z m -21.280254,0.06873 c 0.325076,-0.26044 0.322938,-0.263659 -0.05386,-0.08106 -0.215814,0.104583 -0.392389,0.226628 -0.392389,0.271212 0,0.13345 0.09044,0.09492 0.446255,-0.190152 z m 1.395161,-0.871975 c 0.325076,-0.26044 0.322938,-0.26366 -0.05386,-0.08106 -0.215814,0.104583 -0.392389,0.226628 -0.392389,0.271212 0,0.133451 0.09044,0.09492 0.446254,-0.190151 z m 1.602889,-0.96962 c 0.594428,-0.380682 0.786795,-0.636325 0.261593,-0.347642 -0.400138,0.219942 -1.026984,0.70468 -0.915575,0.708012 0.04796,0.0015 0.342251,-0.160732 0.653982,-0.36037 z m 1.395162,-0.871976 c 0.594427,-0.380682 0.786794,-0.636324 0.261592,-0.347641 -0.400138,0.219941 -1.026983,0.704678 -0.915574,0.708011 0.04796,0.0015 0.34225,-0.160732 0.653982,-0.36037 z m 1.395163,-0.871976 c 0.594424,-0.380682 0.78679,-0.636325 0.26159,-0.34764 -0.400136,0.21994 -1.026983,0.704677 -0.915574,0.70801 0.04796,0.0015 0.34225,-0.160732 0.653984,-0.36037 z m 1.710619,-1.123125 c 0.325073,-0.260441 0.322938,-0.26366 -0.05387,-0.08106 -0.215813,0.104584 -0.392389,0.22663 -0.392389,0.271213 0,0.133451 0.09044,0.09492 0.446258,-0.190151 z m 1.602885,-0.9696163 c 0.594427,-0.3806822 0.786795,-0.6363251 0.261598,-0.3476416 -0.400141,0.2199412 -1.026992,0.7046779 -0.915572,0.7080109 0.04798,0.0015 0.342248,-0.160732 0.653974,-0.3603693 z m 1.395165,-0.8719758 c 0.59442,-0.3806821 0.78679,-0.6363251 0.26159,-0.3476406 -0.40014,0.2199403 -1.026988,0.7046772 -0.91557,0.7080102 0.048,0.00148 0.34225,-0.160732 0.65398,-0.3603696 z m 1.39516,-0.8719758 c 0.59442,-0.3806821 0.7868,-0.636325 0.2616,-0.3476415 -0.40015,0.2199412 -1.02699,0.7046782 -0.91559,0.7080112 0.048,0.00148 0.34226,-0.160732 0.65399,-0.3603697 z m 1.39516,-0.8719757 c 0.59443,-0.3806821 0.78679,-0.6363251 0.2616,-0.3476415 -0.40014,0.2199412 -1.02699,0.7046781 -0.91559,0.7080112 0.048,0.00148 0.34226,-0.1607321 0.65399,-0.3603697 z m 1.52907,-0.9635399 c 0.8899,-0.5899868 1.20349,-0.9013128 0.50856,-0.5048848 -0.61175,0.3489726 -1.42786,0.9556491 -1.29333,0.9614246 0.0496,0.00217 0.40282,-0.2033097 0.78477,-0.4565398 z m 1.78444,-1.1292019 c 0.59442,-0.3806821 0.7868,-0.6363251 0.26159,-0.3476415 -0.40014,0.2199412 -1.02698,0.7046781 -0.91558,0.7080112 0.048,0.00148 0.34226,-0.160732 0.65399,-0.3603697 z m 1.39516,-0.8719757 c 0.59442,-0.3806822 0.78679,-0.6363251 0.2616,-0.3476416 -0.40015,0.2199413 -1.02699,0.7046782 -0.91559,0.7080112 0.048,0.00148 0.34226,-0.160732 0.65399,-0.3603696 z m 11.20488,0.099498 c 0,-0.052227 -1.44913,-0.8075763 -3.22028,-1.6785521 l -3.2203,-1.5835929 -1.31398,0.8189656 c -0.72269,0.4504323 -1.31397,0.8581274 -1.31397,0.9059907 0,0.047862 0.59046,-0.2389216 1.31214,-0.6373014 l 1.31216,-0.7243256 1.26017,0.5270131 c 0.6931,0.2898569 2.08419,0.9617723 3.09133,1.493145 1.79087,0.9448846 2.09273,1.0716253 2.09273,0.8786576 z M 109.58987,3.457276 c 0.59443,-0.3806821 0.78679,-0.636325 0.2616,-0.3476415 -0.40014,0.2199412 -1.02699,0.7046791 -0.91558,0.7080112 0.048,0.00148 0.34225,-0.160732 0.65398,-0.3603697 z"
       id="path880" />
  </g>
</svg>
