<?xml version="1.0" encoding="UTF-8" standalone="no"?>
<!-- Created with Inkscape (http://www.inkscape.org/) -->

<svg
   width="210mm"
   height="297mm"
   viewBox="0 0 210 297"
   version="1.1"
   id="svg1116"
   inkscape:version="1.1.2 (0a00cf5339, 2022-02-04)"
   sodipodi:docname="pad_font.svg"
   xmlns:inkscape="http://www.inkscape.org/namespaces/inkscape"
   xmlns:sodipodi="http://sodipodi.sourceforge.net/DTD/sodipodi-0.dtd"
   xmlns="http://www.w3.org/2000/svg"
   xmlns:svg="http://www.w3.org/2000/svg">
  <sodipodi:namedview
     id="namedview1118"
     pagecolor="#ffffff"
     bordercolor="#666666"
     borderopacity="1.0"
     inkscape:pageshadow="2"
     inkscape:pageopacity="0.0"
     inkscape:pagecheckerboard="0"
     inkscape:document-units="mm"
     showgrid="false"
     inkscape:zoom="1.9552971"
     inkscape:cx="217.61399"
     inkscape:cy="203.0382"
     inkscape:window-width="1920"
     inkscape:window-height="1011"
     inkscape:window-x="0"
     inkscape:window-y="0"
     inkscape:window-maximized="1"
     inkscape:current-layer="layer1" />
  <defs
     id="defs1113" />
  <g
     inkscape:label="Calque 1"
     inkscape:groupmode="layer"
     id="layer1"
     style="display:inline">
    <path
       style="fill:#000000;stroke-width:0.177008"
       d="m 29.52866,72.644519 c 0.55187,-0.13389 2.38392,-0.64003 4.07123,-1.12489 4.39741,-1.26355 11.75075,-3.07266 15.4585,-3.80323 6.13426,-1.2087 12.57775,-2.37702 13.71826,-2.48734 0.63283,-0.0614 2.5445,-0.3055 4.24823,-0.54279 1.70372,-0.23728 6.92109,-0.71964 11.59415,-1.07184 8.376371,-0.63137 8.607816,-0.63926 16.373418,-0.55736 4.913523,0.0519 10.307602,0.22625 14.337802,0.46368 10.33661,0.60896 10.49663,0.61452 11.18135,0.38855 1.06415,-0.35122 1.43701,-0.90423 1.40966,-2.0908 -0.013,-0.56377 -0.0699,-1.27154 -0.12639,-1.57279 -0.1616,-0.86135 0.24204,-2.03095 0.92232,-2.67252 1.59659,-1.50579 3.90065,-0.69079 4.71474,1.66767 0.58355,1.69064 1.80423,2.21444 3.43493,1.47407 1.22601,-0.55669 3.26626,-2.02541 4.45454,-3.20677 1.17567,-1.16883 4.76356,-6.40863 5.81321,-8.4897 1.31302,-2.60321 1.76654,-5.7025 1.48951,-10.1792 -0.30713,-4.96322 -0.40985,-5.49773 -1.86708,-9.71586 -1.73221,-5.01411 -3.47824,-9.00527 -5.23852,-11.97444 -0.31408,-0.52977 -1.20496,-2.11515 -1.97975,-3.523 -0.77478,-1.40794 -1.65341,-2.92134 -1.9525,-3.36324 -0.73083,-1.07966 -3.47577,-4.07846 -3.73144,-4.07648 -0.11223,6.7e-4 -0.66491,0.39605 -1.22818,0.87821 -1.46529,1.25429 -2.6966,1.3858 -3.85425,0.4117 -1.08522,-0.91313 -1.33929,-2.15745 -0.69743,-3.41563 0.48145,-0.94369 0.45356,-1.48714 -0.0948,-1.84639 -0.82728,-0.54205 -4.57701,-1.67029998 -6.47735,-1.94892998 -2.36511,-0.34684 -5.85344,-0.3544 -7.78679,-0.0172 -2.71611,0.4741 -9.003138,2.57613998 -11.661587,3.89892998 -0.632811,0.31495 -1.469183,0.62775 -1.858602,0.69523 -0.389424,0.0674 -1.424932,0.3514 -2.301131,0.63091 -1.551473,0.49496 -9.45852,2.17963 -12.83322,2.73425 -1.79991,0.29583 -2.77304,0.53875 -3.16417,0.78983 -0.20605,0.13227 -0.19717,0.72444 0.0577,3.84932 0.16574,2.03116 0.36537,4.26401 0.44362,4.96198 0.16365,1.45916 0.0315,2.41995 -0.43059,3.1248 -0.63408,0.96775 -2.36842,1.47936 -3.3349,0.98376 -0.21266,-0.10904 -0.64514,-0.44285 -0.96105,-0.74188 l -0.57437,-0.54364 -4.20487,0.40602 c -2.31271,0.2233 -4.60316,0.48522 -5.08996,0.58206 -2.29123,0.45593 -6.91302,0.97777 -7.12779,0.80485 -0.1324,-0.1067 -0.60419,-0.13362 -1.15055,-0.0659 -7.09982,0.87985 -8.17608,0.78734 -9.39234,-0.80727 -0.52518,-0.68856 -0.74771,-1.58451 -0.91487,-3.68418 -0.23068,-2.89628 -0.77508,-8.00248 -0.86251,-8.08993 -0.049,-0.0489 -0.90997,-0.11263 -1.91425,-0.14239 -2.08644,-0.0619 -5.20445,-0.50006 -6.24991,-0.87834 -0.39016,-0.14119 -1.74486,-0.38129 -3.01051,-0.5336 -5.09591,-0.61325 -9.89254,0.29477 -14.62165,2.76788 -3.03829,1.58888 -3.49912,2.31105 -2.45658,3.84961 0.93416,1.37856 0.59603,2.87245 -0.87439,3.86335 -0.86661,0.58398 -1.88248,0.53954 -2.86365,-0.12532 -1.4092003,-0.95486 -2.0377503,-0.66746 -3.2388403,1.48083 -0.60841,1.08819 -2.05381,4.51225 -2.05381,4.86525 0,0.21813 -1.40169,4.42867 -2.02998,6.09781 -0.99175,2.63476 -2.27126003,8.83253 -2.83878003,13.75038 -0.3086,2.67443 -0.27947,3.73517 0.19087,6.94645 0.13896,0.94859 0.25261,2.06532 0.25261,2.48171 0,1.92454 1.79377003,6.18561 3.68842003,8.76179 0.554,0.75326 1.1474,1.58867 1.31868,1.85642 0.17125,0.26771 0.40022,0.48676 0.5089,0.48676 0.10859,0 0.80374,0.57921 1.54471,1.2871 3.2745803,3.12832 7.7745503,5.54042 9.6721803,5.18443 0.90516,-0.16981 1.4201,-0.75247 1.66205,-1.88058 0.40405,-1.88404 1.60766,-3.17487 2.96033,-3.17487 0.75944,0 1.88063,0.64238 2.36206,1.35332 0.35519,0.52448 0.45088,0.91075 0.49396,1.99396 0.0742,1.87173 0.14844,2.10397 0.7961,2.49889 0.68462,0.41742 2.33482,0.44991 3.87512,0.0762 z m -3.8656,-0.68333 c -0.35467,-0.41235 -0.41256,-0.67065 -0.41281,-1.84157 -3.4e-4,-1.60388 -0.29618,-2.3177 -1.28962,-3.11153 -0.88323,-0.70569 -2.55456,-0.85734 -3.4246,-0.3107 -0.99117,0.62271 -2.01185,2.42798 -2.01185,3.55819 0,0.18424 -0.20991,0.50008 -0.46642,0.70187 -0.97787,0.7692 -2.80111,0.34861 -5.48866,-1.26605 -1.96732,-1.18194 -3.4397503,-2.29972 -4.6280903,-3.51321 -0.49158,-0.50202 -1.0961,-1.04307 -1.34342,-1.20226 -0.76617,-0.49327 -2.74052,-3.37357 -3.8385,-5.59979 -1.07856,-2.18693 -1.76020003,-4.37798 -1.7572,-5.64839 0.002,-0.95449 -0.33113003,-4.05438 -0.54431003,-5.06071 -0.27665,-1.30643 0.58355003,-7.8021 1.69957003,-12.83322 0.43198,-1.94729 3.04065,-10.15288 4.02363,-12.6562 0.68468,-1.74369 1.61249,-3.50996 2.23615,-4.25704 l 0.50162,-0.60082 1.2807903,0.65882 c 0.70443,0.36238 1.49166,0.65709 1.74938,0.65493 1.38518,-0.0117 2.91113,-1.4372 3.1348,-2.92888 0.11895,-0.79319 0.006,-1.12892 -0.90927,-2.69558 l -0.34086,-0.58361 0.55814,-0.50489 c 2.30518,-2.08535 8.05348,-4.15419 12.27508,-4.41785 2.13911,-0.13362 6.68529,0.2902 7.43879,0.69348 0.54971,0.29416 4.85999,0.88097 6.47793,0.88191 l 1.43755,8.8e-4 0.10329,0.84079 c 0.0567,0.46247 0.22782,2.19493 0.38002,3.84997 0.49266,5.35596 0.58129,5.91368 1.07328,6.75318 0.65996,1.12615 1.58202,1.67385 3.01092,1.78858 1.19897,0.0963 5.42184,-0.21876 6.75585,-0.50391 0.49416,-0.10553 0.88877,-0.0944 1.1702,0.0339 0.45574,0.20764 3.95828,-0.13984 6.40365,-0.63526 1.01196,-0.205 5.5591,-0.71772 9.23935,-1.04176 0.61039,-0.0537 0.81557,0.0124 1.15054,0.37109 0.62742,0.67183 1.37538,0.98453 2.35483,0.98453 2.14299,0 3.42632,-1.63418 3.22168,-4.10261 -0.38303,-4.62124 -0.65897,-7.81852 -0.72436,-8.39318 -0.0953,-0.83657 0.0224,-0.89102 2.98447,-1.37938 3.72609,-0.6144 11.453684,-2.28011 13.104245,-2.82473 0.876198,-0.28908 1.785688,-0.52449 2.021088,-0.52315 0.235397,9.3e-4 1.270905,-0.38783 2.30113,-0.86488 3.101641,-1.43624 7.853827,-3.05149 11.077647,-3.76525998 1.70657,-0.37781 6.49869,-0.27301 8.72275,0.19076 2.03654,0.42469998 5.10231,1.46363998 5.50387,1.86518998 0.23247,0.23248 0.20806,0.36356 -0.21125,1.13397 -0.26076,0.47911 -0.47412,1.12176 -0.47412,1.42811 0,0.64704 0.41167,1.71333 0.84755,2.19533 0.50104,0.55405 1.56917,1.00545 2.37917,1.00545 0.73889,0 0.84261,0.0764 3.32599,2.45303 2.32172,2.22184 2.62903,2.58847 3.26059,3.89023 0.38351,0.79045 0.72372,1.41076 0.75604,1.37846 0.0323,-0.0325 -0.25142,-0.72752 -0.63051,-1.54486 -0.64548,-1.39169 -0.84857,-1.63637 -3.19778,-3.85281 l -2.50852,-2.36675 0.49464,-0.2546 c 0.27205,-0.13999 0.77678,-0.52867 1.12163,-0.86368 0.34485,-0.33502 0.70329,-0.60317 0.79655,-0.59589 0.24341,0.0189 2.80546,2.92189 3.50337,3.96949 0.32428,0.48677 1.17241,1.96039 1.88472,3.27468 0.71231,1.31433 1.47595,2.67661 1.69697,3.02733 0.61859,0.98156 2.83558,5.46542 3.5119,7.10277 0.74024,1.79215 2.63748,7.12477 3.00845,8.45597 0.72001,2.58365 1.09331,8.41783 0.70933,11.08572 -0.53804,3.73828 -1.00212,4.81986 -4.05371,9.4474 -2.16386,3.2814 -3.55878,4.80835 -5.62448,6.15684 -2.98667,1.94971 -3.5624,1.90236 -4.73253,-0.38942 -0.97457,-1.90877 -1.43214,-2.27742 -2.94655,-2.37383 -1.47228,-0.094 -2.4946,0.4589 -3.07792,1.6639 -0.35969,0.74304 -0.38355,0.97266 -0.2728,2.62603 0.10688,1.59551 0.0832,1.8589 -0.19812,2.20617 -0.50378,0.62189 -1.4567,0.74365 -4.30221,0.54979 -14.93579,-1.01745 -27.479449,-1.16518 -37.18816,-0.43796 -8.64976,0.64793 -10.09565,0.77931 -12.64012,1.14854 -1.26565,0.18365 -3.13755,0.4225 -4.15974,0.53075 -1.77919,0.18844 -3.20673,0.44257 -12.56772,2.23756 -4.51503,0.86578 -12.16596,2.72073 -17.13853,4.15521 -4.17411,1.20415 -5.07907,1.3981 -6.21251,1.33137 -0.78458,-0.046 -1.03442,-0.14379 -1.37182,-0.53606 z m -11.29864,-6.75655 c 0.89462,-0.4653 1.32679,-0.99204 1.60823,-1.96009 0.96263,-3.31137 -3.23452,-5.46229 -5.27667,-2.70414 -1.1364203,1.53486 -0.41865,4.09191 1.33461,4.75432 0.71276,0.26928 1.71736,0.2305 2.33383,-0.0901 z m -2.21402,-0.36237 c -1.81178,-0.72496 -2.1258,-3.533 -0.52272,-4.67451 1.08518,-0.77271 2.33276,-0.60852 3.34979,0.44079 1.31539,1.35711 0.66168,3.79031 -1.1652,4.33731 -0.73963,0.22148 -0.86971,0.21332 -1.66187,-0.10361 z m 53.63541,-2.31917 c 0.62181,-0.23363 1.29611,-0.85058 1.52288,-1.39342 0.21999,-0.52648 0.32606,-0.58993 1.08629,-0.64978 l 0.84253,-0.0663 -0.84081,-0.0319 c -0.77326,-0.0296 -0.84078,-0.0678 -0.84078,-0.4801 0,-0.24652 -0.11957,-0.73434 -0.26568,-1.08402 -0.17914,-0.42879 -0.52503,-3.68365 -1.06205,-9.99462 -0.43803,-5.14733 -0.80726,-9.57819 -0.82049,-9.84633 -0.0196,-0.39609 -0.0383,-0.41544 -0.099,-0.10319 -0.0678,0.34704 1.23198,16.92106 1.45137,18.50947 l 0.0911,0.66185 -0.72043,-0.3755 c -0.57723,-0.30089 -0.90247,-0.35392 -1.63659,-0.26701 -0.5039,0.0597 -1.11647,0.25511 -1.36125,0.43427 -1.54697,1.13228 -1.27351,3.84425 0.46066,4.56884 0.58829,0.24581 1.69326,0.30519 2.19199,0.11776 z m -1.82004,-0.46737 c -1.08941,-0.46113 -1.63653,-1.55978 -1.33924,-2.68933 0.30933,-1.17522 1.88055,-1.91816 3.02884,-1.43219 0.85582,0.3622 1.16838,0.82047 1.29511,1.89884 0.10402,0.88443 0.0711,1.02465 -0.36281,1.54011 -0.42204,0.50157 -1.14211,0.85963 -1.82536,0.90768 -0.12481,0.008 -0.48326,-0.0924 -0.79654,-0.22511 z m 6.90668,-1.83306 c -0.2691,-0.0408 -0.66738,-0.0394 -0.88507,0.003 -0.21771,0.0419 0.003,0.0753 0.4892,0.0739 0.48681,-9.2e-4 0.66492,-0.036 0.39587,-0.0762 z m 2.12651,-0.17675 c -0.26772,-0.0404 -0.70581,-0.0404 -0.97357,0 -0.26772,0.0404 -0.0489,0.0735 0.48679,0.0735 0.53548,0 0.75451,-0.033 0.48678,-0.0735 z m 2.12414,-0.17701 c -0.26774,-0.0405 -0.70585,-0.0405 -0.97357,0 -0.26773,0.0403 -0.049,0.0735 0.48676,0.0735 0.53548,0 0.75455,-0.0332 0.48681,-0.0735 z m 2.12412,-0.17704 c -0.26776,-0.0405 -0.70586,-0.0405 -0.9736,0 -0.26769,0.0404 -0.0491,0.0735 0.48682,0.0735 0.53544,0 0.75451,-0.0331 0.48678,-0.0735 z m 2.12166,-0.17724 c -0.26906,-0.0405 -0.66734,-0.0395 -0.88505,0.003 -0.21771,0.042 0.002,0.0754 0.48922,0.0739 0.48677,-9.1e-4 0.6649,-0.0358 0.39583,-0.0765 z m 2.12413,-0.17701 c -0.26907,-0.0408 -0.66734,-0.0394 -0.88506,0.003 -0.21771,0.0421 0.002,0.0752 0.48922,0.074 0.48677,-9.2e-4 0.6649,-0.036 0.39584,-0.0763 z m 2.12411,-0.17701 c -0.26906,-0.0408 -0.66734,-0.0394 -0.88504,0.003 -0.21772,0.0419 0.002,0.0753 0.48921,0.0739 0.48677,-9.1e-4 0.6649,-0.0359 0.39583,-0.0763 z m 2.303565,-0.17676 c -0.267726,-0.0402 -0.705825,-0.0402 -0.973555,0 -0.26772,0.0404 -0.0487,0.0735 0.48678,0.0735 0.535455,0 0.754504,-0.0331 0.486775,-0.0735 z m 2.446086,-0.89105 c -0.04868,-0.46243 -0.131591,-1.39835 -0.184255,-2.07986 l -0.09577,-1.23905 0.294812,0.58773 c 0.16214,0.32325 0.574643,0.8012 0.916668,1.06206 0.528787,0.40334 0.796157,0.47431 1.786212,0.47431 0.936459,0 1.277725,-0.081 1.743634,-0.41314 0.860385,-0.61369 1.337085,-1.667 1.235048,-2.7289 -0.098,-1.02014 -0.524456,-1.66105 -1.476961,-2.21982 -1.412836,-0.82881 -3.543597,-0.21633 -4.169921,1.19866 -0.130132,0.294 -0.281046,0.53452 -0.335369,0.53452 -0.05431,0 -0.309701,-2.88747 -0.567504,-6.41662 -0.257799,-3.52911 -0.43041,-5.42093 -0.383575,-4.20398 0.04683,1.21696 0.280593,5.00052 0.519471,8.40798 0.238877,3.40744 0.455467,6.51394 0.48131,6.90339 l 0.04699,0.70803 -0.796545,0.10616 -0.796544,0.10616 0.935398,0.0266 0.935397,0.0267 z m 2.035574,-1.63382 c -1.303496,-0.37385 -2.13612,-1.77884 -1.78328,-3.00911 0.232785,-0.81167 0.996052,-1.56496 1.806942,-1.78332 2.470023,-0.6651 4.309914,2.38251 2.489394,4.12343 -0.822184,0.78622 -1.487079,0.96326 -2.513056,0.669 z m 41.850695,0.99506 c 2.30309,-1.07302 2.44998,-4.48637 0.24157,-5.61303 -1.50059,-0.76554 -3.41486,-0.15447 -4.11088,1.31229 -0.37282,0.78569 -0.37157,2.10414 0.003,2.89295 0.59023,1.24383 2.62686,1.98536 3.86655,1.40779 z m -2.52401,-0.64357 c -1.69127,-1.0312 -1.67863,-3.23205 0.0258,-4.5038 0.61468,-0.4586 1.99074,-0.47566 2.66631,-0.0329 1.06972,0.70089 1.50581,2.46743 0.89885,3.64118 -0.63169,1.22156 -2.35253,1.65072 -3.59103,0.89558 z m -94.83144,0.51683 c 7.50672,-1.26251 13.66106,-6.87213 15.6787,-14.29092 0.47796,-1.75755 0.65788,-5.83765 0.34343,-7.78824 -0.98373,-6.10249 -4.93215,-11.39701 -10.57732,-14.18331 -2.99997,-1.48073 -5.72711,-2.03863 -9.33905,-1.91056 -5.12081,0.18154 -9.31938,1.9627 -12.96474,5.50004 -2.51936,2.44471 -4.21366,5.33303 -5.13474,8.75347 -0.41829,1.55322 -0.46261,2.02361 -0.46201,4.90419 5.1e-4,2.68162 0.059,3.39724 0.36916,4.51922 1.00638,3.64035 2.4624,6.28575 4.78693,8.6971 2.96237,3.07299 6.59329,5.00843 10.72921,5.71914 1.66962,0.28688 5.09212,0.3285 6.57043,0.08 z m -5.33961,-0.35302 c -5.06474,-0.56472 -9.90893,-3.24349 -12.85927,-7.11095 -4.40271,-5.77142 -5.19088,-13.20473 -2.08809,-19.69382 2.90699,-6.07951 8.60957,-9.93662 15.63473,-10.57497 1.97099,-0.17912 2.49935,-0.16501 4.24465,0.11328 7.69095,1.22627 13.66878,6.57081 15.66109,14.00188 0.42258,1.57612 0.47413,2.08052 0.47041,4.60227 -0.004,2.47629 -0.0618,3.04799 -0.46173,4.55018 -0.91912,3.45143 -2.6341,6.3532 -5.23087,8.85061 -2.43108,2.33805 -4.90697,3.7888 -7.95079,4.65866 -2.71496,0.77591 -4.53919,0.92412 -7.42013,0.60286 z m 10.10626,-5.04521 c 0.36956,-0.36956 0.3517,-0.83944 -0.0457,-1.199 -0.40654,-0.36787 -0.80999,-0.37298 -1.16823,-0.0146 -0.53681,0.53682 -0.14828,1.4919 0.6069,1.4919 0.18081,0 0.45392,-0.12517 0.60688,-0.27816 z m -0.96095,-0.60689 c 0,-0.23601 0.11804,-0.35402 0.35402,-0.35402 0.23603,0 0.354,0.11801 0.354,0.35402 0,0.23604 -0.11797,0.35405 -0.354,0.35405 -0.23598,0 -0.35402,-0.11801 -0.35402,-0.35405 z M 24.4408,26.201389 c 0.41548,-0.45915 0.29095,-1.09698 -0.27619,-1.41422 -0.41791,-0.23384 -0.5145,-0.2294 -0.92929,0.0426 -0.54619,0.35785 -0.60857,0.99352 -0.13921,1.41828 0.42997,0.38912 0.96727,0.37054 1.34469,-0.0463 z m -1.04233,-0.29887 c -0.33361,-0.33359 -0.0832,-0.7778 0.43872,-0.7778 0.43001,0 0.57171,0.46232 0.24261,0.79141 -0.33408,0.3341 -0.3336,0.3341 -0.68133,-0.0137 z m 13.68246,-0.88343 c 0.55035,-0.38549 0.45497,-1.12154 -0.19199,-1.48186 -0.43715,-0.24349 -0.53643,-0.24349 -0.97354,0 -0.647,0.36032 -0.74235,1.09637 -0.19201,1.48186 0.22193,0.15548 0.52739,0.28266 0.67877,0.28266 0.15139,0 0.45682,-0.12718 0.67877,-0.28266 z m -1.25747,-0.46968 c -0.13263,-0.38021 0.0696,-0.66377 0.47375,-0.66377 0.47794,0 0.81711,0.31436 0.69173,0.6411 -0.11685,0.30455 -1.06078,0.3229 -1.16548,0.0227 z m 39.68249,32.59792 c 0.44243,-0.17686 6.44558,-4.64112 7.33327,-5.45337 1.76141,-1.61178 1.57631,-4.58636 -0.36931,-5.93506 -0.85837,-0.595 -2.41981,-0.81104 -3.43385,-0.47508 -0.77848,0.25787 -7.54629,5.60079 -8.05758,6.36109 -0.78625,1.16918 -0.7232,2.78441 0.16074,4.11865 0.79536,1.20053 3.04329,1.91286 4.36673,1.38377 z m -2.75679,-0.66441 c -0.1131,-0.064 -0.54148,-0.49822 -0.95204,-0.96547 -0.92802,-1.05616 -1.09421,-1.97384 -0.5715,-3.15552 0.29057,-0.65692 0.88153,-1.20745 3.6583,-3.4081 1.82151,-1.44354 3.56613,-2.75151 3.87697,-2.90657 0.76785,-0.3831 2.60776,-0.31119 3.33362,0.13022 0.6029,0.36666 1.1833,1.21711 1.42538,2.08856 0.18809,0.6771 -0.0802,1.84551 -0.58731,2.55766 -0.48461,0.68061 -7.0649,5.57302 -7.78489,5.78809 -0.5881,0.17563 -1.99237,0.10006 -2.39853,-0.12887 z m 47.87034,-2.42713 c 0.49117,-0.34403 0.50911,-1.02482 0.0394,-1.49452 -0.42529,-0.4253 -0.84721,-0.44934 -1.37669,-0.0786 -0.49117,0.34402 -0.50912,1.02482 -0.0394,1.49456 0.42528,0.42526 0.8472,0.44934 1.37669,0.0786 z m -1.11117,-0.78648 c 0,-0.32442 0.10651,-0.45766 0.39905,-0.4992 0.23937,-0.034 0.44175,0.0544 0.50572,0.22125 0.17625,0.45931 -0.0708,0.83892 -0.50572,0.77711 -0.29254,-0.0415 -0.39905,-0.17475 -0.39905,-0.49916 z M 6.2611897,53.628329 c 0.31364,-0.19122 0.6713,-0.50957 0.79487,-0.70735 0.12354,-0.19786 0.3126,-0.35971 0.42011,-0.35971 0.1074,0 0.33969,-0.15931 0.5159,-0.35405 0.28811,-0.31833 0.29086,-0.354 0.0274,-0.354 -0.23392,0 -0.29293,-0.18011 -0.29293,-0.89383 0,-1.08383 -0.32788,-1.76536 -1.1515,-2.39357 -2.63105,-2.0068 -6.06660003,1.28381 -4.32697,4.14445 0.70895,1.16576 2.81622,1.6478 4.01308,0.91806 z m -2.60234,-0.31505 c -1.73288,-0.87064 -1.90429,-3.46227 -0.29448,-4.45156 0.9416,-0.57867 1.69167,-0.62415 2.57343,-0.1562 1.87372,0.99447 1.88393,3.25126 0.0203,4.51953 -0.70203,0.47779 -1.46572,0.5071 -2.29938,0.0883 z M 110.70208,52.003129 c 0.41376,-0.28784 0.75229,-0.56423 0.75229,-0.61418 0,-0.05 -0.23134,0.0736 -0.5141,0.2752 -0.28276,0.20135 -0.70799,0.36608 -0.94496,0.36608 -0.37248,0 -4.28536,-2.99536 -10.356354,-7.92792 -0.413761,-0.33614 -0.752294,-0.57003 -0.752294,-0.51963 0,0.0505 2.170588,1.8263 4.823518,3.94653 2.65294,2.1202 5.14214,4.11196 5.53157,4.42609 l 0.70804,0.57119 z m 1.21172,-0.88526 c 0.0783,-0.12664 0.0486,-0.15635 -0.078,-0.078 -0.1124,0.0694 -0.20436,0.16146 -0.20436,0.20434 0,0.14767 0.15631,0.0778 0.28242,-0.12626 z m 1.20171,-0.76739 c 0.47553,-0.32897 0.95345,-0.69426 1.06206,-0.81172 0.10859,-0.11742 -0.30038,0.1193 -0.90885,0.52604 -0.60847,0.40678 -1.10631,0.77642 -1.10631,0.82147 0,0.12149 0.0166,0.11216 0.9531,-0.53579 z m 2.30113,-1.59308 c 0.47553,-0.32899 0.95345,-0.69426 1.06206,-0.81169 0.1086,-0.11745 -0.30038,0.11925 -0.90885,0.52599 -0.60847,0.40676 -1.10631,0.77642 -1.10631,0.82148 0,0.12147 0.0166,0.11217 0.9531,-0.53578 z m 1.63044,-1.17979 c 0.0783,-0.12661 0.0486,-0.15627 -0.0781,-0.0782 -0.11239,0.0694 -0.20436,0.16142 -0.20436,0.2044 0,0.14764 0.15631,0.0776 0.28242,-0.12635 z m 1.20172,-0.76731 c 0.47553,-0.32901 0.95345,-0.6943 1.06205,-0.81171 0.10861,-0.11746 -0.30037,0.11927 -0.90884,0.52604 -0.60847,0.40671 -1.10631,0.7764 -1.10631,0.82144 0,0.12148 0.0166,0.11217 0.9531,-0.53577 z m 2.30113,-1.5931 c 0.47553,-0.32898 0.95345,-0.69427 1.06206,-0.81169 0.10859,-0.11746 -0.30038,0.11926 -0.90885,0.526 -0.60847,0.40679 -1.10632,0.77644 -1.10632,0.82148 0,0.12148 0.0166,0.11214 0.95311,-0.53579 z m 18.45088,-1.05268 c 0.30384,-0.13224 0.78176,-0.5411 1.06206,-0.90857 0.44214,-0.57968 0.50964,-0.82243 0.50964,-1.83256 0,-0.93646 -0.0809,-1.27772 -0.41318,-1.74361 -1.21864,-1.70855 -4.0947,-1.67971 -5.16484,0.0519 -0.32438,0.52488 -0.37962,0.82712 -0.32057,1.75435 0.11791,1.85185 1.24195,2.94215 3.01649,2.92592 0.41689,-0.004 1.00656,-0.11513 1.3104,-0.24739 z m -2.75411,-0.60665 c -0.71017,-0.51255 -1.10671,-1.17647 -1.20068,-2.01018 -0.2804,-2.48763 2.84569,-3.73703 4.53535,-1.8126 0.94985,1.0818 0.89327,2.52459 -0.13773,3.51238 -0.88997,0.85262 -2.26123,0.98579 -3.19694,0.3104 z m -14.06632,0.47955 c 0.0783,-0.12661 0.0486,-0.1563 -0.0781,-0.078 -0.20405,0.12608 -0.27396,0.28243 -0.12631,0.28243 0.0429,0 0.1349,-0.0919 0.20437,-0.20437 z m 1.0894,-0.69827 c 0.41376,-0.29306 0.75229,-0.57213 0.75229,-0.62014 0,-0.0482 -0.35845,0.15929 -0.79654,0.46075 -0.4381,0.30139 -0.79655,0.584 -0.79655,0.62802 0,0.12184 0.0336,0.10319 0.8408,-0.46863 z m -11.90391,0.21409 c 3.18897,-1.47185 2.3891,-6.36575 -1.09515,-6.70053 -2.80271,-0.26931 -4.68388,1.92389 -3.94185,4.59567 0.54872,1.97574 3.05105,3.02141 5.037,2.10486 z m -3.34866,-0.54153 c -1.29519,-0.80047 -1.74942,-2.86478 -0.94523,-4.29561 0.4404,-0.78363 1.23886,-1.26653 2.38473,-1.44239 2.05017,-0.31461 3.94792,1.7981 3.40991,3.79612 -0.54697,2.03128 -3.07002,3.04158 -4.84941,1.94188 z m -9.573069,0.16805 c -0.176212,-0.19474 -0.360213,-0.35407 -0.408892,-0.35407 -0.04869,0 0.05566,0.15933 0.231881,0.35407 0.176208,0.1947 0.360213,0.35401 0.408886,0.35401 0.04868,0 -0.05567,-0.15931 -0.231875,-0.35401 z m -0.885051,-0.70804 c -0.176213,-0.19473 -0.360212,-0.35405 -0.408889,-0.35405 -0.04868,0 0.05566,0.15932 0.231879,0.35405 0.17621,0.19469 0.360211,0.35397 0.408891,0.35397 0.04869,0 -0.05567,-0.15928 -0.231881,-0.35397 z m 26.92241,-0.0271 c 0.0783,-0.12665 0.0486,-0.15634 -0.0781,-0.0784 -0.11239,0.0694 -0.20436,0.16145 -0.20436,0.20437 0,0.14766 0.15631,0.0778 0.28242,-0.12628 z m 0.53103,-0.35404 c 0.0783,-0.12664 0.0486,-0.15631 -0.078,-0.0781 -0.20405,0.12613 -0.27396,0.28239 -0.12631,0.28239 0.0429,0 0.1349,-0.0919 0.20436,-0.20436 z m -28.33849,-0.32667 c -0.176214,-0.19473 -0.360213,-0.35404 -0.408888,-0.35404 -0.04869,0 0.05566,0.15931 0.231877,0.35404 0.176212,0.19471 0.360213,0.354 0.40889,0.354 0.04869,0 -0.05567,-0.15929 -0.231879,-0.354 z m 29.4279,-0.37174 c 0.41376,-0.29304 0.7523,-0.57214 0.7523,-0.62013 0,-0.0483 -0.35845,0.15929 -0.79655,0.46073 -0.4381,0.3014 -0.79655,0.58401 -0.79655,0.62804 0,0.12182 0.0336,0.10319 0.8408,-0.46864 z m -30.312951,-0.33643 c -0.176209,-0.19472 -0.360212,-0.354 -0.408888,-0.354 -0.04868,0 0.05567,0.15928 0.231882,0.354 0.17621,0.19468 0.360208,0.35402 0.408888,0.35402 0.04868,0 -0.05567,-0.15934 -0.231882,-0.35402 z m 31.524671,-0.55843 c 0.0783,-0.1266 0.0486,-0.15632 -0.078,-0.0782 -0.1124,0.0696 -0.20436,0.16147 -0.20436,0.20438 0,0.14764 0.15631,0.0778 0.28242,-0.12631 z m -32.515331,-0.2495 c -0.252798,-0.28584 -0.591328,-0.71663 -0.752293,-0.95735 -0.334204,-0.49978 -0.385146,-0.39271 -0.09895,0.20805 0.106536,0.22363 0.445068,0.60065 0.752293,0.8378 l 0.558593,0.43122 z m 33.046361,-0.10445 c 0.0783,-0.12663 0.0486,-0.15632 -0.0781,-0.078 -0.20405,0.12612 -0.27395,0.28241 -0.1263,0.28241 0.043,0 0.1349,-0.0917 0.20436,-0.20435 z m -40.875773,-0.94621 c -7.36e-4,-0.68149 -0.03278,-0.9386 -0.07109,-0.57135 -0.03831,0.36727 -0.03768,0.92486 0.0011,1.23907 0.03911,0.31426 0.07045,0.014 0.06966,-0.66772 z m 41.743923,0.33851 0.53103,-0.45629 -0.57528,0.38074 c -0.31641,0.20936 -0.57529,0.41508 -0.57529,0.45714 0,0.13248 0.0749,0.0865 0.61954,-0.38159 z m -54.79997,0.26485 c 0.4424,-0.17692 6.44557,-4.64116 7.33327,-5.4534 1.7614,-1.61174 1.5763,-4.58634 -0.36932,-5.93502 -0.85836,-0.59505 -2.41981,-0.81106 -3.43386,-0.47514 -0.77844,0.25793 -7.54627,5.60081 -8.05759,6.36113 -0.78623,1.16916 -0.72319,2.78442 0.16077,4.11864 0.79534,1.20052 3.04326,1.91288 4.36673,1.38379 z m -2.75681,-0.66443 c -0.11305,-0.0639 -0.54146,-0.49821 -0.95202,-0.96549 -0.92804,-1.05615 -1.09423,-1.97383 -0.57151,-3.15549 0.29057,-0.65693 0.88152,-1.20745 3.65831,-3.4081 1.82149,-1.44358 3.56613,-2.75154 3.87697,-2.9066 0.76785,-0.38307 2.60776,-0.31116 3.33361,0.13027 0.60291,0.36663 1.1833,1.21705 1.42538,2.08851 0.18809,0.6771 -0.0802,1.84555 -0.5873,2.55771 -0.48463,0.6806 -7.06491,5.57299 -7.78491,5.78805 -0.5881,0.17565 -1.99237,0.1 -2.39853,-0.12886 z m 58.45873,-0.23177 c 0.0783,-0.12659 0.0486,-0.15628 -0.0781,-0.078 -0.20404,0.12611 -0.27395,0.28242 -0.1263,0.28242 0.0429,0 0.13489,-0.0918 0.20436,-0.20436 z m 0.53103,-0.35399 c 0.0783,-0.12664 0.0486,-0.15632 -0.0781,-0.0784 -0.20404,0.1261 -0.27395,0.28241 -0.12629,0.28241 0.0429,0 0.13489,-0.0918 0.20435,-0.20435 z m -36.407283,0.11583 c 0,-0.0974 -0.152631,-0.45578 -0.339182,-0.79653 -0.186548,-0.34077 -0.339181,-0.5399 -0.339181,-0.44254 0,0.097 0.152633,0.45582 0.339181,0.79654 0.186551,0.34075 0.339182,0.53987 0.339182,0.44253 z m 37.496693,-0.81424 c 0.41376,-0.29304 0.75229,-0.57212 0.75229,-0.62016 0,-0.0481 -0.35844,0.15932 -0.79654,0.46074 -0.4381,0.30143 -0.79655,0.58403 -0.79655,0.62804 0,0.12185 0.0336,0.10319 0.8408,-0.46862 z m -66.0335,-0.33642 c 0,-0.53544 -0.0334,-0.75452 -0.0735,-0.48679 -0.0403,0.26773 -0.0403,0.70585 0,0.97358 0.0403,0.26772 0.0735,0.0489 0.0735,-0.48679 z m 21.591605,-0.88501 c 0,-0.63283 -0.03215,-0.89171 -0.07138,-0.57531 -0.03928,0.31641 -0.03928,0.83416 0,1.15059 0.03927,0.31638 0.07138,0.0573 0.07138,-0.57528 z m 45.653615,0.32667 c 0.0783,-0.12662 0.0486,-0.15631 -0.0781,-0.0783 -0.20404,0.12609 -0.27395,0.28242 -0.1263,0.28242 0.0429,0 0.1349,-0.0918 0.20436,-0.20436 z m -39.416451,0.11585 c 0,-0.0973 -0.152633,-0.45582 -0.339181,-0.79656 -0.186552,-0.34074 -0.339182,-0.53989 -0.339182,-0.44252 0,0.097 0.15263,0.4558 0.339182,0.79656 0.186548,0.34074 0.339181,0.53983 0.339181,0.44252 z m 39.947481,-0.4699 c 0.0783,-0.12659 0.0486,-0.15629 -0.078,-0.0781 -0.20405,0.12614 -0.27395,0.2824 -0.1263,0.2824 0.0429,0 0.13489,-0.0917 0.20436,-0.20435 z m 0.86815,-0.60766 0.53102,-0.45628 -0.57528,0.38068 c -0.3164,0.2094 -0.57528,0.41512 -0.57528,0.45716 0,0.1325 0.075,0.0865 0.61954,-0.38156 z m -68.81899,-0.51552 c -9e-4,-0.4868 -0.0359,-0.66492 -0.0764,-0.39587 -0.0406,0.26909 -0.0394,0.66737 0.003,0.88508 0.0419,0.2177 0.0753,-0.003 0.0739,-0.48921 z m 69.72094,-0.11586 c 0.0783,-0.12661 0.0486,-0.15631 -0.0781,-0.0781 -0.20405,0.1261 -0.27396,0.28243 -0.1263,0.28243 0.0429,0 0.13489,-0.0918 0.20436,-0.2044 z m -42.425622,0.1159 c 0,-0.0974 -0.152632,-0.45583 -0.339185,-0.79658 -0.186545,-0.34074 -0.339179,-0.53986 -0.339179,-0.4425 0,0.0969 0.152634,0.45578 0.339179,0.79653 0.186553,0.34073 0.339185,0.53989 0.339185,0.44255 z m 42.956652,-0.46992 c 0.0783,-0.12663 0.0486,-0.15632 -0.0781,-0.0783 -0.20405,0.12611 -0.27395,0.28242 -0.1263,0.28242 0.0429,0 0.13489,-0.0918 0.20436,-0.20435 z m -48.66098,-0.94624 c -10e-4,-0.58411 -0.03405,-0.80172 -0.07343,-0.48356 -0.0394,0.31813 -0.03858,0.79605 0.0015,1.06204 0.04039,0.26598 0.07263,0.005 0.07164,-0.57848 z m 49.75038,0.24793 c 0.41377,-0.29304 0.7523,-0.57213 0.7523,-0.62009 0,-0.0484 -0.35845,0.15927 -0.79654,0.46073 -0.43811,0.30138 -0.79655,0.58401 -0.79655,0.62801 0,0.12184 0.0336,0.10319 0.84079,-0.46865 z m -71.5184,-0.95594 c -8.9e-4,-0.48676 -0.0358,-0.66491 -0.0764,-0.39584 -0.0405,0.26906 -0.0393,0.66731 0.003,0.88502 0.042,0.21775 0.0752,-0.003 0.0739,-0.48918 z m 26.711416,0.44253 c -0.139271,-0.50447 -1.401872,-3.19165 -1.468383,-3.12516 -0.03668,0.0366 0.295171,0.81461 0.737481,1.7287 0.442313,0.91409 0.771216,1.54248 0.730902,1.39646 z m 46.018714,-0.38141 c 0.0783,-0.12664 0.0486,-0.1563 -0.078,-0.0782 -0.20405,0.12613 -0.27395,0.28245 -0.1263,0.28245 0.0429,0 0.13489,-0.0919 0.20436,-0.20438 z m 0.53103,-0.35402 c 0.0783,-0.12661 0.0486,-0.15633 -0.0781,-0.0784 -0.20405,0.12612 -0.27395,0.28242 -0.1263,0.28242 0.0429,0 0.13489,-0.0919 0.20435,-0.20435 z m 0.56723,-0.36209 c 0.11682,-0.11682 0.21241,-0.28334 0.21241,-0.37008 0,-0.23274 -1.45872,-3.50508 -1.53048,-3.43331 -0.0337,0.0336 0.26144,0.81163 0.65586,1.72876 0.56054,1.30343 0.67602,1.73516 0.52886,1.97728 -0.21921,0.36068 -0.16763,0.39832 0.13335,0.0971 z m -11.02772,-0.65316 c 3.18898,-1.47182 2.38911,-6.36572 -1.09515,-6.7005 -2.80271,-0.26931 -4.68387,1.9239 -3.94185,4.59568 0.54872,1.97574 3.05106,3.02141 5.037,2.10482 z m -3.34866,-0.54151 c -1.29519,-0.80048 -1.74942,-2.86477 -0.94522,-4.29564 0.4404,-0.7836 1.23885,-1.26652 2.38473,-1.44237 2.05017,-0.31459 3.94792,1.79808 3.4099,3.79612 -0.54696,2.03129 -3.07002,3.04159 -4.84941,1.94189 z m -37.861001,-0.0974 c -0.001,-0.58415 -0.03405,-0.80174 -0.07343,-0.48362 -0.03939,0.31817 -0.03856,0.79611 0.0015,1.06209 0.04039,0.26596 0.07262,0.005 0.07164,-0.57847 z m -21.767999,0 c -9e-4,-0.48678 -0.0359,-0.66491 -0.0764,-0.39584 -0.0406,0.26905 -0.0396,0.66733 0.003,0.88508 0.042,0.21767 0.0753,-0.003 0.0739,-0.48924 z m 25.348209,-1.06213 c 0,-0.0971 -0.152633,-0.45579 -0.339184,-0.79655 -0.186546,-0.34073 -0.339177,-0.53985 -0.339177,-0.44251 0,0.0973 0.152631,0.45579 0.339177,0.79653 0.186551,0.34076 0.339184,0.53988 0.339184,0.44253 z M 64.49613,29.284529 c -9.1e-4,-0.48674 -0.036,-0.66489 -0.0765,-0.3958 -0.0408,0.26906 -0.0394,0.6673 0.003,0.88502 0.0419,0.21772 0.0752,-0.003 0.0739,-0.48922 z m 21.76798,-0.35401 c -0.001,-0.58412 -0.03402,-0.80172 -0.07343,-0.4836 -0.0394,0.31819 -0.03859,0.79608 0.0016,1.06207 0.04036,0.266 0.07262,0.005 0.07165,-0.57847 z m 3.049179,-0.17694 c 0,-0.0971 -0.152634,-0.45582 -0.339184,-0.79656 -0.186546,-0.34072 -0.33918,-0.53986 -0.33918,-0.44252 0,0.0973 0.152634,0.45579 0.33918,0.79655 0.18655,0.34075 0.339184,0.53988 0.339184,0.44253 z m 47.969691,-0.17707 c 0,-0.0971 -0.15263,-0.45575 -0.33918,-0.79651 -0.18655,-0.34075 -0.33918,-0.53991 -0.33918,-0.44252 0,0.0971 0.15263,0.45577 0.33918,0.79653 0.18655,0.34075 0.33918,0.53987 0.33918,0.4425 z m -37.06874,-0.60003 c 3.18898,-1.47184 2.38911,-6.36575 -1.095152,-6.70054 -2.802705,-0.2693 -4.683873,1.92389 -3.941843,4.59571 0.548718,1.97573 3.051055,3.02138 5.036995,2.10483 z m -3.348654,-0.54154 c -1.295191,-0.80046 -1.749425,-2.86477 -0.945228,-4.29564 0.440399,-0.78361 1.238854,-1.26652 2.384729,-1.44235 2.050163,-0.31463 3.947923,1.79807 3.409903,3.79614 -0.54697,2.03125 -3.07002,3.04158 -4.849404,1.94185 z M 64.32151,27.248959 c 0,-0.4381 -0.0345,-0.61733 -0.0768,-0.39828 -0.0422,0.21906 -0.0422,0.57748 0,0.79655 0.0424,0.21907 0.0768,0.0396 0.0768,-0.39827 z m 21.765589,-0.79648 c -10e-4,-0.58411 -0.03404,-0.80176 -0.07343,-0.48362 -0.0394,0.31816 -0.0386,0.79606 0.0016,1.06208 0.04038,0.26599 0.07262,0.005 0.07164,-0.57846 z m 2.471028,0.61955 c -0.04646,-0.14601 -0.77052,-1.81564 -1.608995,-3.71022 -0.83848,-1.89458 -1.483503,-3.55156 -1.43339,-3.68216 0.05012,-0.13059 0.01238,-0.18876 -0.08388,-0.12928 -0.09624,0.0596 -0.174982,0.18123 -0.174982,0.27052 0,0.19954 2.766934,6.45991 3.126592,7.0741 0.142524,0.2434 0.221107,0.32306 0.174636,0.17704 z m 48.016813,-0.0886 c 0,-0.0971 -0.15263,-0.45582 -0.33918,-0.79658 -0.18655,-0.34073 -0.33918,-0.53987 -0.33918,-0.44252 0,0.0971 0.15263,0.45581 0.33918,0.79656 0.18655,0.34071 0.33918,0.53986 0.33918,0.44254 z m -71.67417,-0.805 c 0.34074,-0.0701 2.84985,-0.35588 5.57581,-0.63485 2.72598,-0.27902 4.75715,-0.5286 4.51373,-0.55467 -0.57378,-0.0616 -10.62137,0.96274 -10.75495,1.09628 -0.18887,0.18893 0.0429,0.22143 0.66541,0.0932 z m 70.94055,-0.8766 c -0.30863,-0.84636 -2.50327,-5.65778 -2.55642,-5.60465 -0.0722,0.0719 2.37423,5.62538 2.54367,5.77402 0.0603,0.0529 0.066,-0.0236 0.0127,-0.16937 z m -49.902905,-0.84081 0.02652,-0.5753 -0.929305,0.0319 -0.9293,0.0319 0.82993,0.0658 c 0.744824,0.0589 0.83741,0.11483 0.902781,0.54338 0.06609,0.43313 0.07531,0.42406 0.09936,-0.0978 z m -8.027435,0.30977 c 0.84094,-0.11534 0.84976,-0.1219 0.17702,-0.13171 -0.38942,-0.005 -1.14615,0.0504 -1.68159,0.12426 -0.95832,0.13251 -0.96111,0.13457 -0.17702,0.13173 0.43809,-8.8e-4 1.19484,-0.0574 1.68159,-0.12428 z m 2.16594,-0.30402 c -0.26906,-0.0406 -0.66734,-0.0394 -0.88505,0.003 -0.2177,0.042 0.002,0.0754 0.48921,0.0741 0.48679,-9e-4 0.66491,-0.0357 0.39584,-0.0766 z m 1.77011,-0.177 c -0.26907,-0.0408 -0.66734,-0.0394 -0.88506,0.003 -0.21771,0.0419 0.002,0.0754 0.48922,0.0739 0.48677,-8.8e-4 0.6649,-0.036 0.39584,-0.0764 z m 1.68196,-0.17524 c -0.22018,-0.0425 -0.5388,-0.041 -0.70804,0.004 -0.16924,0.0444 0.0109,0.0789 0.40034,0.0769 0.38941,-0.002 0.52788,-0.0383 0.3077,-0.0807 z m 49.68276,-4.74256 c 0,-0.0971 -0.15263,-0.45582 -0.33918,-0.79654 -0.18655,-0.34076 -0.33918,-0.53989 -0.33918,-0.44256 0,0.0973 0.15263,0.45583 0.33918,0.79658 0.18655,0.34074 0.33918,0.53989 0.33918,0.44252 z m -47.141402,-0.11587 c 0.07826,-0.1266 0.04856,-0.15631 -0.07807,-0.078 -0.204048,0.12613 -0.273952,0.28242 -0.126299,0.28242 0.04289,0 0.134892,-0.0919 0.204361,-0.20435 z m 0.701558,-0.42494 c 0.329948,-0.26433 0.327776,-0.2676 -0.05468,-0.0822 -0.219051,0.10616 -0.398274,0.23001 -0.398274,0.27526 0,0.13545 0.0918,0.0963 0.452947,-0.193 z m 0.714519,-0.46012 c 0.07826,-0.12662 0.04856,-0.15631 -0.07806,-0.0782 -0.112396,0.0695 -0.204361,0.16144 -0.204361,0.20438 0,0.14765 0.156312,0.0777 0.282418,-0.12632 z m 0.701561,-0.42493 c 0.329948,-0.26436 0.327777,-0.26762 -0.05468,-0.0822 -0.21905,0.10617 -0.398275,0.23001 -0.398275,0.27525 0,0.13544 0.09179,0.0963 0.452948,-0.19299 z m 44.315724,-0.16719 c 0,-0.0971 -0.15263,-0.4558 -0.33917,-0.79657 -0.18655,-0.34073 -0.33919,-0.53985 -0.33919,-0.44251 0,0.0974 0.15264,0.45581 0.33919,0.79652 0.18654,0.34076 0.33917,0.5399 0.33917,0.44256 z m -43.601204,-0.29287 c 0.07825,-0.1266 0.04856,-0.15629 -0.07806,-0.0781 -0.112402,0.0694 -0.204363,0.1614 -0.204363,0.20437 0,0.14764 0.156307,0.0779 0.282418,-0.12633 z m 0.531031,-0.35398 c 0.07825,-0.12663 0.04856,-0.15633 -0.07807,-0.0782 -0.204048,0.12613 -0.273953,0.28241 -0.126304,0.28241 0.04291,0 0.134894,-0.0919 0.204363,-0.20432 z m 0.701556,-0.42494 c 0.329951,-0.26436 0.32778,-0.2676 -0.05468,-0.0822 -0.219053,0.10616 -0.398275,0.22999 -0.398275,0.27525 0,0.13544 0.09182,0.0964 0.452944,-0.193 z m 26.364057,-0.41326 c 3.18898,-1.47186 2.38911,-6.36575 -1.09515,-6.70051 -2.8027,-0.26933 -4.68387,1.92387 -3.94184,4.59566 0.54872,1.97572 3.05105,3.02139 5.03699,2.10485 z m -3.34865,-0.54152 c -1.29519,-0.80048 -1.74942,-2.86478 -0.94523,-4.29566 0.4404,-0.78357 1.23886,-1.26649 2.38473,-1.44235 2.05017,-0.31462 3.94792,1.7981 3.40991,3.79614 -0.54697,2.03126 -3.07002,3.0416 -4.84941,1.94187 z m -22.300885,0.49469 c 0.07825,-0.12661 0.04856,-0.15632 -0.07805,-0.078 -0.204049,0.1261 -0.273951,0.2824 -0.126301,0.2824 0.04289,0 0.134891,-0.0919 0.20436,-0.20435 z m 0.701559,-0.42494 c 0.329947,-0.26436 0.32778,-0.2676 -0.05468,-0.0821 -0.219056,0.10615 -0.398275,0.23001 -0.398275,0.27528 0,0.13543 0.09182,0.0964 0.452947,-0.193 z m 0.714521,-0.4601 c 0.07825,-0.12663 0.04856,-0.15633 -0.07806,-0.0783 -0.204049,0.12611 -0.273956,0.28241 -0.126303,0.28241 0.0429,0 0.134896,-0.0917 0.204361,-0.20437 z m 0.701557,-0.42495 c 0.32995,-0.26433 0.327779,-0.26763 -0.05468,-0.0823 -0.219049,0.10618 -0.398272,0.23 -0.398272,0.27528 0,0.13543 0.09181,0.0964 0.452946,-0.193 z m 0.714523,-0.46009 c 0.07825,-0.12664 0.04856,-0.15631 -0.07806,-0.0782 -0.204049,0.1261 -0.27395,0.2824 -0.126304,0.2824 0.0429,0 0.134897,-0.0916 0.204363,-0.20435 z m 0.9124,-0.52405 c 0.603339,-0.38641 0.79859,-0.6459 0.265515,-0.35286 -0.406136,0.22322 -1.042384,0.71525 -0.929305,0.71862 0.04868,8.7e-4 0.347382,-0.16314 0.66379,-0.36576 z m 1.416077,-0.88509 c 0.603341,-0.38638 0.798594,-0.64585 0.265514,-0.35283 -0.406136,0.22325 -1.04238,0.71525 -0.929301,0.71863 0.04868,8.8e-4 0.347384,-0.16314 0.663787,-0.3658 z m 1.41608,-0.88505 c 0.60334,-0.38634 0.798593,-0.64583 0.265516,-0.35282 -0.406139,0.22322 -1.042384,0.71524 -0.929303,0.71861 0.04869,9.1e-4 0.347384,-0.16314 0.663787,-0.36579 z m 1.034709,-0.71498 c 0.07827,-0.12665 0.04856,-0.15631 -0.07806,-0.0783 -0.1124,0.0694 -0.204361,0.16146 -0.204361,0.20438 0,0.14765 0.15631,0.0779 0.282417,-0.1263 z m 0.701561,-0.42493 c 0.329948,-0.26431 0.327777,-0.2676 -0.05468,-0.0822 -0.219049,0.10616 -0.398271,0.23004 -0.398271,0.27529 0,0.13546 0.0918,0.0963 0.452944,-0.193 z m 0.71452,-0.46009 c 0.07826,-0.12659 0.04856,-0.1563 -0.07805,-0.0784 -0.204047,0.12614 -0.273955,0.28248 -0.126304,0.28248 0.0429,0 0.134897,-0.0916 0.204365,-0.20439 z m 0.912398,-0.52401 c 0.60334,-0.38643 0.79859,-0.64586 0.26551,-0.35288 -0.40613,0.22325 -1.04238,0.71524 -0.9293,0.71865 0.0487,9e-4 0.34738,-0.16315 0.66379,-0.36577 z m 1.41608,-0.88507 c 0.60334,-0.38639 0.79859,-0.64585 0.26551,-0.35285 -0.40613,0.22323 -1.04238,0.71524 -0.9293,0.71863 0.0487,8.9e-4 0.34738,-0.16315 0.66379,-0.36578 z m 1.41608,-0.88503 c 0.60334,-0.38642 0.79859,-0.64591 0.26552,-0.35286 -0.40614,0.22321 -1.04239,0.71523 -0.92931,0.7186 0.0487,9e-4 0.34738,-0.16312 0.66379,-0.36574 z m 1.41608,-0.88508 c 0.60334,-0.38636 0.79859,-0.64586 0.26552,-0.35284 -0.40614,0.22325 -1.04239,0.71523 -0.92931,0.71863 0.0487,8.7e-4 0.34739,-0.16314 0.66379,-0.36579 z m 1.552,-0.97799 c 0.90324,-0.59883 1.22153,-0.91481 0.51617,-0.51244 -0.62091,0.3542 -1.44926,0.96996 -1.31272,0.97585 0.0504,0.002 0.40887,-0.20637 0.79655,-0.46341 z m 1.81119,-1.14612 c 0.60334,-0.3864 0.79859,-0.64586 0.26551,-0.35283 -0.40614,0.22321 -1.04238,0.7152 -0.9293,0.71861 0.0487,8.8e-4 0.34738,-0.16314 0.66379,-0.36578 z m 1.41608,-0.88506 c 0.60334,-0.3864 0.79859,-0.64583 0.26551,-0.35284 -0.40614,0.22326 -1.04238,0.71523 -0.9293,0.71865 0.0487,8.7e-4 0.34738,-0.16317 0.66379,-0.36581 z m 11.37288,0.1011 c 0,-0.053 -1.47086,-0.81966 -3.26857,-1.7037 l -3.26858,-1.60735 -1.33368,0.83127 c -0.73352,0.45718 -1.33368,0.87097 -1.33368,0.91957 0,0.0487 0.59932,-0.24252 1.33183,-0.64687 l 1.33183,-0.7352 1.27906,0.53494 c 0.70349,0.29417 2.11544,0.97618 3.13768,1.51553 1.81772,0.95905 2.12411,1.08768 2.12411,0.89181 z m -9.9568,-0.98604 c 0.60334,-0.38635 0.79859,-0.64581 0.26551,-0.35283 -0.40613,0.22326 -1.04238,0.71523 -0.9293,0.71861 0.0487,9.2e-4 0.34738,-0.16314 0.66379,-0.36578 z"
       id="path1374" />
  </g>
</svg>
