<?xml version="1.0" encoding="UTF-8" standalone="no"?>
<!-- Created with Inkscape (http://www.inkscape.org/) -->

<svg
   width="210mm"
   height="297mm"
   viewBox="0 0 210 297"
   version="1.1"
   id="svg6799"
   inkscape:version="1.1.2 (0a00cf5339, 2022-02-04)"
   sodipodi:docname="pad_background.svg"
   xmlns:inkscape="http://www.inkscape.org/namespaces/inkscape"
   xmlns:sodipodi="http://sodipodi.sourceforge.net/DTD/sodipodi-0.dtd"
   xmlns="http://www.w3.org/2000/svg"
   xmlns:svg="http://www.w3.org/2000/svg">
  <sodipodi:namedview
     id="namedview6801"
     pagecolor="#ffffff"
     bordercolor="#666666"
     borderopacity="1.0"
     inkscape:pageshadow="2"
     inkscape:pageopacity="0.0"
     inkscape:pagecheckerboard="0"
     inkscape:document-units="mm"
     showgrid="false"
     inkscape:zoom="0.20206462"
     inkscape:cx="888.32971"
     inkscape:cy="1227.3302"
     inkscape:window-width="1500"
     inkscape:window-height="931"
     inkscape:window-x="0"
     inkscape:window-y="0"
     inkscape:window-maximized="1"
     inkscape:current-layer="layer1" />
  <defs
     id="defs6796" />
  <g
     inkscape:label="Calque 1"
     inkscape:groupmode="layer"
     id="layer1">
    <path
       style="fill:#000000;stroke-width:0.264583"
       d="m 196.79828,91.408943 c -418.70652,-143.610839 -209.353264,-71.80542 0,0 z m -10.84397,41.652667 c -0.83503,-0.65683 -0.87377,-1.03487 -0.16798,-1.63919 0.37489,-0.32099 0.52957,-0.7817 0.53054,-1.58016 7.9e-4,-0.61989 0.0782,-2.28793 0.1722,-3.70676 l 0.17082,-2.57968 h -1.01206 -1.01207 l 0.57529,0.61236 c 0.65034,0.69226 0.76685,1.97656 0.19908,2.19444 -0.40535,0.15555 -1.4858,-0.32151 -1.80256,-0.79589 -0.10691,-0.16012 -0.19621,-0.62273 -0.19844,-1.02803 -0.004,-0.64617 -0.0671,-0.70319 -0.51582,-0.46302 -0.66268,0.35465 -1.60489,0.3524 -1.60489,-0.004 0,-0.15275 0.18573,-0.63689 0.41274,-1.07587 0.34953,-0.67592 0.52371,-0.77378 1.13742,-0.63898 0.78552,0.17252 3.92258,-0.46392 4.33895,-0.88029 0.581,-0.581 -0.099,-0.81473 -1.14854,-0.39479 -0.65268,0.26115 -1.4168,0.36474 -1.99653,0.27067 -1.71537,-0.27836 -2.18281,-1.23635 -0.60326,-1.23635 0.8986,0 2.46735,-0.59451 2.74219,-1.03922 0.1018,-0.1647 -0.18132,-0.71677 -0.62915,-1.22682 -0.44783,-0.51005 -0.81424,-1.04325 -0.81424,-1.18489 0,-0.14163 0.47176,-0.44628 1.04835,-0.67699 1.16667,-0.4668 1.46386,-1.04415 1.21643,-2.36308 -0.13447,-0.71681 -0.0659,-0.9427 0.35435,-1.16762 0.76996,-0.41207 1.30951,-0.34347 2.18137,0.27735 0.75734,0.53927 0.76791,0.57643 0.34694,1.21891 -0.46197,0.70506 -0.31523,1.0249 0.5411,1.17937 0.40874,0.0737 0.52917,0.30365 0.52917,1.01033 0,0.83433 -0.0987,0.95134 -1.1209,1.32894 -1.32421,0.48916 -1.78929,0.89307 -1.52351,1.3231 0.12862,0.20813 0.57399,0.25592 1.32932,0.14266 1.27476,-0.19117 1.58691,0.0568 1.33496,1.06071 -0.13868,0.55253 -0.31805,0.64642 -1.23494,0.64642 -0.88033,0 -1.05616,0.083 -0.98053,0.46302 0.0972,0.48812 1.24009,0.60821 2.10976,0.22168 0.31282,-0.13903 0.56772,-0.007 0.8659,0.44789 0.70382,1.07418 0.31061,1.479 -1.52243,1.56738 -1.62088,0.0782 -1.62102,0.0782 -1.80591,1.0042 -0.90647,4.53983 -0.95336,4.96344 -0.74681,6.74687 0.18111,1.56378 0.1478,1.90357 -0.214,2.18281 -0.568,0.43839 -0.66674,0.4239 -1.48231,-0.21764 z m -15.24455,-4.16835 c -1.88341,-1.19898 -3.56658,-2.56709 -5.24498,-4.26324 -1.94988,-1.9705 -2.52445,-2.41725 -2.72224,-2.11666 -0.13789,0.20955 -0.62603,1.07323 -1.08476,1.91929 -0.91416,1.68602 -1.9098,2.42194 -2.6877,1.98661 -0.35141,-0.19666 -0.60124,-0.14993 -0.9667,0.18081 -0.40912,0.37024 -0.94113,0.43046 -3.13213,0.35452 -2.49421,-0.0865 -2.69516,-0.13664 -3.65534,-0.91295 -0.80919,-0.65423 -1.10527,-1.14947 -1.45437,-2.43272 -0.70183,-2.5798 -0.87335,-2.66404 -2.53266,-1.24373 -1.26627,1.08388 -1.5591,1.13754 -1.80497,0.33073 -0.0998,-0.32742 -0.34931,-0.78702 -0.55452,-1.02133 -0.28051,-0.3203 -0.3072,-0.59934 -0.10754,-1.12448 0.23109,-0.60782 0.41559,-0.69846 1.42172,-0.69846 1.60811,0 2.24216,-0.6886 1.76005,-1.91148 -0.18792,-0.47665 -0.63483,-1.18593 -0.99312,-1.57617 -0.58318,-0.63518 -0.62001,-0.79974 -0.35138,-1.57032 0.68016,-1.9511 1.73023,-2.29585 3.21387,-1.05515 0.83784,0.70065 0.89197,0.83054 0.63398,1.52136 -0.32512,0.8706 -0.0336,2.34811 0.50401,2.55441 0.41702,0.16003 2.82446,-0.38821 4.14369,-0.94362 1.04266,-0.43897 1.45844,-0.36445 2.3151,0.41493 1.19873,1.0906 0.65582,1.91428 -1.38906,2.10743 -1.56082,0.14743 -4.06221,0.84311 -4.4593,1.2402 -0.37706,0.37706 0.1956,3.09805 0.79033,3.75522 0.56933,0.62911 3.03797,0.6943 3.53668,0.0934 0.45903,-0.5531 0.83276,-0.49984 1.98652,0.28312 1.10762,0.75166 1.17018,0.72036 1.88782,-0.94458 0.21954,-0.50932 0.65771,-1.46182 0.97372,-2.11667 0.69949,-1.44951 0.72385,-3.28039 0.0586,-4.40651 -0.604,-1.0225 -0.39703,-2.38715 0.51058,-3.36647 0.8627,-0.93088 1.61671,-0.88696 2.23527,0.13018 0.4078,0.67056 0.44955,0.9715 0.2244,1.61737 -0.35031,1.00489 -0.0744,4.46788 0.43441,5.45175 0.39174,0.75755 2.62483,2.95493 3.00294,2.95493 0.20173,0 5.17241,4.79756 6.25536,6.03749 0.80357,0.92006 0.21291,0.65588 -2.74831,-1.22921 z m 3.50105,0.31177 c 0,-0.72577 0.369,-0.83345 0.54522,-0.15911 0.11524,0.44097 0.12246,0.44097 0.1517,0 0.0169,-0.25466 0.20078,-0.46302 0.40866,-0.46302 0.45988,0 1.21174,0.71422 1.20364,1.14338 -0.003,0.1715 -0.25149,0.0142 -0.55169,-0.34963 -0.51806,-0.62782 -0.53944,-0.63213 -0.42061,-0.0847 0.1057,0.48697 0.0114,0.57354 -0.60586,0.55599 -0.58519,-0.0166 -0.73106,-0.14492 -0.73106,-0.64292 z m 2.64584,0.30501 c -0.47726,-0.54207 -0.40841,-0.80868 0.22108,-0.8561 0.38129,-0.0287 0.50651,0.0765 0.40518,0.34057 -0.0806,0.21018 -0.0313,0.38214 0.10964,0.38214 0.14096,0 0.25628,-0.11906 0.25628,-0.26458 0,-0.14552 0.1786,-0.26459 0.39688,-0.26459 0.21828,0 0.39505,0.20836 0.39282,0.46302 -0.003,0.35459 -0.0564,0.38038 -0.22776,0.11011 -0.18012,-0.28414 -0.25505,-0.27126 -0.38452,0.0661 -0.1976,0.51493 -0.72746,0.52548 -1.1696,0.0233 z m 2.57973,-0.0672 c -3e-5,-0.18191 -0.009,-0.41705 -0.0199,-0.52256 -0.0109,-0.1055 0.10815,-0.23448 0.26458,-0.28663 0.15644,-0.0521 0.28443,0.0937 0.28443,0.32412 0,0.2304 0.12609,0.41892 0.2802,0.41892 0.15411,0 0.2117,-0.11084 0.12798,-0.2463 -0.0837,-0.13547 -0.0385,-0.31656 0.10041,-0.40244 0.13895,-0.0859 0.3754,0.0547 0.52544,0.31245 0.25778,0.44279 0.27324,0.4431 0.28084,0.006 0.0102,-0.58723 0.63037,-0.59665 1.20866,-0.0184 0.41649,0.41649 0.46042,0.41649 0.69351,0 0.31409,-0.56126 1.13398,-0.60382 0.92061,-0.0478 -0.0838,0.21828 -0.037,0.39687 0.10399,0.39687 0.14095,0 0.25628,-0.17859 0.25628,-0.39687 0,-0.21828 0.11906,-0.39688 0.26458,-0.39688 0.14552,0 0.26459,0.1786 0.26459,0.39688 0,0.21828 0.12609,0.39687 0.28019,0.39687 0.15411,0 0.2117,-0.11083 0.12798,-0.2463 -0.0837,-0.13547 -0.0312,-0.32109 0.11668,-0.41249 0.15248,-0.0942 0.26891,0.0983 0.26893,0.44474 4e-5,0.60424 -0.0347,0.61093 -3.17496,0.61093 -2.36358,0 -3.175,-0.0845 -3.17503,-0.33073 z m -0.79501,-2.84573 c -0.269,-0.32413 -0.27715,-0.62899 -0.0382,-1.4267 0.65156,-2.1747 0.20107,-3.69184 -0.75439,-2.54059 -0.18115,0.21828 -0.73333,0.39687 -1.22705,0.39687 h -0.89768 l 2.25299,-3.04485 c 1.23915,-1.67466 2.25299,-3.2079 2.25299,-3.40718 0,-0.43425 0.4552,-0.82841 1.23086,-1.06582 0.39681,-0.12145 0.79291,0.018 1.30687,0.46008 l 0.73747,0.63435 -1.3794,1.58593 c -0.93876,1.07931 -1.32547,1.72646 -1.21059,2.02584 0.0928,0.24195 0.0219,0.79461 -0.15769,1.22814 -0.17958,0.43353 -0.4015,1.69732 -0.49316,2.80841 -0.13621,1.65119 -0.26841,2.08753 -0.72381,2.38895 -0.48251,0.31937 -0.60299,0.31355 -0.89926,-0.0434 z m -5.55504,-2.72375 c 0,-0.11642 0.10436,-0.32478 0.23191,-0.46302 0.2984,-0.32343 1.35559,-3.19813 1.35559,-3.68611 0,-0.20471 -0.2884,-0.70626 -0.6409,-1.11456 l -0.64091,-0.74236 -0.54972,1.27871 c -0.30234,0.70329 -0.54972,1.53936 -0.54972,1.85795 0,0.68375 -1.51844,2.6258 -1.87888,2.40303 -0.50103,-0.30965 -1.82039,-2.91415 -1.8228,-3.59832 -0.002,-0.46211 0.46204,-1.2604 1.34779,-2.32043 1.74406,-2.08725 2.15861,-2.31014 3.1402,-1.6884 1.12878,0.71496 3.44703,3.47305 3.44703,4.10102 0,0.68628 -2.56459,4.18415 -3.06776,4.18415 -0.2045,0 -0.37183,-0.0953 -0.37183,-0.21166 z m -2.23442,-2.98686 c 0.30931,-0.50047 0.89863,-2.98814 0.74366,-3.13917 -0.28695,-0.27968 -1.68424,1.69566 -1.68424,2.381 0,0.97819 0.53706,1.41109 0.94058,0.75817 z m -4.77415,-2.6988 c -0.70156,-0.70156 -0.93101,-1.11721 -0.79836,-1.4462 0.10239,-0.25393 0.24905,-0.90382 0.32592,-1.44421 l 0.13977,-0.98253 1.22322,0.1599 c 0.67278,0.088 1.27234,0.20217 1.33236,0.25381 0.06,0.0516 -0.0324,0.40442 -0.20528,0.78393 -0.17292,0.37952 -0.24304,1.07041 -0.15583,1.5353 0.11577,0.61708 0.0188,1.01793 -0.35936,1.48488 l -0.51793,0.63963 z M 114.5843,106.04283 c -0.016,-0.045 -0.0556,-1.79269 -0.088,-3.88383 l -0.0589,-3.802057 -0.838,-0.35235 c -0.68061,-0.28618 -0.838,-0.50383 -0.838,-1.15888 0,-0.54052 -0.13089,-0.80652 -0.39687,-0.80652 -0.25829,0 -0.39688,0.2587 -0.39688,0.74083 0,0.85088 -0.424,1.37584 -1.11125,1.37584 -0.26193,0 -0.47625,0.19117 -0.47625,0.42482 0,0.23366 -0.29765,0.77857 -0.66146,1.21093 -0.74343,0.883517 -0.83456,1.274657 -0.29697,1.274657 0.55527,0 1.06871,0.70691 0.63875,0.87943 -0.21735,0.0872 -0.17321,0.14474 0.12125,0.15802 0.25466,0.0115 0.46302,0.13995 0.46302,0.28547 0,0.14552 0.19477,0.26458 0.43283,0.26458 0.36272,0 0.40558,0.19889 0.26459,1.22756 -0.0925,0.67515 -0.16826,1.41228 -0.16826,1.63807 0,0.32321 -0.081,0.30129 -0.38076,-0.10308 -0.31229,-0.42124 -0.47117,-0.45848 -0.88357,-0.20714 -0.31048,0.18923 -0.64556,0.21608 -0.87601,0.0702 -0.20526,-0.12994 -0.55179,-0.23625 -0.77007,-0.23625 -0.31828,0 -0.32695,0.0443 -0.0438,0.22382 0.26372,0.16717 0.19676,0.26569 -0.26459,0.38921 -1.03053,0.27593 -1.34895,0.20701 -1.17215,-0.25372 0.11404,-0.29719 0.0491,-0.3824 -0.21438,-0.28129 -0.20789,0.0798 -0.44129,-0.0199 -0.51866,-0.22158 -0.11811,-0.30778 -0.27215,-0.30105 -0.95963,0.0419 -0.59094,0.29479 -1.27609,0.36917 -2.4609,0.26716 -0.90307,-0.0778 -1.66798,-0.14864 -1.6998,-0.15751 -0.0318,-0.009 0.0152,-0.2065 0.10451,-0.43919 0.13668,-0.35617 0.0726,-0.37709 -0.40518,-0.13229 -1.431734,0.73357 -1.641254,0.81995 -1.988904,0.81995 -0.20362,0 -0.70272,-0.1725 -1.1091,-0.38334 -0.40638,-0.21083 -0.86648,-0.31243 -1.02243,-0.22577 -0.15595,0.0867 -0.13473,-0.003 0.0472,-0.19875 0.40994,-0.44165 0.43515,-0.87541 0.0366,-0.62907 -0.16179,0.1 -0.39809,0.0177 -0.52512,-0.18282 -0.18357,-0.28983 -0.23178,-0.27135 -0.235,0.0901 -0.003,0.29628 -0.14338,0.40125 -0.40393,0.30127 -0.28613,-0.1098 -0.35334,-0.0322 -0.23627,0.27289 0.10942,0.28514 0.0201,0.42633 -0.26989,0.42633 -0.23842,0 -0.49582,-0.16245 -0.57202,-0.36101 -0.0907,-0.23638 -0.50139,-0.34054 -1.18964,-0.3017 -0.57812,0.0326 -1.11117,-0.0378 -1.18456,-0.1566 -0.0734,-0.11875 -0.30822,-0.14884 -0.52184,-0.0669 -0.21362,0.082 -0.3884,0.0172 -0.3884,-0.14385 0,-0.16109 -0.17859,-0.29289 -0.39688,-0.29289 -0.21828,0 -0.39687,-0.1318 -0.39687,-0.29289 0,-0.16109 -0.16989,-0.2277 -0.37753,-0.14802 -1.68664,0.64723 -1.13755,-5.595947 1.07485,-12.221127 3.15918,-9.46036 9.995894,-18.56895 18.883754,-25.1589 19.23869,-14.26462 44.43203,-15.72376 63.8239,-3.69655 9.5415,5.91783 16.93375,15.18191 21.45655,26.88969 l 0.4307,1.1149 -0.98622,0.4726 c -0.86277,0.41344 -0.9117,0.48318 -0.3909,0.55714 0.63845,0.0907 0.77965,0.43176 0.30115,0.72749 -0.16179,0.1 -0.38417,0.0362 -0.49417,-0.14182 -0.13146,-0.2127 -0.26146,-0.0788 -0.37929,0.3907 -0.14515,0.57829 -0.29037,0.68454 -0.7626,0.55792 -0.32082,-0.086 -0.7506,-0.15803 -0.95505,-0.16002 -0.30957,-0.003 -0.30524,-0.081 0.0259,-0.46663 0.66565,-0.7751 0.87865,-1.23847 0.45286,-0.98518 -0.67587,0.40206 -1.55302,1.31107 -1.55766,1.61425 -0.003,0.16408 -0.17179,0.4371 -0.37616,0.60671 -0.31367,0.26033 -0.33642,0.15249 -0.14597,-0.69194 0.22987,-1.01922 0.0554,-3.25582 -0.25404,-3.25582 -0.0938,0 -0.17654,0.95224 -0.18393,2.11608 -0.007,1.16385 -0.0931,2.19572 -0.19041,2.29306 -0.33789,0.33788 -0.41112,-0.0637 -0.19022,-1.04313 0.13715,-0.60814 0.12475,-0.98476 -0.0325,-0.98476 -0.14001,0 -0.18525,-0.21835 -0.10055,-0.48523 0.12046,-0.37953 0.0235,-0.47605 -0.44519,-0.44307 -0.42225,0.0297 -0.68219,0.29304 -0.88024,0.8917 -0.27102,0.81925 -0.29696,0.83194 -0.7276,0.35609 -0.24561,-0.2714 -0.44656,-0.82 -0.44656,-1.21911 0,-0.66507 -0.0353,-0.69033 -0.42315,-0.30252 -0.35706,0.35705 -0.36772,0.48994 -0.0682,0.85081 0.31355,0.37781 0.28478,0.4054 -0.24681,0.23668 -0.59127,-0.18766 -0.59008,-0.17933 0.0682,0.47897 0.73959,0.73959 0.89741,1.75235 0.27308,1.75235 -0.21828,0 -0.635,-0.23813 -0.92604,-0.52917 -0.29104,-0.29104 -0.67204,-0.52916 -0.84667,-0.52916 -0.24694,0 -0.24694,0.0706 0,0.3175 0.45884,0.45883 0.39006,1.27 -0.10768,1.27 -0.2626,0 -0.36892,-0.14661 -0.27806,-0.3834 0.10186,-0.26544 0.02,-0.33462 -0.26602,-0.22486 -0.34152,0.13105 -0.3856,0.003 -0.25422,-0.74108 0.0874,-0.49479 0.0817,-0.72316 -0.0128,-0.50747 -0.0944,0.21568 -0.3261,0.54655 -0.51481,0.73526 -0.18871,0.18871 -0.27892,0.54803 -0.20047,0.79847 0.1161,0.3706 0.0589,0.35686 -0.30724,-0.0738 -0.43947,-0.51692 -0.4459,-0.51201 -0.27766,0.21231 0.15903,0.68465 0.13046,0.71912 -0.37287,0.44975 -0.2998,-0.16046 -0.50112,-0.37506 -0.44737,-0.47689 0.14785,-0.28011 -0.83581,-1.12676 -1.00015,-0.86085 -0.0786,0.12708 -0.0696,0.42174 0.0198,0.65481 0.12095,0.31519 0.0495,0.38034 -0.27893,0.25431 -0.28875,-0.1108 -0.37652,-0.31784 -0.25364,-0.59831 0.10334,-0.23588 0.38698,-0.98686 0.63031,-1.66884 0.24333,-0.68198 0.59692,-1.42612 0.78575,-1.65364 0.18883,-0.22753 0.23536,-0.41369 0.1034,-0.41369 -0.34028,0 -1.05335,1.29931 -1.27054,2.3151 -0.25632,1.19875 -0.53268,1.07333 -0.87449,-0.39687 l -0.29218,-1.25677 0.13454,1.32291 c 0.074,0.72761 0.20334,1.61039 0.28744,1.96174 0.12418,0.51882 0.0698,0.60691 -0.2897,0.46897 -0.37822,-0.14514 -0.39925,-0.0888 -0.14457,0.38702 0.22424,0.419 0.22011,0.60501 -0.0167,0.75136 -0.17309,0.10697 -0.28012,0.41925 -0.23786,0.69396 0.0821,0.53339 -0.54051,1.69008 -0.90967,1.69008 -0.12208,0 -0.16034,-0.38695 -0.085,-0.8599 0.12241,-0.76865 0.10558,-0.75432 -0.15862,0.1351 -0.23314,0.78487 -0.39731,0.96269 -0.77737,0.84206 -0.29304,-0.093 -0.48182,-0.0215 -0.48182,0.18241 0,0.24623 -0.0782,0.25709 -0.29445,0.0409 -0.38298,-0.38297 -0.0666,-0.89011 0.43521,-0.69756 0.30377,0.11656 0.37976,-0.0733 0.34876,-0.87145 -0.0291,-0.74964 -0.0682,-0.83453 -0.14727,-0.31984 -0.0683,0.44469 -0.31963,0.75752 -0.68796,0.85628 -0.96694,0.2593 -1.04878,0.19614 -0.90329,-0.69704 0.13951,-0.85647 0.13891,-0.857 -0.15029,-0.13229 -0.32899,0.82439 -0.70027,0.95499 -0.75221,0.26458 -0.0192,-0.25466 -0.11814,-0.0463 -0.21997,0.46302 -0.18364,0.91851 -0.18736,0.92068 -0.4576,0.26702 -0.16273,-0.39361 -0.18413,-0.97966 -0.0531,-1.45521 0.19503,-0.70803 0.17928,-0.74336 -0.14231,-0.31914 -0.27392,0.36135 -0.39943,0.39343 -0.51752,0.13229 -0.16374,-0.36208 0.0485,1.17529 0.2718,1.96869 0.0943,0.335 0.0164,0.41783 -0.28434,0.30242 -0.38272,-0.14687 -0.51637,-0.5212 -0.48525,-1.35909 0.007,-0.1819 -0.0841,-0.33073 -0.20188,-0.33073 -0.11779,0 -0.29232,-0.35582 -0.38783,-0.79072 -0.22411,-1.02034 -0.70407,-1.3372 -0.50305,-0.33209 0.17186,0.85927 -0.35168,1.49434 -0.9348,1.13395 -0.30136,-0.18625 -0.28895,-0.40349 0.075,-1.31313 0.56659,-1.41606 0.53929,-1.71128 -0.0551,-0.59623 -0.37087,0.6957 -0.52941,0.80648 -0.7573,0.52917 -0.15853,-0.19291 -0.35045,-0.6484 -0.42648,-1.0122 -0.076,-0.3638 -0.0727,0.34764 0.007,1.58099 0.16141,2.48417 0.26406,2.41911 -1.49098,0.94511 l -0.64501,-0.54173 0.56408,0.74449 c 0.67676,0.89322 0.51509,1.62718 -0.30273,1.37433 -0.30736,-0.095 -0.70766,-0.15621 -0.88956,-0.13597 -0.1819,0.0202 -0.74744,0.0586 -1.25677,0.0853 -0.50932,0.0267 -0.92604,0.1378 -0.92604,0.24694 0,0.48851 0.11276,0.58995 0.56972,0.51253 0.26874,-0.0455 0.48861,0.0438 0.48861,0.19844 0,0.42659 -0.96562,0.33613 -1.43631,-0.13456 -0.49901,-0.49901 -0.5167,-0.70038 -0.0983,-1.11881 0.24694,-0.24694 0.23811,-0.3175 -0.0398,-0.3175 -0.28955,0 -0.31992,-0.51404 -0.16023,-2.71198 0.27387,-3.76919 0.19971,-5.10104 -0.39127,-7.02671 -0.46198,-1.50532 -0.47308,-1.72859 -0.11321,-2.27782 0.21944,-0.33491 0.32156,-0.8107 0.22692,-1.05731 -0.18555,-0.48355 0.62196,-2.53659 0.99771,-2.53659 0.60305,0 2.11066,1.2586 2.24029,1.87027 0.10804,0.50985 0.55797,0.88992 1.80099,1.52135 0.91133,0.46294 1.88303,0.84159 2.15933,0.84145 0.35697,-1.9e-4 0.83895,-0.62375 1.66529,-2.1545 l 1.16293,-2.15424 -0.16295,-3.04066 c -0.13989,-2.61025 -0.23635,-3.09206 -0.68147,-3.40383 -1.12931,-0.791 -2.56061,-5.01959 -2.27375,-6.7175 l 0.16462,-0.97438 2.23877,-0.31318 c 2.68114,-0.37508 3.01914,-0.48936 3.01914,-1.02083 0,-0.35015 -0.33861,-0.38416 -2.38125,-0.23917 -1.50754,0.10701 -2.38125,0.073 -2.38125,-0.0927 0,-0.14393 -0.2311,-0.2617 -0.51355,-0.2617 -0.28246,0 -0.58714,-0.11906 -0.67708,-0.26458 -0.33979,-0.5498 -3.83646,-0.1953 -3.83646,0.38894 0,0.98203 -2.67848,1.81426 -3.16343,0.98292 -0.24196,-0.41479 -0.26062,-0.41394 -0.2681,0.0122 -0.005,0.28073 -0.28965,0.52064 -0.73565,0.6199 -0.40019,0.0891 -0.93656,0.2186 -1.19193,0.28787 -0.63829,0.17313 -0.8573,-0.54303 -0.45965,-1.50303 0.23979,-0.57891 0.24901,-0.8831 0.0346,-1.14144 -0.21676,-0.26118 -0.19306,-0.48334 0.0917,-0.85966 0.5004,-0.66133 0.50211,-1.16892 0.004,-1.16892 -0.26596,0 -0.39687,-0.26599 -0.39687,-0.80638 0,-0.89086 -0.99485,-2.01162 -2.01229,-2.26698 -0.40913,-0.10268 -0.54784,-0.28171 -0.43868,-0.56618 0.11319,-0.29496 0.059,-0.35382 -0.18621,-0.20227 -0.22456,0.13879 -0.51801,-0.008 -0.83677,-0.41962 -0.41917,-0.54081 -0.53097,-0.57537 -0.76502,-0.23649 -0.15076,0.21828 -0.23179,0.7243 -0.18006,1.12448 0.0742,0.57441 -0.0132,0.72761 -0.41543,0.72761 -0.28022,0 -0.86258,0.37799 -1.29414,0.83997 -0.6773,0.72506 -0.77793,1.02369 -0.73554,2.18281 0.027,0.73857 -0.0242,1.52144 -0.11384,1.73972 -0.0896,0.21828 -0.1202,0.99218 -0.0679,1.71979 0.12343,1.71894 -0.24625,2.036 -3.06953,2.6326 -7.56941,1.59952 -14.74327,3.62071 -21.00824,5.91894 -2.71565,0.99621 -3.33166,1.32761 -3.19529,1.71897 0.16201,0.46494 0.81624,0.33054 4.02419,-0.82674 5.67008,-2.04548 16.46788,-5.09092 17.97972,-5.07103 0.47838,0.006 0.44588,0.0906 -0.2803,0.7276 -0.45178,0.39627 -1.15187,1.37534 -1.55575,2.1757 -0.40389,0.80036 -1.19249,2.00439 -1.75245,2.67561 -0.8495,1.01827 -1.3587,1.34009 -3.07446,1.94307 -2.46528,0.8664 -3.77613,1.97129 -3.77613,3.18284 0,1.11232 0.71132,3.7653 1.19452,4.45517 0.29429,0.42016 0.89952,0.64754 2.39669,0.90042 2.94457,0.49736 2.88015,0.42911 3.36563,3.56587 0.23187,1.49814 0.71425,3.37874 1.07197,4.1791 1.09394,2.44763 4.14202,4.7726 4.14202,3.15939 0,-0.29963 -0.11262,-0.47518 -0.25027,-0.3901 -0.13766,0.0851 -0.37512,-0.29486 -0.52769,-0.84428 -0.34799,-1.25309 -0.35186,-1.66042 -0.0158,-1.66042 0.14552,0 0.26459,0.11442 0.26459,0.25427 0,0.13986 0.26027,0.49676 0.57838,0.79313 0.44667,0.41613 0.6012,0.91556 0.67858,2.19312 0.0775,1.27929 0.0318,1.56431 -0.20166,1.25739 -0.2278,-0.29952 -0.33476,-0.31575 -0.43604,-0.0661 -0.0738,0.1819 -0.32668,0.33073 -0.56194,0.33073 -0.33269,0 -0.35718,0.0705 -0.11024,0.317497 0.4804,0.4804 0.38072,0.81908 -0.19663,0.6681 -0.30559,-0.0799 -0.69785,0.0686 -0.96705,0.36602 -0.46968,0.51898 -1.5926,0.71425 -1.28978,0.22429 0.0939,-0.1519 0.0466,-0.42573 -0.10513,-0.60851 -0.1517,-0.18278 -0.22954,-0.953867 -0.17298,-1.713517 0.0949,-1.27532 0.0434,-1.42516 -0.67301,-1.95479 -0.46894,-0.34671 -0.77584,-0.81558 -0.77584,-1.18531 0,-0.36734 -0.15853,-0.6117 -0.39687,-0.6117 -0.26459,0 -0.39688,0.26458 -0.39688,0.79375 0,0.43656 -0.0945,0.79375 -0.20996,0.79375 -0.26128,0 -0.88768,-2.89733 -0.69412,-3.21053 0.0777,-0.12574 -0.28239,-0.47861 -0.80022,-0.78414 -0.81595,-0.48142 -0.94153,-0.68942 -0.94153,-1.55941 0,-0.67134 -0.13864,-1.05709 -0.41852,-1.16449 -0.95853,-0.36782 -1.09177,-0.20397 -0.8914,1.09617 0.10653,0.69123 0.0892,1.29593 -0.0384,1.34379 -0.7675,0.28774 -1.35694,1.21458 -1.92326,3.02416 l -0.64244,2.05284 0.6948,0.54653 0.6948,0.54653 -0.58988,1.02492 c -0.32442,0.563707 -0.58987,1.147747 -0.58987,1.297857 0,0.15011 0.47625,0.5159 1.05834,0.81285 1.57478,0.8034 1.3402,1.10128 -0.79334,1.00747 -1.42141,-0.0625 -1.85661,-0.17364 -1.87297,-0.4783 -0.0146,-0.27147 -0.0635,-0.29237 -0.15475,-0.0661 -0.0734,0.18191 -0.3319,0.33083 -0.57443,0.33094 -0.38728,1.8e-4 -0.43056,-0.31392 -0.35547,-2.57969 0.0893,-2.695677 0.32843,-3.241347 1.42028,-3.241347 0.30707,0 0.47859,-0.19561 0.47859,-0.5458 0,-0.4105 -0.14374,-0.52528 -0.57988,-0.46302 -0.48127,0.0687 -0.66213,-0.1422 -1.06345,-1.24014 -0.26597,-0.7276 -0.42478,-1.56962 -0.35293,-1.87115 0.0932,-0.39132 -0.17033,-0.84211 -0.92093,-1.57505 -0.89378,-0.87275 -1.05156,-1.19254 -1.05156,-2.13135 0,-1.35036 -0.59217,-2.01346 -1.2292,-1.37643 -0.22489,0.22489 -0.41662,0.86951 -0.42607,1.43248 -0.0209,1.24346 -0.32451,1.68504 -1.15869,1.68504 -0.49584,0 -0.75924,0.27154 -1.21909,1.25677 -0.32263,0.69123 -0.60634,1.29398 -0.63046,1.33946 -0.0241,0.0455 -0.51702,-0.3811 -1.09532,-0.94795 -0.91485,-0.89674 -1.05467,-1.19097 -1.07622,-2.26482 -0.0276,-1.37395 -0.44489,-2.38016 -0.92192,-2.22291 -0.54656,0.18017 -0.99703,1.35364 -0.8659,2.25567 0.11737,0.80735 0.0314,0.93007 -1.16962,1.66905 -0.87458,0.53813 -1.59237,1.28169 -2.20637,2.28557 -1.03336,1.68955 -1.00797,1.82598 0.67753,3.64068 l 0.98304,1.0584 -0.77924,3.174937 c -0.92524,3.76979 -0.90151,3.50353 -0.3257,3.65401 0.34376,0.0898 0.30755,0.12891 -0.14059,0.15169 -0.33199,0.0169 -0.67215,-0.1479 -0.75591,-0.36618 -0.0838,-0.21828 -0.30642,-0.39688 -0.49479,-0.39688 -0.26124,0 -0.31031,-0.45504 -0.20684,-1.91823 0.16849,-2.38282 0.16566,-2.46478 -0.13165,-3.818217 -0.13366,-0.60844 -0.55816,-1.48078 -0.94334,-1.93853 -0.40065,-0.47615 -0.70031,-1.15656 -0.70031,-1.59012 0,-0.41681 -0.12428,-0.83464 -0.27618,-0.92852 -0.49716,-0.30726 -0.96124,0.36215 -0.83716,1.20758 0.0864,0.58888 -0.0422,0.98564 -0.46582,1.43654 -0.77421,0.82411 -1.0343,3.679377 -0.39909,4.381277 0.5398,0.59647 0.80994,3.67942 0.32752,3.73769 -0.18351,0.0222 -0.45271,0.0551 -0.59823,0.0731 -0.14552,0.0181 -0.41341,0.12602 -0.59531,0.2399 -0.18191,0.11388 -0.34384,0.17027 -0.35985,0.1253 z m 62.50362,-11.926277 c -0.26131,-0.25936 -0.2917,-0.22897 -0.14812,0.14811 0.0994,0.26094 0.24731,0.40779 0.32877,0.32632 0.0815,-0.0815 1.7e-4,-0.29495 -0.18065,-0.47443 z m -7.07563,-1.13381 c 0.0903,-0.23546 0.046,-0.34166 -0.10399,-0.24897 -0.14385,0.0889 -0.26155,0.27369 -0.26155,0.41062 0,0.38058 0.18965,0.29672 0.36554,-0.16165 z m 12.33446,-0.10293 c 0,-0.44356 -0.46925,-0.55339 -0.62543,-0.14639 -0.0921,0.24015 7.9e-4,0.39535 0.23686,0.39535 0.21371,0 0.38857,-0.11203 0.38857,-0.24896 z m 5.81678,-3.27238 c 0.002,-0.11773 -0.11501,-0.14047 -0.26053,-0.0505 -0.14552,0.0899 -0.26276,0.36485 -0.26053,0.61093 0.003,0.38557 0.0395,0.39255 0.26053,0.0505 0.14107,-0.21828 0.2583,-0.4932 0.26053,-0.61093 z m -51.32511,-0.82867 c 0,-0.0642 -0.11907,-0.19026 -0.26459,-0.2802 -0.14552,-0.0899 -0.26458,-0.0374 -0.26458,0.11668 0,0.15411 0.11906,0.2802 0.26458,0.2802 0.14552,0 0.26459,-0.0525 0.26459,-0.11668 z M 161.743,61.709503 c 0.32911,-0.41964 0.31975,-0.429 -0.0999,-0.0999 -0.25466,0.19972 -0.46302,0.40808 -0.46302,0.46302 0,0.21776 0.21728,0.0776 0.56292,-0.36313 z m -40.16997,41.089687 c 0.61252,-2.49753 0.97789,-3.079707 0.97789,-1.55818 0,0.59088 0.0617,1.65649 0.13712,2.36802 0.0908,0.85637 0.0593,1.11482 -0.0931,0.76453 -0.22541,-0.518 -0.23415,-0.51697 -0.41403,0.0488 -0.1062,0.33402 -0.38347,0.5629 -0.65696,0.54229 -0.45087,-0.034 -0.44855,-0.13621 0.0491,-2.16544 z m 6.12613,-1.22952 c 0.0426,-3.149597 0.33268,-4.207557 1.15356,-4.207557 0.38703,0 0.51159,0.41407 0.76452,2.54143 0.23842,2.005267 0.42753,2.674867 0.8964,3.173947 0.66172,0.70438 0.48276,1.1785 -0.26789,0.70971 -0.35617,-0.22243 -0.56094,-0.22398 -0.77904,-0.006 -0.40301,0.40302 -1.09496,0.47974 -1.09496,0.1214 0,-0.16046 -0.16052,-0.0722 -0.35671,0.19608 -0.30613,0.41867 -0.35092,0.0601 -0.31588,-2.52912 z m 4.65535,1.00747 c 0.30925,-1.69113 0.61495,-1.71074 0.86776,-0.0557 0.14876,0.97389 0.11328,1.05833 -0.44472,1.05833 -0.55771,0 -0.59167,-0.0805 -0.42304,-1.00267 z m 8.57407,0.5882 c -0.0959,-0.1552 -0.11766,-0.33893 -0.0483,-0.40829 0.0693,-0.0693 0.1966,0.0576 0.28277,0.28219 0.17891,0.46622 0.0264,0.54823 -0.23447,0.1261 z m 1.46609,-0.62446 c 0,-0.24543 0.22622,-0.41627 0.55121,-0.41627 0.6448,0 0.55366,0.61827 -0.11012,0.747 -0.26108,0.0506 -0.44109,-0.0843 -0.44109,-0.33073 z m -31.75,-1.21002 c 0,-0.14552 0.11906,-0.26459 0.26458,-0.26459 0.14552,0 0.26458,0.11907 0.26458,0.26459 0,0.14552 -0.11906,0.26458 -0.26458,0.26458 -0.14552,0 -0.26458,-0.11906 -0.26458,-0.26458 z m 53.18125,-2.132287 c 0,-0.1541 0.11906,-0.20661 0.26458,-0.11667 0.14552,0.0899 0.26458,0.21603 0.26458,0.2802 0,0.0642 -0.11906,0.11667 -0.26458,0.11667 -0.14552,0 -0.26458,-0.12609 -0.26458,-0.2802 z m 5.29166,0 c 0,-0.1541 0.11907,-0.20661 0.26459,-0.11667 0.14552,0.0899 0.26458,0.21603 0.26458,0.2802 0,0.0642 -0.11906,0.11667 -0.26458,0.11667 -0.14552,0 -0.26459,-0.12609 -0.26459,-0.2802 z m -3.43958,-0.51355 c 0,-0.14552 0.17859,-0.26458 0.39688,-0.26458 0.21828,0 0.39687,0.11906 0.39687,0.26458 0,0.14552 -0.17859,0.26459 -0.39687,0.26459 -0.21829,0 -0.39688,-0.11907 -0.39688,-0.26459 z m 5.57714,-0.41892 c 0.0127,-0.30823 0.0754,-0.37092 0.15985,-0.15985 0.0764,0.19099 0.067,0.4192 -0.0209,0.50712 -0.0879,0.0879 -0.15045,-0.0684 -0.13896,-0.34727 z m -2.53443,-0.37483 c -0.0899,-0.14552 -0.0374,-0.26458 0.11667,-0.26458 0.15411,0 0.2802,0.11906 0.2802,0.26458 0,0.14552 -0.0525,0.26459 -0.11667,0.26459 -0.0642,0 -0.19026,-0.11907 -0.2802,-0.26459 z m 3.11407,-0.28291 c -0.0212,-0.28096 0.0732,-0.51084 0.20966,-0.51084 0.3012,0 0.33186,0.71079 0.0385,0.8921 -0.11531,0.0713 -0.22697,-0.1003 -0.24814,-0.38126 z m -0.57964,-0.92976 c 0.0127,-0.30823 0.0754,-0.37092 0.15985,-0.15985 0.0764,0.19099 0.067,0.4192 -0.0209,0.50712 -0.0879,0.0879 -0.15045,-0.0684 -0.13896,-0.34727 z m -36.53339,-0.25815 c 0,-0.22687 0.11906,-0.33891 0.26458,-0.24897 0.14552,0.0899 0.26459,0.27556 0.26459,0.41249 0,0.13693 -0.11907,0.24897 -0.26459,0.24897 -0.14552,0 -0.26458,-0.18562 -0.26458,-0.41249 z m 46.94034,-0.84428 c 0.1027,-0.1819 0.0805,-0.33073 -0.0494,-0.33073 -0.12985,0 -0.2361,-0.18426 -0.2361,-0.40947 0,-0.36876 0.0405,-0.36895 0.40759,-0.002 0.34184,0.34185 0.3498,0.46124 0.0494,0.74021 -0.28324,0.26301 -0.31913,0.26341 -0.17148,0.002 z m -1.53617,-0.74971 c -0.0989,-0.25768 -0.0397,-0.37864 0.15359,-0.3142 0.39551,0.13184 0.61328,0.73318 0.26551,0.73318 -0.14208,0 -0.33067,-0.18854 -0.4191,-0.41898 z m 5.65916,-0.17248 c -0.32181,-0.34542 -0.431,-0.63147 -0.26248,-0.68764 0.24064,-0.0802 1.32207,0.89096 1.32207,1.18729 0,0.28636 -0.58376,0.0111 -1.05959,-0.49965 z m 5.9827,-0.88536 c -0.21214,-0.55282 0.34708,-1.29632 0.70546,-0.93794 0.16161,0.16161 0.11046,0.45772 -0.14111,0.81689 -0.34957,0.49908 -0.41399,0.5129 -0.56435,0.12105 z m -44.01542,-1.13845 c -1.11759,-1.02158 -1.12436,-1.03891 -1.12436,-2.87802 0,-1.26024 0.11773,-1.94796 0.3692,-2.15666 0.20306,-0.16852 0.44493,-0.74864 0.53749,-1.28916 0.40863,-2.38616 1.83446,-4.13634 1.6961,-2.08194 -0.0386,0.57314 0.139,1.1377 0.50378,1.60144 l 0.56339,0.71624 -0.61417,1.6397 c -0.52473,1.40095 -0.58817,1.91903 -0.43567,3.55794 0.11771,1.26512 0.0849,1.91823 -0.0965,1.91823 -0.15121,0 -0.7809,-0.46249 -1.3993,-1.02777 z m 45.62589,0.85857 c -0.21139,-0.21138 0.0276,-0.62455 0.3612,-0.62455 0.13693,0 0.24897,0.17859 0.24897,0.39687 0,0.40916 -0.3122,0.52565 -0.61017,0.22768 z m -4.81129,-0.7053 c -0.11144,-0.2627 -0.0895,-0.73119 0.0488,-1.0411 0.33251,-0.74517 0.59656,-0.0747 0.33761,0.85727 -0.1617,0.58199 -0.20812,0.60407 -0.38641,0.18383 z m 6.47979,-1.23386 c 0,-0.35816 0.12608,-0.47248 0.40363,-0.36598 0.31125,0.11944 0.33411,0.23865 0.0999,0.52086 -0.40778,0.49135 -0.50352,0.4619 -0.50352,-0.15488 z m -28.0222,-19.25674 c -1.1059,-1.02068 -1.45419,-1.2987 -2.5937,-2.07043 -0.97065,-0.65737 -1.45373,-1.35799 -1.21767,-1.76603 0.20669,-0.35727 1.86302,-0.20789 2.20024,0.19843 0.18115,0.21829 0.48675,0.39688 0.6791,0.39688 0.7456,0 1.7274,1.21502 2.08451,2.57969 0.43386,1.65798 0.12151,1.83726 -1.15248,0.66146 z m -6.10905,-3.0991 c -0.56,-0.31186 -0.59387,-0.39462 -0.22079,-0.53952 0.76765,-0.29816 1.92989,-0.0319 2.02386,0.46362 0.10911,0.57528 -0.83498,0.61503 -1.80307,0.0759 z"
       id="path7208"
       sodipodi:nodetypes="cccssscccssscssssssssssssssssssssssssscssssccsssssssssssssssssssssssssssssssssssssssssscsssssssssssssssssssssssssssssssssssssssscsscsssscssssssssssscssscsssssssssssscssssscscscssssssssssssssssssssssssscssssscsscssssssssssssssscssssssssscssscsssssssssssssssssssssssssssssssssssscsssssssssssssssssssssssssscsssssssscscssssssssssssssssssscssscssssssssssssssssssscsssssscsssscssssssssssssssssssssssssssssssssssscscccssssssssssssssssssssssssssscssssssssssssssssccsssssssssssscscscsssssssssssssssssscsssscssccssssssssssssssssssssssssssssssssssssssssssssssssssssssssssssssssssssssssssssssssssscsssssssssssssssssssssssssssss" />
  </g>
</svg>
