<?xml version="1.0" encoding="UTF-8" standalone="no"?>
<!-- Created with Inkscape (http://www.inkscape.org/) -->

<svg
   width="210mm"
   height="297mm"
   viewBox="0 0 210 297"
   version="1.1"
   id="svg1116"
   inkscape:version="1.1.2 (0a00cf5339, 2022-02-04)"
   sodipodi:docname="pad_start.svg"
   xmlns:inkscape="http://www.inkscape.org/namespaces/inkscape"
   xmlns:sodipodi="http://sodipodi.sourceforge.net/DTD/sodipodi-0.dtd"
   xmlns="http://www.w3.org/2000/svg"
   xmlns:svg="http://www.w3.org/2000/svg">
  <sodipodi:namedview
     id="namedview1118"
     pagecolor="#ffffff"
     bordercolor="#666666"
     borderopacity="1.0"
     inkscape:pageshadow="2"
     inkscape:pageopacity="0.0"
     inkscape:pagecheckerboard="0"
     inkscape:document-units="mm"
     showgrid="false"
     inkscape:zoom="1.9552971"
     inkscape:cx="260.3185"
     inkscape:cy="172.86376"
     inkscape:window-width="1920"
     inkscape:window-height="1011"
     inkscape:window-x="0"
     inkscape:window-y="0"
     inkscape:window-maximized="1"
     inkscape:current-layer="layer1" />
  <defs
     id="defs1113" />
  <g
     inkscape:label="Calque 1"
     inkscape:groupmode="layer"
     id="layer1"
     style="display:inline">
    <path
       style="fill:#000000;stroke-width:0.177008"
       d="m 73.91287,39.800509 c 0.4424,-0.17692 6.44557,-4.64116 7.33327,-5.4534 1.7614,-1.61174 1.5763,-4.58634 -0.36932,-5.93502 -0.85836,-0.59505 -2.41981,-0.81106 -3.43386,-0.47514 -0.77844,0.25793 -7.54627,5.60081 -8.05759,6.36113 -0.78623,1.16916 -0.72319,2.78442 0.16077,4.11864 0.79534,1.20052 3.04326,1.91288 4.36673,1.38379 z m -2.75681,-0.66443 c -0.11305,-0.0639 -0.54146,-0.49821 -0.95202,-0.96549 -0.92804,-1.05615 -1.09423,-1.97383 -0.57151,-3.15549 0.29057,-0.65693 0.88152,-1.20745 3.65831,-3.4081 1.82149,-1.44358 3.56613,-2.75154 3.87697,-2.9066 0.76785,-0.38307 2.60776,-0.31116 3.33361,0.13027 0.60291,0.36663 1.1833,1.21705 1.42538,2.08851 0.18809,0.6771 -0.0802,1.84555 -0.5873,2.55771 -0.48463,0.6806 -7.06491,5.57299 -7.78491,5.78805 -0.5881,0.17565 -1.99237,0.1 -2.39853,-0.12886 z"
       id="path1374"
       sodipodi:nodetypes="cccccccccccccsssc" />
  </g>
</svg>
