<?xml version="1.0" encoding="UTF-8" standalone="no"?>
<!-- Created with Inkscape (http://www.inkscape.org/) -->

<svg
   width="210mm"
   height="297mm"
   viewBox="0 0 210 297"
   version="1.1"
   id="svg1116"
   inkscape:version="1.1.2 (0a00cf5339, 2022-02-04)"
   sodipodi:docname="pad_border.svg"
   xmlns:inkscape="http://www.inkscape.org/namespaces/inkscape"
   xmlns:sodipodi="http://sodipodi.sourceforge.net/DTD/sodipodi-0.dtd"
   xmlns="http://www.w3.org/2000/svg"
   xmlns:svg="http://www.w3.org/2000/svg">
  <sodipodi:namedview
     id="namedview1118"
     pagecolor="#ffffff"
     bordercolor="#666666"
     borderopacity="1.0"
     inkscape:pageshadow="2"
     inkscape:pageopacity="0.0"
     inkscape:pagecheckerboard="0"
     inkscape:document-units="mm"
     showgrid="false"
     inkscape:zoom="0.24441214"
     inkscape:cx="713.958"
     inkscape:cy="822.38142"
     inkscape:window-width="1920"
     inkscape:window-height="1011"
     inkscape:window-x="0"
     inkscape:window-y="0"
     inkscape:window-maximized="1"
     inkscape:current-layer="layer2" />
  <defs
     id="defs1113" />
  <g
     inkscape:groupmode="layer"
     id="layer2"
     inkscape:label="Calque 1"
     style="display:inline">
    <path
       style="fill:none;stroke:#000000;stroke-width:0.177003;stroke-opacity:1"
       d="m 29.587888,72.718503 c 0.54709,-0.13278 2.67233,-0.72319 4.72276,-1.31202 3.57656,-1.027106 8.19753,-2.196716 12.336817,-3.122556 4.12815,-0.92336 14.2944,-2.76549 17.08076,-3.09506 1.6063,-0.18999 3.358629,-0.42177 3.894059,-0.51507 1.4249,-0.24829 3.84979,-0.46577 11.84674,-1.06252 6.19497,-0.46228 8.08145,-0.53401 14.0451,-0.53401 3.78891,0 8.215146,0.0798 9.836086,0.17737 2.89067,0.17396 11.29338,0.64661 14.8253,0.83392 2.0483,0.10863 2.87858,-0.0846 3.4503,-0.80285 0.348,-0.43721 0.36857,-0.6112 0.26548,-2.24504 -0.10199,-1.61629 -0.0767,-1.83973 0.28929,-2.55618 0.22058,-0.43179 0.60707,-0.93496 0.85888,-1.11815 0.51891,-0.37752 1.68951,-0.58333 2.36028,-0.41497 0.79848,0.2004 1.6277,1.10404 2.05045,2.23447 0.837,2.23812 2.06294,2.49099 4.61986,0.95294 1.64697,-0.99069 3.54433,-2.67251 4.64995,-4.12169 0.95512,-1.25191 3.87543,-5.79479 4.43075,-6.89254 1.18827,-2.34895 1.77111,-5.71203 1.61575,-9.32313 -0.20983,-4.87745 -0.51517,-6.4915 -2.06988,-10.94181 -2.02773,-5.80431 -3.7005,-9.27664 -8.3929,-17.42194 -0.77364,-1.34293 -3.97946,-5.17826 -4.32833,-5.17826 -0.0829,0 -0.52009,0.31974 -0.97162,0.71054 -1.44918,1.25425 -2.30382,1.4977 -3.50133,0.99735 -1.62076,-0.6772 -2.20802,-2.46668 -1.31736,-4.01423 0.60566,-1.05236 0.37334,-1.45382 -1.2268,-2.11996 -3.04793,-1.26884995 -6.66008,-1.86428995 -10.46237,-1.72464995 -2.03473,0.0747 -2.82506,0.19284 -4.87414,0.72844 C 103.09969,1.496127 97.659914,3.448427 95.942724,4.310647 c -0.53543,0.26884 -1.25229,0.54123 -1.59302,0.60532 -0.34073,0.0641 -1.3762,0.34953 -2.30104,0.63435 -1.82356,0.56157 -8.83263,2.06345 -12.39019,2.65492 -2.87397,0.47781 -3.89406,0.80658 -3.89406,1.25501 0,0.18719 0.17103,2.19199 0.38006,4.45509 0.47411,5.13302 0.48826,6.07649 0.10195,6.80008 -0.87849,1.6455 -3.15943,1.97106 -4.48968,0.64082 l -0.63938,-0.63939 -4.720439,0.47518 c -2.59624,0.26135 -4.99557,0.54973 -5.33184,0.64085 -1.34731,0.36506 -6.05485,0.85975 -6.45342,0.67815 -0.26635,-0.12135 -0.78644,-0.11954 -1.61216,0.006 -0.67043,0.10163 -2.33408,0.28 -3.697,0.39636 -2.87223,0.24523 -3.61244,0.12178 -4.63076,-0.77232 -1.09278,-0.95947 -1.05125,-0.76255 -1.83402,-8.69688 -0.191227,-1.93832 -0.384667,-3.56122 -0.429877,-3.60642 -0.0452,-0.0452 -0.62316,-0.0767 -1.28434,-0.07 -1.61755,0.0165 -5.18316,-0.44144 -6.60073,-0.84772 -0.63278,-0.18135 -2.14615,-0.45429 -3.36305,-0.60651 -5.22109,-0.65314 -10.84203,0.5366 -15.43964,3.26799 -2.25836,1.34167 -2.48473,1.82154 -1.55262,3.29132 0.87963,1.38705 0.67789,2.61417 -0.61663,3.75078 -0.87658,0.76965 -1.97386,0.77877 -3.16042,0.0263 -1.1118401,-0.7051 -1.5416901,-0.68099 -2.2504601,0.12627 -0.67851,0.77278 -2.30374,4.06338 -2.7654,5.59911 -0.1775,0.59047 -0.78258,2.43118 -1.34463,4.09046 -1.76964,5.22439 -2.3591,7.49649 -3.12462999,12.044 -0.71563,4.25115 -0.95223,6.95553 -0.74327,8.49613 0.18199,1.34175 0.429,3.59094 0.63242,5.75864 0.18153,1.9344 1.70202999,5.49904 3.33489999,7.81831 0.41001,0.58235 0.96124,1.38082 1.22496,1.77436 0.26371,0.39355 0.73022,0.86802 1.03668,1.05439 0.30646,0.18638 0.75505,0.57399 0.99685,0.86135 1.17981,1.40212 5.5414701,4.40059 7.4636501,5.130956 1.31394,0.49925 2.34603,0.59376 3.08993,0.28295 0.69159,-0.28897 0.82962,-0.516516 1.25645,-2.071266 0.67837,-2.47107 2.44998,-3.44983 4.29124,-2.37078 1.08419,0.63538 1.47552,1.47956 1.47552,3.183 0,0.74041 0.082,1.499446 0.18225,1.686736 0.46,0.85952 2.33707,1.11494 4.44101,0.6043 z"
       id="path825"
       sodipodi:nodetypes="csssssscsssssssssssssssssssssssssssscscscsssscscsssssscssssssssssssccc" />
  </g>
</svg>
