<?xml version="1.0" encoding="UTF-8" standalone="no"?>
<!-- Created with Inkscape (http://www.inkscape.org/) -->

<svg
   width="210mm"
   height="297mm"
   viewBox="0 0 210 297"
   version="1.1"
   id="svg5"
   sodipodi:docname="pad_start_board.svg"
   inkscape:version="1.1.2 (0a00cf5339, 2022-02-04)"
   xmlns:inkscape="http://www.inkscape.org/namespaces/inkscape"
   xmlns:sodipodi="http://sodipodi.sourceforge.net/DTD/sodipodi-0.dtd"
   xmlns="http://www.w3.org/2000/svg"
   xmlns:svg="http://www.w3.org/2000/svg">
  <sodipodi:namedview
     id="namedview7"
     pagecolor="#ffffff"
     bordercolor="#666666"
     borderopacity="1.0"
     inkscape:pageshadow="2"
     inkscape:pageopacity="0.0"
     inkscape:pagecheckerboard="0"
     inkscape:document-units="mm"
     showgrid="false"
     inkscape:zoom="5.9004522"
     inkscape:cx="9.0671017"
     inkscape:cy="-0.84739269"
     inkscape:window-width="1500"
     inkscape:window-height="931"
     inkscape:window-x="0"
     inkscape:window-y="0"
     inkscape:window-maximized="1"
     inkscape:current-layer="g5726" />
  <defs
     id="defs2" />
  <g
     inkscape:groupmode="layer"
     id="layer3"
     inkscape:label="front"
     style="display:inline">
    <path
       style="display:inline;fill:#000000;stroke-width:0.0144327"
       d="m 3.5576508,14.478253 c -0.034032,-0.01445 -0.075612,-0.02418 -0.092399,-0.02162 -0.016787,0.0026 -0.060236,-9.72e-4 -0.096553,-0.0078 -0.036317,-0.0069 -0.1049983,-0.01613 -0.1526263,-0.02059 -0.047628,-0.0045 -0.093091,-0.0134 -0.1010291,-0.01987 -0.00794,-0.0065 -0.07938,-0.01993 -0.15876,-0.02991 -0.07938,-0.01 -0.152509,-0.02443 -0.1625088,-0.03213 -0.01,-0.0077 -0.068452,-0.02644 -0.1298946,-0.04165 -0.1807009,-0.04472 -0.1949412,-0.04944 -0.2690145,-0.0893 -0.038888,-0.02093 -0.07948,-0.03805 -0.090205,-0.03805 -0.010724,0 -0.032324,-0.01283 -0.047998,-0.0285 -0.015674,-0.01567 -0.046524,-0.03218 -0.068555,-0.03668 -0.022032,-0.0045 -0.066036,-0.02022 -0.097788,-0.03495 -0.031752,-0.01473 -0.067473,-0.03056 -0.07938,-0.03518 -0.011907,-0.0046 -0.047628,-0.02437 -0.07938,-0.04388 -0.031752,-0.0195 -0.08371,-0.04935 -0.1154619,-0.06631 -0.031752,-0.01697 -0.064248,-0.03917 -0.072212,-0.04933 -0.00796,-0.01016 -0.040438,-0.03264 -0.072164,-0.04995 -0.1622378,-0.08852 -0.318853,-0.205847 -0.3326,-0.24916 -0.00466,-0.01467 -0.01669,-0.02667 -0.02674,-0.02667 -0.010051,0 -0.046415,-0.02598 -0.080809,-0.05773 -0.034394,-0.03175 -0.067723,-0.05773 -0.074066,-0.05773 -0.016902,0 -0.20015607,-0.185143 -0.20015607,-0.20222 0,-0.008 -0.0166647,-0.03322 -0.0370322,-0.05608 -0.0336342,-0.03775 -0.0664049,-0.08839 -0.10836104,-0.167462 -0.008424,-0.01588 -0.0436839,-0.05041 -0.0783549,-0.07674 -0.042221,-0.03206 -0.0663289,-0.06305 -0.0730021,-0.09381 -0.00548,-0.02527 -0.0144469,-0.04919 -0.0199279,-0.05315 -0.00548,-0.004 -0.03175,-0.04618 -0.058377,-0.09381 -0.026627,-0.04763 -0.0659694,-0.109328 -0.0874276,-0.137111 -0.0214582,-0.02778 -0.043611,-0.07168 -0.0492283,-0.09754 -0.005617,-0.02586 -0.0226751,-0.05369 -0.0379057,-0.06185 -0.0172148,-0.0092 -0.0276924,-0.03017 -0.0276924,-0.05537 0,-0.0223 -0.012761,-0.0521 -0.0283581,-0.06622 -0.0155976,-0.01412 -0.038263,-0.05974 -0.0503689,-0.101378 -0.0121064,-0.04164 -0.0318184,-0.08385 -0.0438055,-0.0938 -0.0128173,-0.01064 -0.0219839,-0.04262 -0.0222537,-0.07766 -2.557e-4,-0.03276 -0.009994,-0.07218 -0.0216491,-0.08759 -0.0116547,-0.01541 -0.0211902,-0.04263 -0.0211902,-0.06049 0,-0.01786 -0.006495,-0.03649 -0.0144333,-0.04139 -0.007939,-0.0049 -0.0144333,-0.03697 -0.0144333,-0.07125 0,-0.03657 -0.008568,-0.06944 -0.0207306,-0.07953 -0.0116445,-0.0097 -0.0204004,-0.04112 -0.0199777,-0.07176 4.0912e-4,-0.03 -0.006495,-0.06809 -0.0153504,-0.08464 -0.0088574,-0.01655 -0.01633569,-0.05487 -0.01661866,-0.08516 -2.8979e-4,-0.03029 -0.01045975,-0.09404 -0.02261512,-0.141668 -0.01215588,-0.04763 -0.02135572,-0.120119 -0.02044493,-0.16109 9.0347e-4,-0.04097 -0.0051498,-0.0787 -0.01346676,-0.08384 -0.008317,-0.0051 -0.01512197,-0.02802 -0.01512197,-0.05085 0,-0.02283 -0.0060686,-0.05747 -0.01348722,-0.07698 -0.00908921,-0.0239 -0.00739138,-0.05598 0.00520431,-0.09836 0.01027905,-0.03459 0.01607317,-0.07588 0.01287354,-0.09175 -0.01009837,-0.05011 -0.0092273,-0.128313 0.0019263,-0.173193 0.01308663,-0.05265 0.01304912,-0.04089 8.8642e-4,-0.288655 C 0.01619716,10.046275 0.01604885,9.9953471 0.02545001,9.8547038 0.03752407,9.6741465 0.03771158,9.6517656 0.02740525,9.6194654 0.02063266,9.5982376 0.02471872,9.5742279 0.03874972,9.5528145 0.05840317,9.5228195 0.05835646,9.5160264 0.03830651,9.4873932 0.02003007,9.4612996 0.01848105,9.4404448 0.02985825,9.3736349 0.03752066,9.3286407 0.0415658,9.2268803 0.03884859,9.1475002 c -0.0027172,-0.07938 -0.004635,-0.1508221 -0.0042599,-0.15876 3.7502e-4,-0.00794 0.0030991,-0.071009 0.0060566,-0.1401579 0.0029576,-0.069149 0.01149789,-0.1366641 0.01898097,-0.150034 0.0088625,-0.015836 0.0072414,-0.048426 -0.0046486,-0.093504 C 0.04493897,8.5669866 0.0398216,8.532751 0.04360764,8.5289653 0.04739367,8.5251793 0.04891763,8.4582171 0.04699649,8.38016 0.04507534,8.3021031 0.04468157,8.1851318 0.04612711,8.1202239 0.04771244,8.0486766 0.04262746,7.9984265 0.03320243,7.9926012 0.02271029,7.9861167 0.02554002,7.9709585 0.0419081,7.9459789 0.06049819,7.9176068 0.06420291,7.8901195 0.05777671,7.8282453 0.05316563,7.7838495 0.05527769,7.7215465 0.06246962,7.6897946 0.07242991,7.6458215 0.07045251,7.6242897 0.05417308,7.5994429 0.0387221,7.5758593 0.0368059,7.5593373 0.047259,7.5398046 0.06160366,7.5130004 0.06871854,6.8476551 0.05699769,6.628989 0.05265934,6.5480572 0.05696871,6.5108792 0.07405052,6.4816511 0.09225639,6.4505113 0.09352533,6.4358314 0.08028955,6.4094875 0.05697229,6.3630793 0.05506563,6.3413072 0.06854449,6.275387 0.07939461,6.2223244 0.09118314,5.8118153 0.09030337,5.5176687 c -0.001108,-0.3675804 8.1823e-4,-0.4791328 0.0099586,-0.577309 0.005538,-0.059535 0.00866,-0.166698 0.006935,-0.23814 -0.006534,-0.2706461 -0.002247,-0.4556386 0.0111143,-0.4795138 0.009541,-0.017047 0.007275,-0.037445 -0.007282,-0.065597 -0.01162135,-0.022472 -0.0177956,-0.051899 -0.01372148,-0.065393 0.01378041,-0.045648 0.02394884,-0.2401608 0.0212756,-0.4070033 -0.001466,-0.091287 -0.0018,-0.1789659 -7.5005e-4,-0.1948419 0.001897,-0.028674 0.002661,-0.2936108 0.001159,-0.4041165 -0.001568,-0.1157538 0.004534,-0.2200429 0.01361,-0.2325484 0.0285483,-0.039342 0.0568054,-0.049831 0.077769,-0.028867 0.011561,0.011559 0.0333561,0.02315 0.0484353,0.025755 0.0452636,0.00782 0.031802,-0.03637 -0.0187781,-0.061643 -0.0299787,-0.014979 -0.0412598,-0.028017 -0.0321358,-0.037141 0.007732,-0.00773 0.0166408,-0.02746 0.0197941,-0.043838 0.003154,-0.016378 0.0122547,-0.04188 0.0202244,-0.056671 0.0265614,-0.049298 0.0564286,-0.1414264 0.074224,-0.2289508 0.009684,-0.047628 0.0391022,-0.1223174 0.0653748,-0.1659764 0.0262728,-0.043659 0.0585951,-0.1086064 0.0718273,-0.1443274 0.0132332,-0.035721 0.0325948,-0.081184 0.043028,-0.101029 0.0104325,-0.019845 0.0488272,-0.093325 0.0853208,-0.1632889 0.0364934,-0.069964 0.0770456,-0.1379009 0.0901158,-0.1509711 0.0130713,-0.013071 0.0327539,-0.045279 0.0437411,-0.071576 0.0109882,-0.026296 0.0311929,-0.059675 0.0449016,-0.074175 0.0137088,-0.0145 0.0363814,-0.04051 0.0503841,-0.0578 0.0140037,-0.01729 0.043647,-0.035073 0.0658756,-0.039519 0.0515838,-0.010317 0.0740766,-0.047027 0.0849222,-0.1386021 0.008204,-0.069267 0.076267,-0.1700661 0.11480206,-0.1700168 0.00662,8.5e-6 0.073728,-0.064223 0.1491387,-0.1427379 0.075411,-0.0785142 0.1598424,-0.15229144 0.1876255,-0.16394948 0.027783,-0.0116579 0.079394,-0.0485403 0.1146903,-0.081961 0.035297,-0.0334206 0.087027,-0.0703126 0.114956,-0.0819821 0.027929,-0.0116696 0.054255,-0.0261798 0.058502,-0.0322451 0.017622,-0.0251622 0.1130872,-0.0888818 0.1331652,-0.0888818 0.011928,0 0.03666,-0.012986 0.05496,-0.028858 0.018301,-0.0158719 0.066381,-0.0448746 0.1068457,-0.0644504 0.040465,-0.0195758 0.095538,-0.0552809 0.1223852,-0.0793446 0.026847,-0.0240637 0.075558,-0.0507002 0.1082455,-0.0591923 0.079543,-0.0206642 0.1588036,-0.0476695 0.1676801,-0.0571307 0.021422,-0.0228328 0.1327594,-0.060027 0.1590811,-0.0531437 0.021141,0.005529 0.040109,-0.002914 0.061298,-0.0272837 0.016876,-0.0194092 0.062709,-0.0447999 0.1018504,-0.0564237 0.039142,-0.0116239 0.07845,-0.0265832 0.087351,-0.03324309 0.023937,-0.01790934 0.2068808,-0.05034115 0.2240636,-0.03972155 0.00813,0.0050265 0.052366,-1.6525e-4 0.098296,-0.01153726 0.096196,-0.02381742 0.086568,-0.02256421 0.2567016,-0.03341395 0.1907177,-0.01216236 0.2673326,-0.01211514 0.4834964,2.9832e-4 0.1071629,0.00615379 0.224068,0.00567581 0.259789,-0.001062 0.059126,-0.01115304 0.1218167,-0.00430425 0.3030873,0.03311119 0.019845,0.0040961 0.058813,0.01132674 0.086596,0.01606806 0.027783,0.0047413 0.057009,0.01360348 0.064947,0.01969381 0.00794,0.0060902 0.033917,0.01457836 0.057731,0.01886235 0.054146,0.0097404 0.1680872,0.0456415 0.2039108,0.06424888 0.1154685,0.0599764 0.1966919,0.0899334 0.2614507,0.0964289 0.048578,0.004873 0.1008325,0.0230683 0.1459236,0.0508132 0.038635,0.0237723 0.077775,0.0432225 0.086977,0.0432225 0.0092,0 0.042452,0.0162368 0.073889,0.0360818 0.031437,0.019845 0.064503,0.0360818 0.073481,0.0360818 0.020447,0 0.2574576,0.14100605 0.2890352,0.17195788 0.012841,0.0125861 0.044145,0.0391208 0.069566,0.0589658 0.02542,0.019845 0.057556,0.0462496 0.071412,0.0586769 0.013855,0.0124273 0.065359,0.0469949 0.1144516,0.0768168 0.049092,0.0298219 0.089258,0.0598085 0.089258,0.0666369 0,0.006828 0.01218,0.0162805 0.027064,0.021005 0.02872,0.009115 0.07703,0.0537938 0.2009331,0.18582304 0.04205,0.044808 0.088833,0.088094 0.1039633,0.096191 0.015137,0.0081 0.051586,0.050996 0.081014,0.09533 0.029427,0.044334 0.088183,0.1152862 0.1305679,0.1576715 0.042386,0.042385 0.077066,0.082826 0.077066,0.089867 0,0.00704 0.019304,0.038315 0.042896,0.069497 0.023594,0.031181 0.043078,0.064812 0.043298,0.074735 1.706e-4,0.00992 0.0069,0.018041 0.01483,0.018041 0.00794,0 0.014438,0.00812 0.014456,0.018041 1.02e-5,0.00992 0.014626,0.035593 0.032474,0.057046 0.068444,0.082253 0.084449,0.1064458 0.093074,0.1406816 0.00489,0.019448 0.027361,0.070441 0.049916,0.1133192 0.022556,0.042878 0.041011,0.087043 0.041011,0.098143 0,0.011101 0.00632,0.020183 0.014063,0.020183 0.020215,0 0.058661,0.079842 0.045876,0.095274 -0.022048,0.026612 -0.062806,0.1989937 -0.062787,0.2655444 1.7e-6,0.00397 -0.00539,0.01728 -0.011967,0.02958 -0.028306,0.052892 -0.03305,0.1899148 -0.00639,0.1846522 0.021596,-0.00426 0.083196,-0.2221357 0.096217,-0.3403091 0.00694,-0.0629 0.082977,-0.027029 0.0837,0.039481 1.704e-4,0.019845 0.010398,0.071803 0.022631,0.1154618 0.012222,0.043659 0.025343,0.098864 0.029139,0.1226783 0.014507,0.091046 0.039321,0.1890385 0.05663,0.2237072 0.042996,0.08612 0.053448,0.1782053 0.059791,0.5267947 0.00361,0.19845 0.00726,0.3867971 0.00811,0.4185491 8.523e-4,0.031752 -0.00341,0.091828 -0.00946,0.1335028 -0.0076,0.052277 -0.00609,0.075772 0.00491,0.075772 0.019593,0 0.02126,0.067161 0.00196,0.079088 -0.00767,0.00475 -0.011183,0.026236 -0.00779,0.047758 0.00687,0.043569 0.025679,0.3259436 0.024723,0.3710833 -3.41e-4,0.015875 -5.114e-4,0.080823 -5.114e-4,0.1443272 5.79e-5,0.063504 -5.114e-4,0.1414409 -0.00136,0.1731927 -0.00153,0.063577 -0.00539,0.7246798 -0.00455,0.7938002 0.00261,0.2142197 0.00355,0.5319558 0.00172,0.5845255 -0.00119,0.035721 -8.523e-4,0.1363893 6.819e-4,0.2237073 0.0032,0.1749259 0.00303,0.2362722 -8.523e-4,0.2850465 -0.00136,0.017861 -0.00102,0.097421 0.00102,0.1768008 0.00194,0.07938 0.00305,0.2547377 0.00245,0.3896837 -6.819e-4,0.1349461 0.00189,0.3005617 0.00551,0.3680346 0.00839,0.1561005 0.00799,0.1270367 0.00557,0.4017047 -0.00172,0.1962724 0.0017,0.2394979 0.020454,0.2582505 0.020113,0.020113 0.020204,0.026062 8.524e-4,0.055616 -0.031163,0.047561 -0.038581,0.93123 -0.00818,0.9746311 0.015478,0.022089 0.016143,0.03316 0.00298,0.049026 -0.011251,0.013566 -0.016211,0.078002 -0.014643,0.1906136 0.00136,0.093566 5.114e-4,0.1896041 -0.00174,0.2134181 -0.00651,0.068789 -0.00445,0.2218894 0.00759,0.5628764 0.00617,0.174636 0.010057,0.340252 0.00864,0.368035 -0.00457,0.08988 -0.00477,0.165149 -5.114e-4,0.202058 0.00228,0.01985 -1.704e-4,0.06031 -0.00561,0.08992 -0.00535,0.02961 -0.011609,0.12703 -0.013893,0.216491 -0.00332,0.130393 -0.011506,0.183548 -0.041247,0.267984 -0.026729,0.0759 -0.0339,0.116468 -0.025662,0.145191 0.0077,0.02689 0.00498,0.0487 -0.00842,0.06701 -0.010927,0.01493 -0.01988,0.04053 -0.019909,0.05687 -2.9e-5,0.01634 -0.012989,0.05094 -0.028816,0.07689 -0.015819,0.02595 -0.032871,0.08115 -0.037896,0.122678 -0.013296,0.109952 -0.013279,0.109849 -0.024225,0.120791 -0.00552,0.0055 -0.01004,0.01862 -0.01004,0.0291 0,0.01049 -0.043138,0.09174 -0.095863,0.180561 -0.052723,0.08882 -0.1118099,0.200745 -0.1313027,0.248715 -0.019491,0.04797 -0.044548,0.100222 -0.055681,0.116116 -0.011131,0.01589 -0.020413,0.03882 -0.020626,0.05094 -1.705e-4,0.01212 -0.026473,0.05052 -0.058357,0.08531 -0.031884,0.0348 -0.067598,0.08188 -0.079365,0.104637 -0.011762,0.02275 -0.02632,0.04137 -0.032342,0.04137 -0.00602,0 -0.022991,0.02038 -0.037705,0.04529 -0.014711,0.02491 -0.037223,0.05649 -0.050018,0.07017 -0.012802,0.01368 -0.05341,0.05987 -0.090255,0.102644 -0.112144,0.130178 -0.449383,0.468155 -0.5031024,0.504204 -0.027783,0.01864 -0.082877,0.06184 -0.1224302,0.09599 -0.039554,0.03415 -0.077592,0.06209 -0.08453,0.06209 -0.00694,0 -0.045242,0.02598 -0.085121,0.05773 -0.039879,0.03175 -0.078282,0.05773 -0.085341,0.05773 -0.00706,0 -0.038144,0.01598 -0.069079,0.03551 -0.030935,0.01953 -0.074035,0.03997 -0.095779,0.04543 -0.021744,0.0055 -0.08205,0.03169 -0.1340148,0.05831 -0.051964,0.02661 -0.101934,0.04838 -0.1110434,0.04838 -0.00911,0 -0.042133,0.01852 -0.073386,0.04116 -0.086532,0.06268 -0.2316942,0.122977 -0.4093543,0.170027 -0.043659,0.01156 -0.089122,0.02509 -0.101029,0.03006 -0.011907,0.005 -0.041133,0.01061 -0.064947,0.01254 -0.023814,0.0019 -0.1082455,0.01776 -0.1876255,0.03519 -0.07938,0.01743 -0.2027799,0.03414 -0.274222,0.03714 -0.071442,0.003 -0.1721103,0.01502 -0.2237072,0.02672 -0.1516606,0.03438 -0.3284386,0.03695 -0.4017071,0.0058 z m 0.6522824,-0.37782 c 0.018142,-0.02118 0.044579,-0.03186 0.0814,-0.03287 0.031975,-8.86e-4 0.074065,-0.0154 0.1017543,-0.03512 0.036893,-0.02627 0.067575,-0.03396 0.1402667,-0.03514 0.090358,-0.0015 0.1190572,-0.01569 0.1363429,-0.06755 0.0059,-0.01769 0.060771,-0.02804 0.1737756,-0.03276 0.062589,-0.0026 0.1065406,-0.01207 0.1226782,-0.02639 0.013832,-0.01227 0.057621,-0.03722 0.097311,-0.05543 0.03969,-0.01821 0.094895,-0.04762 0.1226783,-0.06534 0.027783,-0.01772 0.077269,-0.03923 0.1099694,-0.04778 0.049913,-0.01306 0.1211682,-0.05477 0.1498197,-0.08771 0.00397,-0.0046 0.055746,-0.03997 0.1150595,-0.07869 0.059314,-0.03872 0.1307559,-0.09284 0.1587601,-0.120276 0.028004,-0.02744 0.076896,-0.06632 0.1086476,-0.08641 0.049543,-0.03135 0.089939,-0.07004 0.2482169,-0.237731 0.013112,-0.01389 0.032007,-0.02526 0.04199,-0.02526 0.00998,0 0.022334,-0.01318 0.027445,-0.02928 0.00511,-0.0161 0.036399,-0.05779 0.069528,-0.09262 0.033128,-0.03484 0.079362,-0.08732 0.1027394,-0.116641 0.023379,-0.02932 0.066308,-0.06833 0.095399,-0.08669 0.037095,-0.02342 0.055698,-0.04743 0.062293,-0.0804 0.00517,-0.02586 0.040179,-0.09928 0.077795,-0.16317 0.037615,-0.06389 0.074887,-0.12735 0.082826,-0.141027 0.00794,-0.01368 0.042035,-0.07015 0.075772,-0.125496 0.033735,-0.05534 0.061339,-0.109851 0.061339,-0.121125 0,-0.01127 0.012461,-0.03178 0.027713,-0.04558 0.030256,-0.02738 0.057232,-0.12231 0.064134,-0.225691 0.00242,-0.03624 0.014694,-0.08495 0.027274,-0.108245 0.026209,-0.04853 0.068837,-0.15935 0.076674,-0.19933 0.00291,-0.01489 0.019116,-0.0822 0.035992,-0.149564 0.024124,-0.0963 0.027682,-0.134325 0.016637,-0.177847 -0.010569,-0.04167 -0.00835,-0.07581 0.00897,-0.138059 0.017543,-0.06302 0.018848,-0.08409 0.00549,-0.08854 -0.024247,-0.0081 -0.021958,-0.06985 0.00406,-0.109558 0.023207,-0.03542 0.021714,-0.220465 -0.00208,-0.25731 -0.019781,-0.03064 -0.017732,-0.229481 0.00314,-0.304212 0.016723,-0.05992 0.016126,-0.07692 -0.00472,-0.133159 -0.023894,-0.06447 -0.023894,-0.06447 0.022389,-0.105794 0.052234,-0.04663 0.055565,-0.06168 0.024238,-0.1094907 C 7.0334031,9.8804831 7.0067509,9.7739461 7.0258856,9.7262874 7.0397103,9.6918537 7.0423696,9.5148248 7.037375,8.9598747 7.0296358,8.1000252 7.0294483,8.09405 7.006519,8.0261539 6.991774,7.9824889 6.992098,7.9668029 7.008259,7.9395579 7.028718,7.9050909 7.030237,7.5508989 7.010649,7.3822316 7.003829,7.3235056 7.007039,7.2997436 7.024388,7.2805699 7.052384,7.2496349 7.055784,7.1929779 7.035536,7.0948517 7.016369,7.0019807 7.016742,6.8763838 7.0363884,6.7795244 c 0.012239,-0.060097 0.010722,-0.081246 -0.00846,-0.1183551 -0.019332,-0.037384 -0.020701,-0.057604 -0.00793,-0.1171434 0.00978,-0.045622 0.010484,-0.081541 0.00193,-0.098136 -0.00781,-0.015115 -0.00907,-0.078015 -0.00302,-0.1488536 0.012972,-0.1514734 0.00568,-0.3316426 -0.016433,-0.4054026 -0.012342,-0.041169 -0.012444,-0.060588 -3.409e-4,-0.075093 0.011523,-0.013886 0.012222,-0.044222 0.0024,-0.1045261 -0.00931,-0.057177 -0.00881,-0.1035732 0.00153,-0.1418738 0.010927,-0.0406 0.010773,-0.075001 -5.114e-4,-0.1200204 -0.011285,-0.044801 -0.011438,-0.071432 -5.114e-4,-0.091802 0.010211,-0.019084 0.01079,-0.045217 0.00174,-0.078025 -0.00748,-0.027132 -0.011421,-0.051539 -0.00871,-0.054238 0.00767,-0.00767 0.023391,-0.088435 0.0219,-0.1125019 -0.0084,-0.1356845 -0.013313,-0.3005666 -0.011387,-0.3824673 0.00309,-0.1310839 5.114e-4,-0.4292576 -0.00448,-0.5123618 -0.00213,-0.035721 -0.00355,-0.1298946 -0.00314,-0.2092746 3.409e-4,-0.07938 6.819e-4,-0.1670589 5.114e-4,-0.1948419 -1.5e-4,-0.027783 0.00259,-0.1596517 0.0061,-0.2930416 0.00349,-0.1333896 0.00136,-0.2456325 -0.00481,-0.2494286 -0.00614,-0.0038 -0.00987,-0.047285 -0.00828,-0.096642 C 6.9972236,3.0906067 6.9650448,2.9595724 6.8955274,2.7725082 6.8846005,2.7431071 6.868824,2.6762499 6.8604678,2.6239367 6.844802,2.5259704 6.7862472,2.3628106 6.7439019,2.2991702 6.7223704,2.266813 6.7025743,2.2266038 6.6231051,2.0538139 6.5857271,1.9725444 6.524588,1.8717271 6.4779794,1.8145098 6.4387366,1.7663342 6.3973834,1.7170641 6.2795305,1.5780755 c -0.02183,-0.025744 -0.039691,-0.054325 -0.039691,-0.063513 0,-0.023984 -0.1129418,-0.1370544 -0.1779036,-0.1781059 -0.030958,-0.019493 -0.064298,-0.056347 -0.075638,-0.083486 -0.01128,-0.026995 -0.034841,-0.053111 -0.05302,-0.058768 -0.017995,-0.0056 -0.057423,-0.03235 -0.087617,-0.059444 -0.030193,-0.027094 -0.070785,-0.056501 -0.090204,-0.065349 -0.019419,-0.00885 -0.035307,-0.021103 -0.035307,-0.027234 0,-0.00613 -0.056829,-0.0451952 -0.1262863,-0.0868093 C 5.5244071,0.91375159 5.4277849,0.85161579 5.379149,0.81728597 5.3305128,0.78295627 5.2838577,0.75486831 5.2754708,0.75486831 c -0.00839,0 -0.046531,-0.0189301 -0.084764,-0.042067 C 5.1524741,0.68966451 5.0757296,0.65974366 5.0201635,0.64631057 4.9131734,0.62044568 4.7588428,0.56524438 4.6904066,0.52836247 c -0.058773,-0.0316743 -0.409549,-0.0918091 -0.579505,-0.0993467 -0.07938,-0.00352 -0.212522,-0.009726 -0.295871,-0.0137895 -0.2005189,-0.009776 -0.2096611,-0.00981 -0.3103036,-0.001154 -0.149963,0.0128979 -0.2270203,0.0259871 -0.302273,0.0513452 -0.051597,0.0173866 -0.087778,0.0211665 -0.1234924,0.0129015 -0.072026,-0.0166683 -0.1581811,2.5911e-4 -0.1934449,0.0380067 -0.016644,0.017817 -0.049747,0.0358436 -0.073561,0.0400593 -0.047637,0.008433 -0.1899863,0.0518073 -0.3044913,0.0927797 -0.040462,0.0144783 -0.097779,0.0458083 -0.1273701,0.0696223 -0.029591,0.023814 -0.071175,0.0479974 -0.092409,0.053741 -0.021234,0.005743 -0.056678,0.0273101 -0.078765,0.0479255 -0.022088,0.0206154 -0.068131,0.049856 -0.1023193,0.0649789 -0.034188,0.015123 -0.078599,0.0439354 -0.098691,0.0640276 -0.020092,0.0200921 -0.05848,0.0439687 -0.085306,0.0530591 -0.026826,0.00909 -0.07854,0.044012 -0.1149202,0.077605 -0.03638,0.033592 -0.086288,0.065501 -0.1109069,0.070908 -0.04559,0.010013 -0.2050672,0.154146 -0.2058035,0.1860017 -2.216e-4,0.00924 -0.024569,0.031964 -0.054123,0.050505 C 1.3682494,1.4305768 1.2705139,1.556732 1.188274,1.7083944 1.176367,1.7303524 1.143893,1.7740004 1.11611,1.8053904 1.047298,1.8831344 0.88518627,2.1480209 0.88518627,2.1827136 c 0,0.020543 -0.0480685,0.1053779 -0.073738,0.1301384 -0.0324801,0.03133 -0.085022,0.1636741 -0.085022,0.2141567 0,0.054526 -0.0205356,0.1166385 -0.0797542,0.2412263 -0.11250181,0.236688 -0.13969376,0.4936709 -0.1198816,1.1329692 8.5233e-4,0.027783 -0.002612,0.1804091 -0.007719,0.3391692 -0.007956,0.2473915 -0.0264854,1.0974838 -0.0253243,1.1618346 2.216e-4,0.011907 0.003389,0.1840173 0.007052,0.3824674 0.004296,0.2326401 0.001466,0.3670885 -0.007978,0.3784687 -0.008053,0.00971 -0.0134088,0.042181 -0.0119019,0.072164 0.003939,0.078445 0.003587,0.1108492 -0.006268,0.5740912 -0.004897,0.230202 -0.008542,0.4331622 -0.008099,0.4510227 4.4321e-4,0.017861 7.33e-4,0.056829 6.4777e-4,0.086596 -8.66e-5,0.029767 3.7502e-4,0.086596 0.001006,0.1262865 0.001739,0.1094365 0.001364,0.1287209 -0.0068,0.3463855 -0.004166,0.1111319 -0.007473,0.2637581 -0.00735,0.339169 1.2989e-4,0.075411 -4.33e-5,0.1533479 -3.7503e-4,0.1731928 -0.0134548,0.8176269 -0.0261877,1.2692386 -0.0374966,1.3298602 -0.005474,0.029344 -9.2051e-4,0.067711 0.0115269,0.097243 0.0154834,0.036723 0.0168266,0.05869 0.005429,0.088884 -0.0100489,0.026622 -0.0105706,0.063598 -0.001551,0.1099824 0.009911,0.05096 0.008419,0.085336 -0.005508,0.1269826 -0.013298,0.03976 -0.0147793,0.06658 -0.004882,0.0883 0.00934,0.0205 0.009268,0.104844 -2.0456e-4,0.24598 -0.0125769,0.187287 -0.0104325,0.311773 0.007182,0.416842 0.0124678,0.07437 0.0254525,0.19734 0.0312424,0.295871 0.0127406,0.216808 0.0536911,0.410967 0.15068229,0.71442 0.0949016,0.296915 0.12665572,0.372336 0.20964062,0.497929 0.14388414,0.217762 0.19533604,0.300605 0.19533604,0.314515 0,0.0081 0.032474,0.04396 0.072164,0.07964 0.041374,0.0372 0.072164,0.07732 0.072164,0.09404 0,0.01604 0.017861,0.04767 0.03969,0.07028 0.042514,0.04405 0.1546517,0.168953 0.1927652,0.214706 0.042222,0.05069 0.1346562,0.130625 0.2004324,0.173339 0.088533,0.05749 0.1421738,0.106108 0.1523102,0.138045 0.00467,0.01471 0.020093,0.02675 0.034274,0.02675 0.014183,0 0.04378,0.01668 0.065773,0.03706 0.021993,0.02038 0.073276,0.0527 0.1139612,0.07181 0.040686,0.01911 0.083716,0.04122 0.095623,0.04913 0.070939,0.04709 0.216491,0.12902 0.216491,0.121858 0,-0.0047 0.021108,0.0038 0.046906,0.01891 0.025799,0.01507 0.092369,0.03946 0.1479354,0.0542 0.055566,0.01474 0.1062229,0.03553 0.1125709,0.04619 0.00635,0.01066 0.023825,0.01939 0.038838,0.01939 0.015013,0 0.030841,0.0057 0.035174,0.01275 0.00433,0.007 0.044515,0.01732 0.089294,0.02292 0.05055,0.0063 0.1073125,0.02611 0.1497224,0.0522 0.037568,0.02312 0.075335,0.04203 0.083926,0.04203 0.00859,0 0.037099,0.01257 0.063351,0.02793 0.026252,0.01536 0.080205,0.03542 0.1198949,0.04458 0.1158914,0.02674 0.1182087,0.02782 0.093408,0.0435 -0.015719,0.0099 -0.00929,0.01349 0.024722,0.01366 0.075233,3.58e-4 0.1200096,-0.02321 0.1200096,-0.06317 0,-0.04758 0.028337,-0.05421 0.073034,-0.01708 0.032108,0.02667 0.058312,0.03121 0.1998855,0.03459 0.089614,0.0021 0.1898904,0.01279 0.2228372,0.02366 0.098632,0.03255 0.1139714,0.03459 0.2042308,0.02715 0.065311,-0.0054 0.093201,-0.01485 0.1134644,-0.03851 z M 7.0969355,5.7736829 c 0.00822,-0.013039 0.010467,-0.02819 0.00499,-0.033671 -0.013723,-0.013731 -0.053961,0.021782 -0.053961,0.047633 0,0.026125 0.02888,0.017891 0.048973,-0.013961 z"
       id="path1108-3"
       sodipodi:nodetypes="ccccccsccssssccccscsssssscscssscsssscssssccscsccssscsccsscsssssssscssssssscssccsccccscccsscccssccsscscccscscscscsscssssccsssssscsssssssssssscsssssccscccsssssccccccssccscscccccccccccsccccccccccccsscccssssccssscccsssssccscsccssccccccccccssccscsssscscssssscsscscccscccccssscscccccccscccccccccccccccscssssscssscssssssssssssssssccssscsccscssssccccccsssscccscsssscssssscsccssssscscssscccsscccssccccccsscc" />
  </g>
  <g
     inkscape:groupmode="layer"
     id="g5730"
     inkscape:label="1"
     style="display:inline">
    <path
       style="display:inline;fill:#000000;stroke-width:0.0144327"
       d="m 3.2088561,13.697192 c 0,-0.264488 0,-0.264488 -0.053425,-0.268086 -0.029384,-0.002 -0.060234,-0.009 -0.068555,-0.01557 -0.00832,-0.0066 -0.037862,-0.016 -0.065645,-0.02092 -0.049883,-0.0088 -0.058511,-0.01118 -0.1010292,-0.02748 -0.048604,-0.01863 -0.1371108,-0.04363 -0.1371108,-0.03872 0,0.0029 -0.019484,-0.0047 -0.043298,-0.01683 -0.1161991,-0.05928 -0.1405557,-0.0704 -0.154226,-0.0704 -0.022277,0 -0.4377128,-0.25277 -0.4723291,-0.287386 -0.016574,-0.01657 -0.036398,-0.03013 -0.044053,-0.03013 -0.013075,0 -0.3801042,-0.360737 -0.4122815,-0.405214 -0.04204,-0.05811 -0.1013007,-0.13687 -0.1077689,-0.14323 -0.050947,-0.05009 -0.2297398,-0.37828 -0.2869923,-0.526795 -0.044754,-0.116092 -0.053117,-0.137538 -0.071766,-0.184028 -0.019043,-0.04747 -0.074427,-0.261332 -0.081119,-0.313231 -0.00261,-0.02021 -0.0087,-0.05948 -0.01354,-0.08727 -0.072597,-0.416661 -0.023138,-0.591935 0.1669493,-0.591647 0.1467055,2.22e-4 0.2063,0.08603 0.2204631,0.317425 0.00413,0.06747 0.011063,0.138915 0.01541,0.15876 0.00435,0.01985 0.011624,0.06531 0.016175,0.101029 0.00925,0.07263 0.066542,0.279668 0.1018368,0.368035 0.072057,0.180407 0.080495,0.198517 0.154673,0.331952 0.1539636,0.276958 0.1493179,0.285329 0.1501965,-0.270613 8.864e-4,-0.561147 0.015589,-4.2189408 0.024843,-6.1808165 0.00367,-0.777924 0.007,-1.6610835 0.00739,-1.9625766 7.159e-4,-0.5481692 7.159e-4,-0.5481692 0.035023,-0.6067038 0.081909,-0.1397677 0.2794343,-0.1282666 0.3705591,0.021576 0.035669,0.058652 0.035236,-0.4948952 0.00614,7.8564679 -0.00345,0.990885 -0.00267,1.811004 0.00173,1.822485 0.00441,0.01148 0.052718,0.04744 0.1073599,0.0799 0.054642,0.03246 0.099349,0.06478 0.099349,0.07181 0,0.007 0.00963,0.01279 0.021395,0.01279 0.011767,0 0.063839,0.02598 0.1157161,0.05773 0.051877,0.03175 0.1025037,0.05773 0.1125047,0.05773 0.010001,0 0.030994,0.0088 0.046652,0.0195 0.023025,0.01577 0.078862,0.03609 0.1222816,0.0445 0.00397,7.67e-4 0.013711,0.0054 0.021649,0.01031 0.00794,0.0049 0.037164,0.01367 0.064947,0.01949 0.027783,0.0058 0.057009,0.0157 0.064947,0.02197 0.1227271,0.09685 0.1136216,0.530415 0.1145825,-5.455862 8.694e-4,-5.404616 0.00124,-5.4777947 0.029014,-5.5205189 0.079813,-0.1228276 0.1965233,-0.1480517 0.3159866,-0.068293 0.1059691,0.07075 0.1051137,0.06267 0.1014432,0.9582162 -0.00177,0.43135 -0.00726,2.1644027 -0.012198,3.8512279 -0.00494,1.6868252 -0.011849,3.7955728 -0.01535,4.6861058 -0.00608,1.546693 -0.00521,1.619519 0.019485,1.627357 0.036087,0.01145 0.2642863,-0.0013 0.3852952,-0.02158 0.055494,-0.0093 0.1160951,-0.0189 0.1346685,-0.02135 0.061556,-0.0081 0.1824933,-0.03919 0.1971538,-0.05062 0.00794,-0.0062 0.03886,-0.01582 0.068715,-0.0214 0.029855,-0.0056 0.057841,-0.0159 0.062191,-0.02294 0.00435,-0.007 0.020132,-0.0128 0.035071,-0.0128 0.047205,0 0.048627,-0.02106 0.047203,-0.699289 C 4.626403,11.885705 4.6212686,9.8427985 4.6157609,7.7114454 4.604684,3.4246236 4.603922,2.4179068 4.6117242,2.3857683 c 0.050965,-0.2099265 0.309936,-0.2514487 0.4012805,-0.064339 0.028001,0.057358 0.028492,0.099357 0.02914,2.4968621 0.00167,6.1485376 0.00527,7.8597676 0.016571,7.8667546 0.055048,0.03402 0.4867313,-0.403446 0.6103459,-0.618525 0.021671,-0.0377 0.044196,-0.06855 0.050058,-0.06855 0.00586,0 0.010656,-0.0082 0.010656,-0.01812 0,-0.01 0.01629,-0.04407 0.036197,-0.07577 0.048878,-0.07784 0.1228373,-0.235361 0.1354901,-0.28857 0.00566,-0.02381 0.014759,-0.04979 0.020212,-0.05773 0.00887,-0.01292 0.040632,-0.113685 0.044264,-0.140453 7.841e-4,-0.0058 0.00761,-0.03179 0.015168,-0.05773 0.00755,-0.02595 0.016435,-0.06341 0.019734,-0.08326 0.024644,-0.148238 0.038343,-0.268706 0.038775,-0.340995 2.727e-4,-0.04662 -7.21e-5,-1.5185724 -7.671e-4,-3.2709978 -0.00128,-3.1862282 -0.00128,-3.1862282 0.034808,-3.2433909 0.070597,-0.1118326 0.1705969,-0.1351188 0.2870861,-0.066851 0.1141095,0.066873 0.1080886,0.0056 0.1023593,1.0414205 -0.00281,0.5077451 -0.00895,1.9266084 -0.013654,3.1530296 -0.00856,2.2329896 -0.015086,2.5015256 -0.065075,2.6772716 -0.00677,0.02381 -0.016774,0.06928 -0.022217,0.101029 -0.019239,0.112158 -0.022911,0.127408 -0.037022,0.153776 -0.00784,0.01465 -0.00999,0.02663 -0.00476,0.02663 0.00522,0 0.0031,0.0081 -0.00472,0.01804 -0.00782,0.0099 -0.019447,0.03752 -0.025848,0.06134 -0.00641,0.02381 -0.012734,0.04655 -0.014063,0.05051 -0.00789,0.02348 -0.026021,0.06977 -0.039582,0.101029 -0.00861,0.01985 -0.017297,0.04454 -0.019309,0.05487 -0.00201,0.01034 -0.013922,0.03446 -0.02647,0.05362 -0.012548,0.01915 -0.022816,0.04221 -0.022816,0.05124 0,0.02363 -0.224317,0.396005 -0.2943869,0.48869 -0.09898,0.130926 -0.3176969,0.364309 -0.4067836,0.434061 -0.064363,0.05039 -0.1725533,0.137647 -0.1792258,0.144542 -0.00731,0.0076 -0.1850815,0.123018 -0.2381401,0.154674 -0.034927,0.02084 -0.2374554,0.120417 -0.3175201,0.156118 -0.031752,0.01416 -0.1064414,0.04265 -0.1659764,0.06332 -0.1082455,0.03758 -0.1082455,0.03758 -0.1030204,0.31511 0.00522,0.277529 0.00522,0.277529 -0.2092744,0.278602 -0.117975,5.96e-4 -0.2274892,0.0032 -0.2433652,0.0057 -0.015875,0.0026 -0.2025995,0.0088 -0.414941,0.01379 -0.3860751,0.0091 -0.3860751,0.0091 -0.3860751,-0.255349 z M 7.0969355,5.7736829 c 0.00822,-0.013039 0.010467,-0.02819 0.00499,-0.033671 -0.013723,-0.013731 -0.053961,0.021782 -0.053961,0.047633 0,0.026125 0.02888,0.017891 0.048973,-0.013961 z"
       id="path5728"
       sodipodi:nodetypes="cccccscscsscssccssscssssccsccssssscscccccsccscsccccssscscccsscssccccccsscscsscccsccssccssscccccccsscc" />
  </g>
  <g
     inkscape:groupmode="layer"
     id="g5726"
     inkscape:label="2"
     style="display:inline">
    <path
       style="display:inline;fill:#000000;stroke-width:0.0144327"
       d="M 4.0449469,12.525345 C 4.0166097,12.506757 3.9822151,12.47444 3.9685143,12.45353 3.9450373,12.4177 3.943543,12.100094 3.9425467,6.9344257 3.9417625,2.8813636 3.9372367,1.4475705 3.9251664,1.4311976 3.8863642,1.3785639 3.7779162,1.3686701 3.5408088,1.3961324 3.4483156,1.4068444 3.1065592,1.4902357 3.0878842,1.5066486 3.0744073,1.5184943 3.0668536,3.962893 3.0645871,9.046471 c -7.501e-4,1.674918 -9.887e-4,3.059935 -5.455e-4,3.077815 8.523e-4,0.03412 -0.052132,0.128148 -0.089831,0.159436 -0.076726,0.06368 -0.2568266,0.01918 -0.3217817,-0.0795 -0.028976,-0.04402 -0.032785,-0.886908 -0.035354,-7.8231305 -5.455e-4,-1.4546388 -0.00598,-2.6447977 -0.012096,-2.6447977 -0.00611,0 -0.030918,0.014614 -0.055119,0.032474 -0.024201,0.017861 -0.061695,0.045463 -0.08332,0.061339 -0.110216,0.080917 -0.3057512,0.2675618 -0.376215,0.3591099 -0.015875,0.020626 -0.042733,0.053335 -0.059683,0.072685 -0.016949,0.01935 -0.051523,0.071373 -0.076831,0.1156056 -0.025308,0.044233 -0.052032,0.080423 -0.059387,0.080423 -0.00736,0 -0.013373,0.00963 -0.013373,0.021395 0,0.011767 -0.025979,0.063839 -0.057731,0.1157162 -0.031757,0.051877 -0.057736,0.1025036 -0.057736,0.1125047 0,0.010001 -0.00877,0.030994 -0.019496,0.046652 -0.010722,0.015657 -0.024806,0.047953 -0.031297,0.071767 -0.01479,0.054261 -0.010801,0.042485 -0.043997,0.1298946 -0.014963,0.0394 -0.014491,0.037841 -0.026271,0.086596 -0.034767,0.1438838 -0.038237,0.1619886 -0.062241,0.3247365 -0.00527,0.035721 -0.00908,0.1461313 -0.00847,0.2453565 0.00521,0.8475328 0.00473,1.2487253 -0.00218,1.7968747 -0.0044,0.349272 -0.01139,1.4786817 -0.015535,2.5097991 -0.00744,1.8516656 -0.0079,1.875403 -0.036905,1.9270174 C 1.4512005,9.9672152 1.3320216,9.9956104 1.2119262,9.9194482 1.0958746,9.8458505 1.1039898,10.015442 1.110759,7.8052564 1.1248701,3.1980231 1.1206443,3.43612 1.1951429,3.0512886 c 0.00367,-0.018956 0.017694,-0.070914 0.031166,-0.1154618 0.013472,-0.044548 0.026661,-0.089115 0.029311,-0.099037 0.00265,-0.00992 0.00699,-0.026159 0.00964,-0.036082 0.00265,-0.00992 0.013203,-0.037525 0.023446,-0.061339 0.010243,-0.023814 0.024911,-0.059535 0.032595,-0.07938 0.00768,-0.019845 0.023112,-0.054469 0.034285,-0.076941 0.011172,-0.022473 0.020314,-0.047509 0.020314,-0.055635 0,-0.017761 0.2541435,-0.4427458 0.2832144,-0.4735978 0.01122,-0.011907 0.054658,-0.064386 0.096529,-0.1166208 C 1.9143078,1.739258 2.2012708,1.488587 2.4006211,1.373783 c 0.027783,-0.016 0.076494,-0.044742 0.1082455,-0.063871 0.031752,-0.019129 0.072255,-0.041234 0.090007,-0.049123 0.017752,-0.00789 0.059967,-0.028108 0.093813,-0.044932 0.065326,-0.032472 0.2297748,-0.097543 0.2780281,-0.1100132 0.015875,-0.0041 0.04835,-0.015894 0.072164,-0.026204 0.023814,-0.01031 0.082267,-0.026974 0.1298946,-0.037032 0.1210846,-0.02557 0.1160298,-0.014597 0.1203439,-0.261239 0.00212,-0.12125245 0.0065,-0.22310729 0.00974,-0.22634414 0.00563,-0.005625 0.3710822,-0.002992 0.7863931,0.005667 0.107163,0.002234 0.2532944,0.004626 0.3247364,0.005314 0.1298946,0.001251 0.1298946,0.001251 0.129406,0.25335537 -4.943e-4,0.25210327 -4.943e-4,0.25210327 0.042825,0.26161647 0.023822,0.00523 0.053268,0.014425 0.065436,0.020427 0.012168,0.006 0.03836,0.017449 0.058205,0.025437 0.019845,0.00799 0.08804,0.035391 0.1515437,0.060896 0.11602,0.046597 0.4651393,0.2470006 0.5513371,0.3164812 0.025405,0.020478 0.063775,0.050223 0.085265,0.066099 0.055772,0.041202 0.3379725,0.3228096 0.3809054,0.3801057 0.019845,0.026484 0.042576,0.055886 0.050514,0.065337 0.00794,0.00945 0.027947,0.036493 0.044465,0.060093 0.016518,0.0236 0.053026,0.075749 0.081129,0.1158876 0.028103,0.040138 0.055606,0.087187 0.061118,0.1045519 0.00551,0.017365 0.017714,0.039928 0.027116,0.05014 0.039403,0.042795 0.1831116,0.3770415 0.2061738,0.479533 0.00535,0.023814 0.014455,0.049793 0.020214,0.057731 0.010756,0.014831 0.049752,0.1770952 0.064161,0.2670054 0.00445,0.027783 0.011285,0.066751 0.015205,0.086596 0.09103,0.462515 -0.032407,0.7246448 -0.2825634,0.6000495 C 6.0809906,3.7947863 6.0624464,3.7394753 6.0451029,3.4754375 6.0276114,3.2091449 5.9524376,2.9138779 5.8417584,2.6767429 c -0.027191,-0.058258 -0.049438,-0.1118397 -0.049438,-0.11907 0,-0.00723 -0.00595,-0.013146 -0.01323,-0.013146 -0.00728,0 -0.019753,-0.017861 -0.027726,-0.03969 -0.014496,-0.03969 -0.014496,-0.03969 -0.015785,0.00361 -0.0029,0.097532 -0.023769,3.7107119 -0.037465,6.4875117 -0.011665,2.3651384 -0.011914,2.3771294 -0.05009,2.4102384 -0.1271893,0.11031 -0.3630045,-0.02536 -0.3473181,-0.199817 0.00671,-0.07458 0.00456,-1.8292634 -0.00617,-5.0392364 C 5.2894592,4.647015 5.2843878,3.0720434 5.2832696,2.6672054 5.2812479,1.9349875 5.2810757,1.9309846 5.2503534,1.9022702 5.1957788,1.8512633 5.1373968,1.8080544 5.0634702,1.7639564 5.0237803,1.7402806 4.9815646,1.714814 4.9696576,1.7073638 4.858175,1.6376088 4.7493511,1.5775339 4.7344746,1.5775339 c -0.010001,0 -0.030994,-0.00865 -0.046652,-0.019215 C 4.6721653,1.5477495 4.6127151,1.524348 4.5557121,1.5063142 4.3746968,1.4490469 4.3962967,1.1037679 4.3855792,4.2259396 c -0.0051,1.4844061 -0.011849,3.267209 -0.015008,3.9617842 -0.01248,2.7442002 -0.010623,4.0759852 0.00576,4.1275932 0.05237,0.165003 -0.1777065,0.310828 -0.3313723,0.210028 z"
       id="path5724"
       sodipodi:nodetypes="cscsscccsscsccscssscscssccscccssssscsccssssscscsscsssccccsssscssccccccsssssscssccssssscscsccc" />
  </g>
</svg>
